{
	"asset":{
		"generator":"Khronos glTF Blender I/O v5.0.21",
		"version":"2.0"
	},
	"scene":0,
	"scenes":[
		{
			"name":"Scene",
			"nodes":[
				6
			]
		}
	],
	"nodes":[
		{
			"mesh":0,
			"name":"body_07 - Default_0"
		},
		{
			"children":[
				0
			],
			"name":"body",
			"rotation":[
				-0.70710688829422,
				0,
				0,
				0.7071066498756409
			],
			"translation":[
				0,
				-6.432251930236816,
				0
			]
		},
		{
			"mesh":1,
			"name":"head_default_0"
		},
		{
			"children":[
				2
			],
			"name":"head",
			"rotation":[
				-0.70710688829422,
				0,
				0,
				0.7071066498756409
			],
			"translation":[
				0,
				-6.432251930236816,
				0
			]
		},
		{
			"children":[
				1,
				3
			],
			"name":"RootNode"
		},
		{
			"children":[
				4
			],
			"name":"49da11f1aafb41c5b81b8f5808aec52e.fbx",
			"rotation":[
				0.70710688829422,
				0,
				0,
				0.7071066498756409
			]
		},
		{
			"children":[
				5
			],
			"name":"Sketchfab_model",
			"rotation":[
				-0.70710688829422,
				0,
				0,
				0.7071066498756409
			]
		}
	],
	"materials":[
		{
			"doubleSided":true,
			"name":"07_-_Default",
			"normalTexture":{
				"index":0
			},
			"pbrMetallicRoughness":{
				"baseColorFactor":[
					0.3187881112098694,
					0.3187881112098694,
					0.3187881112098694,
					1
				],
				"baseColorTexture":{
					"index":1
				},
				"metallicFactor":0.6358612775802612,
				"metallicRoughnessTexture":{
					"index":2
				},
				"roughnessFactor":0.21779724955558777
			}
		},
		{
			"doubleSided":true,
			"name":"default",
			"normalTexture":{
				"index":3
			},
			"pbrMetallicRoughness":{
				"baseColorTexture":{
					"index":4
				},
				"metallicRoughnessTexture":{
					"index":5
				},
				"roughnessFactor":0.2543826103210449
			}
		}
	],
	"meshes":[
		{
			"name":"body_07 - Default_0",
			"primitives":[
				{
					"attributes":{
						"POSITION":0,
						"NORMAL":1,
						"TEXCOORD_0":2
					},
					"indices":3,
					"material":0
				}
			]
		},
		{
			"name":"head_default_0",
			"primitives":[
				{
					"attributes":{
						"POSITION":4,
						"NORMAL":5,
						"TEXCOORD_0":6
					},
					"indices":7,
					"material":1
				}
			]
		}
	],
	"textures":[
		{
			"sampler":0,
			"source":0
		},
		{
			"sampler":0,
			"source":1
		},
		{
			"sampler":0,
			"source":2
		},
		{
			"sampler":0,
			"source":3
		},
		{
			"sampler":0,
			"source":4
		},
		{
			"sampler":0,
			"source":5
		}
	],
	"images":[
		{
			"mimeType":"image/png",
			"name":"07_-_Default_normal",
			"uri":"07_-_Default_normal.png"
		},
		{
			"mimeType":"image/png",
			"name":"07_-_Default_baseColor",
			"uri":"07_-_Default_baseColor.png"
		},
		{
			"mimeType":"image/png",
			"name":"07_-_Default_metallicRoughness",
			"uri":"07_-_Default_metallicRoughness.png"
		},
		{
			"mimeType":"image/png",
			"name":"default_normal",
			"uri":"default_normal.png"
		},
		{
			"mimeType":"image/png",
			"name":"default_baseColor",
			"uri":"default_baseColor.png"
		},
		{
			"mimeType":"image/png",
			"name":"default_metallicRoughness",
			"uri":"default_metallicRoughness.png"
		}
	],
	"accessors":[
		{
			"bufferView":0,
			"componentType":5126,
			"count":7016,
			"max":[
				68.10273742675781,
				277.08453369140625,
				267.9559020996094
			],
			"min":[
				-123.34906005859375,
				-109.03875732421875,
				5.843043327331543
			],
			"type":"VEC3"
		},
		{
			"bufferView":1,
			"componentType":5126,
			"count":7016,
			"type":"VEC3"
		},
		{
			"bufferView":2,
			"componentType":5126,
			"count":7016,
			"type":"VEC2"
		},
		{
			"bufferView":3,
			"componentType":5123,
			"count":33951,
			"type":"SCALAR"
		},
		{
			"bufferView":4,
			"componentType":5126,
			"count":1829,
			"max":[
				35.30927658081055,
				34.818084716796875,
				289.16107177734375
			],
			"min":[
				-36.48139572143555,
				-65.39677429199219,
				186.9889678955078
			],
			"type":"VEC3"
		},
		{
			"bufferView":5,
			"componentType":5126,
			"count":1829,
			"type":"VEC3"
		},
		{
			"bufferView":6,
			"componentType":5126,
			"count":1829,
			"type":"VEC2"
		},
		{
			"bufferView":7,
			"componentType":5123,
			"count":8970,
			"type":"SCALAR"
		}
	],
	"bufferViews":[
		{
			"buffer":0,
			"byteLength":84192,
			"byteOffset":0,
			"target":34962
		},
		{
			"buffer":0,
			"byteLength":84192,
			"byteOffset":84192,
			"target":34962
		},
		{
			"buffer":0,
			"byteLength":56128,
			"byteOffset":168384,
			"target":34962
		},
		{
			"buffer":0,
			"byteLength":67902,
			"byteOffset":224512,
			"target":34963
		},
		{
			"buffer":0,
			"byteLength":21948,
			"byteOffset":292416,
			"target":34962
		},
		{
			"buffer":0,
			"byteLength":21948,
			"byteOffset":314364,
			"target":34962
		},
		{
			"buffer":0,
			"byteLength":14632,
			"byteOffset":336312,
			"target":34962
		},
		{
			"buffer":0,
			"byteLength":17940,
			"byteOffset":350944,
			"target":34963
		}
	],
	"samplers":[
		{
			"magFilter":9729,
			"minFilter":9987
		}
	],
	"buffers":[
		{
			"byteLength":368884,
			"uri":"xeno_raven.bin"
		}
	]
}
