{
	"asset":{
		"generator":"Khronos glTF Blender I/O v5.0.21",
		"version":"2.0"
	},
	"scene":0,
	"scenes":[
		{
			"name":"Scene",
			"nodes":[
				63
			]
		}
	],
	"nodes":[
		{
			"name":"AlienQueen_795",
			"translation":[
				0.0038269758224487305,
				-1.1241130828857422,
				-0.011199235916137695
			]
		},
		{
			"name":"char_grp_146",
			"translation":[
				0.0038269758224487305,
				-1.1241130828857422,
				-0.011199235916137695
			]
		},
		{
			"name":"cs_circle_ik_21",
			"scale":[
				0.09799998998641968,
				0.09799998998641968,
				0.09799998998641968
			],
			"translation":[
				-0.263301819562912,
				-1.2373433113098145,
				0.04152357205748558
			]
		},
		{
			"name":"cs_grp_145",
			"translation":[
				0.0038269758224487305,
				-1.1241130828857422,
				-0.011199235916137695
			]
		},
		{
			"name":"cs_plane_4_fill_50",
			"scale":[
				0.09799998998641968,
				0.09799998998641968,
				0.09799998998641968
			],
			"translation":[
				1.3416191339492798,
				-0.6183282136917114,
				0.04152357205748558
			]
		},
		{
			"name":"cs_user_c_shoulder.l_132",
			"scale":[
				0.081199049949646,
				0.08119907230138779,
				0.0811990350484848
			],
			"translation":[
				0.08181827515363693,
				0.27235352993011475,
				0.052799955010414124
			]
		},
		{
			"name":"GLTF_SceneRootNode",
			"translation":[
				0.0038269758224487305,
				-1.1241130828857422,
				-0.011199235916137695
			]
		},
		{
			"name":"MouthMouth_796",
			"translation":[
				0.0038269758224487305,
				-1.1241130828857422,
				-0.011199235916137695
			]
		},
		{
			"name":"Hueso.006",
			"rotation":[
				0.5552197694778442,
				-1.2457665121701211e-08,
				-0.00405616220086813,
				0.8316938281059265
			],
			"scale":[
				1,
				0.9999999403953552,
				0.9999999403953552
			],
			"translation":[
				-8.166208863258362e-05,
				0.14325204491615295,
				0.1260068267583847
			]
		},
		{
			"name":"Hueso.008",
			"rotation":[
				-0.82872074842453,
				-8.534128573955968e-05,
				0.00038423138903453946,
				0.5596622228622437
			],
			"scale":[
				0.9999999403953552,
				0.9999998807907104,
				0.9999998211860657
			],
			"translation":[
				-0.0008017148356884718,
				0.21213504672050476,
				-0.1012708842754364
			]
		},
		{
			"name":"Hueso.009",
			"rotation":[
				-0.9181285500526428,
				-0.0010218078969046474,
				-0.00022354208340402693,
				0.396281361579895
			],
			"scale":[
				1,
				1,
				0.9999996423721313
			],
			"translation":[
				-0.0018382600974291563,
				-0.09473010897636414,
				-0.8834624886512756
			]
		},
		{
			"children":[
				8,
				9,
				10
			],
			"name":"Hueso.003",
			"rotation":[
				0.10210920125246048,
				-2.6742680347524583e-05,
				-9.689400758361444e-05,
				0.9947732090950012
			],
			"scale":[
				0.9999999403953552,
				0.9999998807907104,
				1
			],
			"translation":[
				-1.673470251262188e-10,
				0.23092208802700043,
				-1.7746583580446895e-07
			]
		},
		{
			"name":"Hueso.007",
			"rotation":[
				-0.046437639743089676,
				1.4613155130405175e-10,
				0.00018370086036156863,
				0.9989211559295654
			],
			"scale":[
				0.9999999403953552,
				0.9999998807907104,
				1
			],
			"translation":[
				-0.00021137134172022343,
				0.19016319513320923,
				-0.053432587534189224
			]
		},
		{
			"children":[
				12
			],
			"name":"Hueso.004",
			"rotation":[
				0.6996158957481384,
				0.0002161859010811895,
				-0.0009658708004280925,
				0.7145184278488159
			],
			"scale":[
				0.9999999403953552,
				1,
				1
			],
			"translation":[
				-1.673470251262188e-10,
				0.23092208802700043,
				-1.7746583580446895e-07
			]
		},
		{
			"name":"Hueso.005",
			"rotation":[
				-0.356414258480072,
				0.00030189112294465303,
				0.0016548733692616224,
				0.9343265295028687
			],
			"translation":[
				-1.673470251262188e-10,
				0.23092208802700043,
				-1.7746583580446895e-07
			]
		},
		{
			"children":[
				11,
				13,
				14
			],
			"name":"Hueso.002",
			"rotation":[
				0.3121534585952759,
				-0.004602503031492233,
				-0.014287656173110008,
				0.9499131441116333
			],
			"translation":[
				1.9063008949160576e-09,
				0.3072715401649475,
				1.3696904943572008e-08
			]
		},
		{
			"name":"Hueso.008.L",
			"rotation":[
				-0.03730184957385063,
				-0.26961252093315125,
				-0.27032431960105896,
				0.9234946966171265
			],
			"translation":[
				9.499490261077881e-08,
				0.19649599492549896,
				-1.4901161193847656e-08
			]
		},
		{
			"children":[
				16
			],
			"name":"Hueso.007.L",
			"rotation":[
				-0.01020477432757616,
				0.009669976308941841,
				-0.0055053760297596455,
				0.9998860359191895
			],
			"scale":[
				0.9999999403953552,
				0.9999999403953552,
				1
			],
			"translation":[
				-1.2759119272232056e-07,
				0.39012181758880615,
				1.043081283569336e-07
			]
		},
		{
			"children":[
				17
			],
			"name":"Hueso.006.L",
			"rotation":[
				0.332542359828949,
				0.02322646602988243,
				0.028732866048812866,
				0.9423643350601196
			],
			"scale":[
				0.9999999403953552,
				1,
				0.9999999403953552
			],
			"translation":[
				1.0084477253258228e-08,
				0.43480223417282104,
				-2.421438694000244e-08
			]
		},
		{
			"children":[
				18
			],
			"name":"Hueso.005.L",
			"rotation":[
				0.05761456862092018,
				-0.022017335519194603,
				-0.37591883540153503,
				0.9245976805686951
			],
			"scale":[
				1.0000001192092896,
				1.0000001192092896,
				1
			],
			"translation":[
				2.9424821690327008e-08,
				0.2392846643924713,
				-1.7903900584315124e-11
			]
		},
		{
			"children":[
				19
			],
			"name":"Hueso.004.L",
			"rotation":[
				-0.02788645029067993,
				-0.03772871568799019,
				-0.8180673122406006,
				0.5732057094573975
			],
			"scale":[
				1.0000001192092896,
				1.0000001192092896,
				1
			],
			"translation":[
				1.9063008949160576e-09,
				0.3072715401649475,
				1.3696904943572008e-08
			]
		},
		{
			"name":"Hueso.008.R",
			"rotation":[
				-0.06122734397649765,
				0.26494961977005005,
				0.271331787109375,
				0.923272430896759
			],
			"scale":[
				1.0000001192092896,
				1.0000001192092896,
				1
			],
			"translation":[
				-8.568167686462402e-08,
				0.20043469965457916,
				2.9802322387695312e-08
			]
		},
		{
			"children":[
				21
			],
			"name":"Hueso.007.R",
			"rotation":[
				-0.0049032289534807205,
				-0.005980168469250202,
				0.007614826317876577,
				0.9999411106109619
			],
			"scale":[
				1,
				1,
				0.9999998807907104
			],
			"translation":[
				1.564621925354004e-07,
				0.3892565369606018,
				8.940696716308594e-08
			]
		},
		{
			"children":[
				22
			],
			"name":"Hueso.006.R",
			"rotation":[
				0.34093084931373596,
				-0.025045011192560196,
				-0.032765720039606094,
				0.9391833543777466
			],
			"translation":[
				8.672941476106644e-09,
				0.4359932839870453,
				1.30385160446167e-08
			]
		},
		{
			"children":[
				23
			],
			"name":"Hueso.005.R",
			"rotation":[
				0.05348166078329086,
				0.02043789252638817,
				0.376929372549057,
				0.9244707822799683
			],
			"scale":[
				1.0000001192092896,
				1.0000001192092896,
				0.9999999403953552
			],
			"translation":[
				-5.138045722219431e-08,
				0.2392847090959549,
				-6.797740148556386e-10
			]
		},
		{
			"children":[
				24
			],
			"name":"Hueso.004.R",
			"rotation":[
				-0.026974152773618698,
				0.03838625177741051,
				0.8024864196777344,
				0.5948230624198914
			],
			"scale":[
				0.9999998807907104,
				1,
				1
			],
			"translation":[
				-0.002656676108017564,
				0.30734241008758545,
				-3.234550263186975e-07
			]
		},
		{
			"children":[
				15,
				20,
				25
			],
			"name":"Hueso.001",
			"rotation":[
				0.07690195739269257,
				-0.00019144199904985726,
				0.023199573159217834,
				0.9967687129974365
			],
			"scale":[
				1,
				0.9999999403953552,
				1
			],
			"translation":[
				-3.828972694464028e-09,
				0.47951534390449524,
				1.684120576328496e-08
			]
		},
		{
			"name":"Hueso.007.L.002",
			"rotation":[
				-0.2800389528274536,
				0.12062205374240875,
				-0.13794492185115814,
				0.9423373341560364
			],
			"scale":[
				1.0000001192092896,
				1,
				1.0000001192092896
			],
			"translation":[
				7.450580596923828e-09,
				0.12132997810840607,
				8.381903171539307e-08
			]
		},
		{
			"children":[
				27
			],
			"name":"Hueso.006.L.002",
			"rotation":[
				-0.276551753282547,
				0.7039815783500671,
				0.3615608513355255,
				0.545163094997406
			],
			"scale":[
				1.0000001192092896,
				1.000000238418579,
				1.0000001192092896
			],
			"translation":[
				-1.30385160446167e-08,
				0.2641713321208954,
				-1.1175870895385742e-08
			]
		},
		{
			"children":[
				28
			],
			"name":"Hueso.005.L.002",
			"rotation":[
				0.22833003103733063,
				-0.9256505966186523,
				-0.19492533802986145,
				0.23030532896518707
			],
			"scale":[
				1,
				1.000000238418579,
				1
			],
			"translation":[
				8.66129994392395e-08,
				0.25170227885246277,
				-6.705522537231445e-08
			]
		},
		{
			"children":[
				29
			],
			"name":"Hueso.004.L.002",
			"rotation":[
				0.284242182970047,
				-0.467593252658844,
				-0.7210243344306946,
				0.42507272958755493
			],
			"scale":[
				0.9999999403953552,
				0.9999998807907104,
				1
			],
			"translation":[
				-3.828972694464028e-09,
				0.47951534390449524,
				1.684120576328496e-08
			]
		},
		{
			"name":"Hueso.007.R.002",
			"rotation":[
				-0.28003886342048645,
				-0.12062203884124756,
				0.13794487714767456,
				0.9423373937606812
			],
			"scale":[
				0.9999999403953552,
				1,
				1
			],
			"translation":[
				-7.450580596923828e-09,
				0.12132973968982697,
				-3.5390257835388184e-08
			]
		},
		{
			"children":[
				31
			],
			"name":"Hueso.006.R.002",
			"rotation":[
				-0.27655187249183655,
				-0.7039815783500671,
				-0.3615609109401703,
				0.5451629757881165
			],
			"translation":[
				1.8486753106117249e-07,
				0.2641712725162506,
				0
			]
		},
		{
			"children":[
				32
			],
			"name":"Hueso.005.R.002",
			"rotation":[
				0.2283301055431366,
				0.9256505370140076,
				0.19492533802986145,
				0.23030532896518707
			],
			"scale":[
				1,
				1.0000003576278687,
				1.0000001192092896
			],
			"translation":[
				6.612390279769897e-08,
				0.2517022490501404,
				1.4156103134155273e-07
			]
		},
		{
			"children":[
				33
			],
			"name":"Hueso.004.R.002",
			"rotation":[
				0.2749101519584656,
				0.47315219044685364,
				0.7293199896812439,
				0.41066256165504456
			],
			"scale":[
				0.9999998807907104,
				1,
				1
			],
			"translation":[
				-0.019042549654841423,
				0.4791370928287506,
				2.9061999384794035e-07
			]
		},
		{
			"children":[
				26,
				30,
				34
			],
			"name":"Hueso",
			"rotation":[
				-0.03003889136016369,
				-0.0003054993285331875,
				-0.009925765916705132,
				0.9994993805885315
			]
		},
		{
			"name":"Hueso.008.L.001",
			"rotation":[
				-0.0028627547435462475,
				-0.003195886965841055,
				-0.3029818534851074,
				0.9529867172241211
			],
			"scale":[
				1.0000001192092896,
				1,
				1
			],
			"translation":[
				7.683411240577698e-09,
				0.3278370797634125,
				6.03176886215806e-09
			]
		},
		{
			"children":[
				36
			],
			"name":"Hueso.007.L.001",
			"rotation":[
				-0.056449923664331436,
				0.024030180647969246,
				-0.6823527216911316,
				0.7284440398216248
			],
			"scale":[
				1.0000001192092896,
				0.9999999403953552,
				1
			],
			"translation":[
				5.587935447692871e-09,
				0.5804406404495239,
				-1.4435499906539917e-08
			]
		},
		{
			"children":[
				37
			],
			"name":"Hueso.006.L.001",
			"rotation":[
				0.033117521554231644,
				-0.013117852620780468,
				0.737734317779541,
				0.6741507649421692
			],
			"scale":[
				1,
				1,
				0.9999998807907104
			],
			"translation":[
				-1.4551915228366852e-08,
				0.5268583297729492,
				-1.3053067959845066e-08
			]
		},
		{
			"children":[
				38
			],
			"name":"Hueso.005.L.001",
			"rotation":[
				-0.4949989318847656,
				-0.15433181822299957,
				-0.2539467215538025,
				0.8164979219436646
			],
			"scale":[
				0.9999998807907104,
				0.9999998807907104,
				0.9999999403953552
			],
			"translation":[
				-1.1694361035097245e-09,
				0.14730575680732727,
				9.618183582915663e-08
			]
		},
		{
			"children":[
				39
			],
			"name":"Hueso.004.L.001",
			"rotation":[
				-0.6007766127586365,
				-0.3729175627231598,
				-0.6007764935493469,
				0.3729175925254822
			],
			"translation":[
				0.02306964434683323,
				0.1076582670211792,
				1.4901161193847656e-08
			]
		},
		{
			"name":"Hueso.008.R.001",
			"rotation":[
				-0.0028627547435462475,
				0.003195886965841055,
				0.3029818534851074,
				0.9529867172241211
			],
			"scale":[
				1.0000001192092896,
				1,
				1
			],
			"translation":[
				-8.381903171539307e-09,
				0.3278370797634125,
				2.0932930056005716e-08
			]
		},
		{
			"children":[
				41
			],
			"name":"Hueso.007.R.001",
			"rotation":[
				-0.056449923664331436,
				-0.024030180647969246,
				0.6823527216911316,
				0.7284440398216248
			],
			"scale":[
				1.0000001192092896,
				0.9999999403953552,
				1
			],
			"translation":[
				-3.166496753692627e-08,
				0.5804406404495239,
				-1.4435499906539917e-08
			]
		},
		{
			"children":[
				42
			],
			"name":"Hueso.006.R.001",
			"rotation":[
				0.033117521554231644,
				0.013117852620780468,
				-0.737734317779541,
				0.6741507649421692
			],
			"scale":[
				1,
				1,
				0.9999998807907104
			],
			"translation":[
				7.206108421087265e-08,
				0.5268582701683044,
				-1.3053067959845066e-08
			]
		},
		{
			"children":[
				43
			],
			"name":"Hueso.005.R.001",
			"rotation":[
				-0.4949989318847656,
				0.15433181822299957,
				0.2539467215538025,
				0.8164979219436646
			],
			"scale":[
				0.9999998807907104,
				0.9999998807907104,
				0.9999999403953552
			],
			"translation":[
				5.581632933626679e-10,
				0.14730574190616608,
				1.1108299702300428e-07
			]
		},
		{
			"children":[
				44
			],
			"name":"Hueso.004.R.001",
			"rotation":[
				-0.6007766127586365,
				0.3729175627231598,
				0.6007764935493469,
				0.3729175925254822
			],
			"translation":[
				-0.02306964434683323,
				0.1076582670211792,
				1.4901161193847656e-08
			]
		},
		{
			"name":"Hueso.018",
			"rotation":[
				-0.015097684226930141,
				-1.7773483626674076e-25,
				3.3523589158612737e-18,
				0.9998860359191895
			],
			"scale":[
				1,
				0.9999999403953552,
				1
			],
			"translation":[
				-2.3283067140944524e-10,
				0.19695132970809937,
				-3.725290298461914e-09
			]
		},
		{
			"children":[
				46
			],
			"name":"Hueso.017",
			"rotation":[
				0.037859462201595306,
				5.044247798919319e-25,
				-8.406490981588611e-18,
				0.9992830753326416
			],
			"translation":[
				-2.3283062977608182e-10,
				0.36683887243270874,
				-7.450580596923828e-09
			]
		},
		{
			"children":[
				47
			],
			"name":"Hueso.016",
			"rotation":[
				0.08336018025875092,
				1.3488633024684797e-24,
				-1.850966505714394e-17,
				0.9965194463729858
			],
			"scale":[
				1,
				1,
				0.9999999403953552
			],
			"translation":[
				-2.3283056038714278e-10,
				0.3873557448387146,
				1.4901161193847656e-08
			]
		},
		{
			"children":[
				48
			],
			"name":"Hueso.015",
			"rotation":[
				0.08052245527505875,
				3.4232358657967084e-24,
				-1.7879581732227598e-17,
				0.9967528581619263
			],
			"translation":[
				1.2533377113932431e-16,
				0.4135075509548187,
				-7.450580596923828e-09
			]
		},
		{
			"children":[
				49
			],
			"name":"Hueso.014",
			"rotation":[
				0.028224827721714973,
				-1.254195260676527e-24,
				-6.267169479774354e-18,
				0.9996016025543213
			],
			"scale":[
				1,
				1,
				0.9999999403953552
			],
			"translation":[
				1.0755285551056204e-16,
				0.4460334777832031,
				-1.4901161193847656e-08
			]
		},
		{
			"children":[
				50
			],
			"name":"Hueso.013",
			"rotation":[
				0.1161368116736412,
				1.8738361340043822e-24,
				-2.578755411968765e-17,
				0.9932332634925842
			],
			"scale":[
				1,
				0.9999999403953552,
				0.9999999403953552
			],
			"translation":[
				9.584347204771859e-17,
				0.38465067744255066,
				-2.9802322387695312e-08
			]
		},
		{
			"children":[
				51
			],
			"name":"Hueso.012",
			"rotation":[
				0.06896193325519562,
				8.291546383607301e-25,
				-1.5312623570155064e-17,
				0.9976192712783813
			],
			"translation":[
				-2.328306020205062e-10,
				0.418141633272171,
				0
			]
		},
		{
			"children":[
				52
			],
			"name":"Hueso.011",
			"rotation":[
				0.05471637845039368,
				-3.3654628485419424e-24,
				-1.2149474981584936e-17,
				0.9985019564628601
			],
			"scale":[
				1,
				0.9999998807907104,
				0.9999998807907104
			],
			"translation":[
				-3.3393426912553537e-17,
				0.3749462366104126,
				2.9802322387695312e-08
			]
		},
		{
			"children":[
				53
			],
			"name":"Hueso.010",
			"rotation":[
				-0.9420605897903442,
				6.734811241433655e-17,
				6.734811241433655e-17,
				0.3354427218437195
			],
			"translation":[
				0,
				0.11693549156188965,
				-0.03189150243997574
			]
		},
		{
			"mesh":0,
			"name":"Object_127.028",
			"skin":0
		},
		{
			"mesh":1,
			"name":"Object_127.663",
			"skin":0
		},
		{
			"name":"rig_800",
			"translation":[
				0.0038269758224487305,
				-1.1241130828857422,
				-0.011199235916137695
			]
		},
		{
			"name":"root",
			"translation":[
				0.0038269758224487305,
				-1.1241130828857422,
				-0.011199235916137695
			]
		},
		{
			"name":"Sketchfab_model",
			"translation":[
				0.0038269758224487305,
				-1.1241130828857422,
				-0.011199235916137695
			]
		},
		{
			"name":"Teethbottom_797",
			"translation":[
				0.0038269758224487305,
				-1.1241130828857422,
				-0.011199235916137695
			]
		},
		{
			"name":"TeethTop_798",
			"translation":[
				0.0038269758224487305,
				-1.1241130828857422,
				-0.011199235916137695
			]
		},
		{
			"name":"Tongue_799",
			"translation":[
				0.0038269758224487305,
				-1.1241130828857422,
				-0.011199235916137695
			]
		},
		{
			"children":[
				0,
				1,
				2,
				3,
				4,
				5,
				6,
				7,
				55,
				56,
				57,
				58,
				59,
				60,
				61,
				62,
				35,
				40,
				45,
				54
			],
			"name":"Esqueleto",
			"translation":[
				-0.0038269758224487305,
				1.1241130828857422,
				0.011199235916137695
			]
		}
	],
	"animations":[
		{
			"channels":[
				{
					"sampler":0,
					"target":{
						"node":35,
						"path":"translation"
					}
				},
				{
					"sampler":1,
					"target":{
						"node":35,
						"path":"rotation"
					}
				},
				{
					"sampler":2,
					"target":{
						"node":35,
						"path":"scale"
					}
				},
				{
					"sampler":3,
					"target":{
						"node":26,
						"path":"translation"
					}
				},
				{
					"sampler":4,
					"target":{
						"node":26,
						"path":"rotation"
					}
				},
				{
					"sampler":5,
					"target":{
						"node":26,
						"path":"scale"
					}
				},
				{
					"sampler":6,
					"target":{
						"node":15,
						"path":"translation"
					}
				},
				{
					"sampler":7,
					"target":{
						"node":15,
						"path":"rotation"
					}
				},
				{
					"sampler":8,
					"target":{
						"node":15,
						"path":"scale"
					}
				},
				{
					"sampler":9,
					"target":{
						"node":11,
						"path":"translation"
					}
				},
				{
					"sampler":10,
					"target":{
						"node":11,
						"path":"rotation"
					}
				},
				{
					"sampler":11,
					"target":{
						"node":11,
						"path":"scale"
					}
				},
				{
					"sampler":12,
					"target":{
						"node":8,
						"path":"translation"
					}
				},
				{
					"sampler":13,
					"target":{
						"node":8,
						"path":"rotation"
					}
				},
				{
					"sampler":14,
					"target":{
						"node":8,
						"path":"scale"
					}
				},
				{
					"sampler":15,
					"target":{
						"node":9,
						"path":"translation"
					}
				},
				{
					"sampler":16,
					"target":{
						"node":9,
						"path":"rotation"
					}
				},
				{
					"sampler":17,
					"target":{
						"node":9,
						"path":"scale"
					}
				},
				{
					"sampler":18,
					"target":{
						"node":10,
						"path":"translation"
					}
				},
				{
					"sampler":19,
					"target":{
						"node":10,
						"path":"rotation"
					}
				},
				{
					"sampler":20,
					"target":{
						"node":10,
						"path":"scale"
					}
				},
				{
					"sampler":21,
					"target":{
						"node":13,
						"path":"translation"
					}
				},
				{
					"sampler":22,
					"target":{
						"node":13,
						"path":"rotation"
					}
				},
				{
					"sampler":23,
					"target":{
						"node":13,
						"path":"scale"
					}
				},
				{
					"sampler":24,
					"target":{
						"node":12,
						"path":"translation"
					}
				},
				{
					"sampler":25,
					"target":{
						"node":12,
						"path":"rotation"
					}
				},
				{
					"sampler":26,
					"target":{
						"node":12,
						"path":"scale"
					}
				},
				{
					"sampler":27,
					"target":{
						"node":14,
						"path":"translation"
					}
				},
				{
					"sampler":28,
					"target":{
						"node":14,
						"path":"rotation"
					}
				},
				{
					"sampler":29,
					"target":{
						"node":14,
						"path":"scale"
					}
				},
				{
					"sampler":30,
					"target":{
						"node":20,
						"path":"translation"
					}
				},
				{
					"sampler":31,
					"target":{
						"node":20,
						"path":"rotation"
					}
				},
				{
					"sampler":32,
					"target":{
						"node":20,
						"path":"scale"
					}
				},
				{
					"sampler":33,
					"target":{
						"node":19,
						"path":"translation"
					}
				},
				{
					"sampler":34,
					"target":{
						"node":19,
						"path":"rotation"
					}
				},
				{
					"sampler":35,
					"target":{
						"node":19,
						"path":"scale"
					}
				},
				{
					"sampler":36,
					"target":{
						"node":18,
						"path":"translation"
					}
				},
				{
					"sampler":37,
					"target":{
						"node":18,
						"path":"rotation"
					}
				},
				{
					"sampler":38,
					"target":{
						"node":18,
						"path":"scale"
					}
				},
				{
					"sampler":39,
					"target":{
						"node":17,
						"path":"translation"
					}
				},
				{
					"sampler":40,
					"target":{
						"node":17,
						"path":"rotation"
					}
				},
				{
					"sampler":41,
					"target":{
						"node":17,
						"path":"scale"
					}
				},
				{
					"sampler":42,
					"target":{
						"node":16,
						"path":"translation"
					}
				},
				{
					"sampler":43,
					"target":{
						"node":16,
						"path":"rotation"
					}
				},
				{
					"sampler":44,
					"target":{
						"node":16,
						"path":"scale"
					}
				},
				{
					"sampler":45,
					"target":{
						"node":25,
						"path":"translation"
					}
				},
				{
					"sampler":46,
					"target":{
						"node":25,
						"path":"rotation"
					}
				},
				{
					"sampler":47,
					"target":{
						"node":25,
						"path":"scale"
					}
				},
				{
					"sampler":48,
					"target":{
						"node":24,
						"path":"translation"
					}
				},
				{
					"sampler":49,
					"target":{
						"node":24,
						"path":"rotation"
					}
				},
				{
					"sampler":50,
					"target":{
						"node":24,
						"path":"scale"
					}
				},
				{
					"sampler":51,
					"target":{
						"node":23,
						"path":"translation"
					}
				},
				{
					"sampler":52,
					"target":{
						"node":23,
						"path":"rotation"
					}
				},
				{
					"sampler":53,
					"target":{
						"node":23,
						"path":"scale"
					}
				},
				{
					"sampler":54,
					"target":{
						"node":22,
						"path":"translation"
					}
				},
				{
					"sampler":55,
					"target":{
						"node":22,
						"path":"rotation"
					}
				},
				{
					"sampler":56,
					"target":{
						"node":22,
						"path":"scale"
					}
				},
				{
					"sampler":57,
					"target":{
						"node":21,
						"path":"translation"
					}
				},
				{
					"sampler":58,
					"target":{
						"node":21,
						"path":"rotation"
					}
				},
				{
					"sampler":59,
					"target":{
						"node":21,
						"path":"scale"
					}
				},
				{
					"sampler":60,
					"target":{
						"node":30,
						"path":"translation"
					}
				},
				{
					"sampler":61,
					"target":{
						"node":30,
						"path":"rotation"
					}
				},
				{
					"sampler":62,
					"target":{
						"node":30,
						"path":"scale"
					}
				},
				{
					"sampler":63,
					"target":{
						"node":29,
						"path":"translation"
					}
				},
				{
					"sampler":64,
					"target":{
						"node":29,
						"path":"rotation"
					}
				},
				{
					"sampler":65,
					"target":{
						"node":29,
						"path":"scale"
					}
				},
				{
					"sampler":66,
					"target":{
						"node":28,
						"path":"translation"
					}
				},
				{
					"sampler":67,
					"target":{
						"node":28,
						"path":"rotation"
					}
				},
				{
					"sampler":68,
					"target":{
						"node":28,
						"path":"scale"
					}
				},
				{
					"sampler":69,
					"target":{
						"node":27,
						"path":"translation"
					}
				},
				{
					"sampler":70,
					"target":{
						"node":27,
						"path":"rotation"
					}
				},
				{
					"sampler":71,
					"target":{
						"node":27,
						"path":"scale"
					}
				},
				{
					"sampler":72,
					"target":{
						"node":34,
						"path":"translation"
					}
				},
				{
					"sampler":73,
					"target":{
						"node":34,
						"path":"rotation"
					}
				},
				{
					"sampler":74,
					"target":{
						"node":34,
						"path":"scale"
					}
				},
				{
					"sampler":75,
					"target":{
						"node":33,
						"path":"translation"
					}
				},
				{
					"sampler":76,
					"target":{
						"node":33,
						"path":"rotation"
					}
				},
				{
					"sampler":77,
					"target":{
						"node":33,
						"path":"scale"
					}
				},
				{
					"sampler":78,
					"target":{
						"node":32,
						"path":"translation"
					}
				},
				{
					"sampler":79,
					"target":{
						"node":32,
						"path":"rotation"
					}
				},
				{
					"sampler":80,
					"target":{
						"node":32,
						"path":"scale"
					}
				},
				{
					"sampler":81,
					"target":{
						"node":31,
						"path":"translation"
					}
				},
				{
					"sampler":82,
					"target":{
						"node":31,
						"path":"rotation"
					}
				},
				{
					"sampler":83,
					"target":{
						"node":31,
						"path":"scale"
					}
				},
				{
					"sampler":84,
					"target":{
						"node":40,
						"path":"translation"
					}
				},
				{
					"sampler":85,
					"target":{
						"node":40,
						"path":"rotation"
					}
				},
				{
					"sampler":86,
					"target":{
						"node":40,
						"path":"scale"
					}
				},
				{
					"sampler":87,
					"target":{
						"node":39,
						"path":"translation"
					}
				},
				{
					"sampler":88,
					"target":{
						"node":39,
						"path":"rotation"
					}
				},
				{
					"sampler":89,
					"target":{
						"node":39,
						"path":"scale"
					}
				},
				{
					"sampler":90,
					"target":{
						"node":38,
						"path":"translation"
					}
				},
				{
					"sampler":91,
					"target":{
						"node":38,
						"path":"rotation"
					}
				},
				{
					"sampler":92,
					"target":{
						"node":38,
						"path":"scale"
					}
				},
				{
					"sampler":93,
					"target":{
						"node":37,
						"path":"translation"
					}
				},
				{
					"sampler":94,
					"target":{
						"node":37,
						"path":"rotation"
					}
				},
				{
					"sampler":95,
					"target":{
						"node":37,
						"path":"scale"
					}
				},
				{
					"sampler":96,
					"target":{
						"node":36,
						"path":"translation"
					}
				},
				{
					"sampler":97,
					"target":{
						"node":36,
						"path":"rotation"
					}
				},
				{
					"sampler":98,
					"target":{
						"node":36,
						"path":"scale"
					}
				},
				{
					"sampler":99,
					"target":{
						"node":45,
						"path":"translation"
					}
				},
				{
					"sampler":100,
					"target":{
						"node":45,
						"path":"rotation"
					}
				},
				{
					"sampler":101,
					"target":{
						"node":45,
						"path":"scale"
					}
				},
				{
					"sampler":102,
					"target":{
						"node":44,
						"path":"translation"
					}
				},
				{
					"sampler":103,
					"target":{
						"node":44,
						"path":"rotation"
					}
				},
				{
					"sampler":104,
					"target":{
						"node":44,
						"path":"scale"
					}
				},
				{
					"sampler":105,
					"target":{
						"node":43,
						"path":"translation"
					}
				},
				{
					"sampler":106,
					"target":{
						"node":43,
						"path":"rotation"
					}
				},
				{
					"sampler":107,
					"target":{
						"node":43,
						"path":"scale"
					}
				},
				{
					"sampler":108,
					"target":{
						"node":42,
						"path":"translation"
					}
				},
				{
					"sampler":109,
					"target":{
						"node":42,
						"path":"rotation"
					}
				},
				{
					"sampler":110,
					"target":{
						"node":42,
						"path":"scale"
					}
				},
				{
					"sampler":111,
					"target":{
						"node":41,
						"path":"translation"
					}
				},
				{
					"sampler":112,
					"target":{
						"node":41,
						"path":"rotation"
					}
				},
				{
					"sampler":113,
					"target":{
						"node":41,
						"path":"scale"
					}
				},
				{
					"sampler":114,
					"target":{
						"node":54,
						"path":"translation"
					}
				},
				{
					"sampler":115,
					"target":{
						"node":54,
						"path":"rotation"
					}
				},
				{
					"sampler":116,
					"target":{
						"node":54,
						"path":"scale"
					}
				},
				{
					"sampler":117,
					"target":{
						"node":53,
						"path":"translation"
					}
				},
				{
					"sampler":118,
					"target":{
						"node":53,
						"path":"rotation"
					}
				},
				{
					"sampler":119,
					"target":{
						"node":53,
						"path":"scale"
					}
				},
				{
					"sampler":120,
					"target":{
						"node":52,
						"path":"translation"
					}
				},
				{
					"sampler":121,
					"target":{
						"node":52,
						"path":"rotation"
					}
				},
				{
					"sampler":122,
					"target":{
						"node":52,
						"path":"scale"
					}
				},
				{
					"sampler":123,
					"target":{
						"node":51,
						"path":"translation"
					}
				},
				{
					"sampler":124,
					"target":{
						"node":51,
						"path":"rotation"
					}
				},
				{
					"sampler":125,
					"target":{
						"node":51,
						"path":"scale"
					}
				},
				{
					"sampler":126,
					"target":{
						"node":50,
						"path":"translation"
					}
				},
				{
					"sampler":127,
					"target":{
						"node":50,
						"path":"rotation"
					}
				},
				{
					"sampler":128,
					"target":{
						"node":50,
						"path":"scale"
					}
				},
				{
					"sampler":129,
					"target":{
						"node":49,
						"path":"translation"
					}
				},
				{
					"sampler":130,
					"target":{
						"node":49,
						"path":"rotation"
					}
				},
				{
					"sampler":131,
					"target":{
						"node":49,
						"path":"scale"
					}
				},
				{
					"sampler":132,
					"target":{
						"node":48,
						"path":"translation"
					}
				},
				{
					"sampler":133,
					"target":{
						"node":48,
						"path":"rotation"
					}
				},
				{
					"sampler":134,
					"target":{
						"node":48,
						"path":"scale"
					}
				},
				{
					"sampler":135,
					"target":{
						"node":47,
						"path":"translation"
					}
				},
				{
					"sampler":136,
					"target":{
						"node":47,
						"path":"rotation"
					}
				},
				{
					"sampler":137,
					"target":{
						"node":47,
						"path":"scale"
					}
				},
				{
					"sampler":138,
					"target":{
						"node":46,
						"path":"translation"
					}
				},
				{
					"sampler":139,
					"target":{
						"node":46,
						"path":"rotation"
					}
				},
				{
					"sampler":140,
					"target":{
						"node":46,
						"path":"scale"
					}
				}
			],
			"name":"Alien_Caminar",
			"samplers":[
				{
					"input":50,
					"interpolation":"LINEAR",
					"output":51
				},
				{
					"input":50,
					"interpolation":"LINEAR",
					"output":52
				},
				{
					"input":53,
					"interpolation":"STEP",
					"output":54
				},
				{
					"input":53,
					"interpolation":"STEP",
					"output":55
				},
				{
					"input":50,
					"interpolation":"LINEAR",
					"output":56
				},
				{
					"input":53,
					"interpolation":"STEP",
					"output":57
				},
				{
					"input":53,
					"interpolation":"STEP",
					"output":58
				},
				{
					"input":50,
					"interpolation":"LINEAR",
					"output":59
				},
				{
					"input":53,
					"interpolation":"STEP",
					"output":60
				},
				{
					"input":53,
					"interpolation":"STEP",
					"output":61
				},
				{
					"input":50,
					"interpolation":"LINEAR",
					"output":62
				},
				{
					"input":53,
					"interpolation":"STEP",
					"output":63
				},
				{
					"input":53,
					"interpolation":"STEP",
					"output":64
				},
				{
					"input":53,
					"interpolation":"STEP",
					"output":65
				},
				{
					"input":53,
					"interpolation":"STEP",
					"output":66
				},
				{
					"input":53,
					"interpolation":"STEP",
					"output":67
				},
				{
					"input":53,
					"interpolation":"STEP",
					"output":68
				},
				{
					"input":53,
					"interpolation":"STEP",
					"output":69
				},
				{
					"input":53,
					"interpolation":"STEP",
					"output":70
				},
				{
					"input":53,
					"interpolation":"STEP",
					"output":71
				},
				{
					"input":53,
					"interpolation":"STEP",
					"output":72
				},
				{
					"input":53,
					"interpolation":"STEP",
					"output":73
				},
				{
					"input":50,
					"interpolation":"LINEAR",
					"output":74
				},
				{
					"input":53,
					"interpolation":"STEP",
					"output":75
				},
				{
					"input":53,
					"interpolation":"STEP",
					"output":76
				},
				{
					"input":53,
					"interpolation":"STEP",
					"output":77
				},
				{
					"input":53,
					"interpolation":"STEP",
					"output":78
				},
				{
					"input":53,
					"interpolation":"STEP",
					"output":79
				},
				{
					"input":53,
					"interpolation":"STEP",
					"output":80
				},
				{
					"input":53,
					"interpolation":"STEP",
					"output":81
				},
				{
					"input":53,
					"interpolation":"STEP",
					"output":82
				},
				{
					"input":53,
					"interpolation":"STEP",
					"output":83
				},
				{
					"input":53,
					"interpolation":"STEP",
					"output":84
				},
				{
					"input":53,
					"interpolation":"STEP",
					"output":85
				},
				{
					"input":50,
					"interpolation":"LINEAR",
					"output":86
				},
				{
					"input":53,
					"interpolation":"STEP",
					"output":87
				},
				{
					"input":53,
					"interpolation":"STEP",
					"output":88
				},
				{
					"input":53,
					"interpolation":"STEP",
					"output":89
				},
				{
					"input":53,
					"interpolation":"STEP",
					"output":90
				},
				{
					"input":53,
					"interpolation":"STEP",
					"output":91
				},
				{
					"input":53,
					"interpolation":"STEP",
					"output":92
				},
				{
					"input":53,
					"interpolation":"STEP",
					"output":93
				},
				{
					"input":53,
					"interpolation":"STEP",
					"output":94
				},
				{
					"input":53,
					"interpolation":"STEP",
					"output":95
				},
				{
					"input":53,
					"interpolation":"STEP",
					"output":96
				},
				{
					"input":53,
					"interpolation":"STEP",
					"output":97
				},
				{
					"input":53,
					"interpolation":"STEP",
					"output":98
				},
				{
					"input":53,
					"interpolation":"STEP",
					"output":99
				},
				{
					"input":53,
					"interpolation":"STEP",
					"output":100
				},
				{
					"input":50,
					"interpolation":"LINEAR",
					"output":101
				},
				{
					"input":53,
					"interpolation":"STEP",
					"output":102
				},
				{
					"input":53,
					"interpolation":"STEP",
					"output":103
				},
				{
					"input":50,
					"interpolation":"LINEAR",
					"output":104
				},
				{
					"input":53,
					"interpolation":"STEP",
					"output":105
				},
				{
					"input":53,
					"interpolation":"STEP",
					"output":106
				},
				{
					"input":53,
					"interpolation":"STEP",
					"output":107
				},
				{
					"input":53,
					"interpolation":"STEP",
					"output":54
				},
				{
					"input":53,
					"interpolation":"STEP",
					"output":108
				},
				{
					"input":53,
					"interpolation":"STEP",
					"output":109
				},
				{
					"input":53,
					"interpolation":"STEP",
					"output":110
				},
				{
					"input":53,
					"interpolation":"STEP",
					"output":111
				},
				{
					"input":53,
					"interpolation":"STEP",
					"output":112
				},
				{
					"input":53,
					"interpolation":"STEP",
					"output":113
				},
				{
					"input":53,
					"interpolation":"STEP",
					"output":114
				},
				{
					"input":50,
					"interpolation":"LINEAR",
					"output":115
				},
				{
					"input":53,
					"interpolation":"STEP",
					"output":116
				},
				{
					"input":53,
					"interpolation":"STEP",
					"output":117
				},
				{
					"input":50,
					"interpolation":"LINEAR",
					"output":118
				},
				{
					"input":53,
					"interpolation":"STEP",
					"output":119
				},
				{
					"input":53,
					"interpolation":"STEP",
					"output":120
				},
				{
					"input":53,
					"interpolation":"STEP",
					"output":121
				},
				{
					"input":53,
					"interpolation":"STEP",
					"output":122
				},
				{
					"input":53,
					"interpolation":"STEP",
					"output":123
				},
				{
					"input":53,
					"interpolation":"STEP",
					"output":124
				},
				{
					"input":53,
					"interpolation":"STEP",
					"output":125
				},
				{
					"input":53,
					"interpolation":"STEP",
					"output":126
				},
				{
					"input":50,
					"interpolation":"LINEAR",
					"output":127
				},
				{
					"input":53,
					"interpolation":"STEP",
					"output":128
				},
				{
					"input":53,
					"interpolation":"STEP",
					"output":129
				},
				{
					"input":50,
					"interpolation":"LINEAR",
					"output":130
				},
				{
					"input":53,
					"interpolation":"STEP",
					"output":110
				},
				{
					"input":53,
					"interpolation":"STEP",
					"output":131
				},
				{
					"input":53,
					"interpolation":"STEP",
					"output":132
				},
				{
					"input":53,
					"interpolation":"STEP",
					"output":133
				},
				{
					"input":50,
					"interpolation":"LINEAR",
					"output":134
				},
				{
					"input":53,
					"interpolation":"STEP",
					"output":135
				},
				{
					"input":53,
					"interpolation":"STEP",
					"output":54
				},
				{
					"input":53,
					"interpolation":"STEP",
					"output":136
				},
				{
					"input":50,
					"interpolation":"LINEAR",
					"output":137
				},
				{
					"input":53,
					"interpolation":"STEP",
					"output":138
				},
				{
					"input":53,
					"interpolation":"STEP",
					"output":139
				},
				{
					"input":50,
					"interpolation":"LINEAR",
					"output":140
				},
				{
					"input":53,
					"interpolation":"STEP",
					"output":141
				},
				{
					"input":53,
					"interpolation":"STEP",
					"output":142
				},
				{
					"input":50,
					"interpolation":"LINEAR",
					"output":143
				},
				{
					"input":53,
					"interpolation":"STEP",
					"output":144
				},
				{
					"input":53,
					"interpolation":"STEP",
					"output":145
				},
				{
					"input":53,
					"interpolation":"STEP",
					"output":146
				},
				{
					"input":53,
					"interpolation":"STEP",
					"output":147
				},
				{
					"input":50,
					"interpolation":"LINEAR",
					"output":148
				},
				{
					"input":53,
					"interpolation":"STEP",
					"output":149
				},
				{
					"input":53,
					"interpolation":"STEP",
					"output":54
				},
				{
					"input":53,
					"interpolation":"STEP",
					"output":150
				},
				{
					"input":50,
					"interpolation":"LINEAR",
					"output":151
				},
				{
					"input":53,
					"interpolation":"STEP",
					"output":152
				},
				{
					"input":53,
					"interpolation":"STEP",
					"output":153
				},
				{
					"input":50,
					"interpolation":"LINEAR",
					"output":154
				},
				{
					"input":53,
					"interpolation":"STEP",
					"output":54
				},
				{
					"input":53,
					"interpolation":"STEP",
					"output":155
				},
				{
					"input":50,
					"interpolation":"LINEAR",
					"output":156
				},
				{
					"input":53,
					"interpolation":"STEP",
					"output":157
				},
				{
					"input":53,
					"interpolation":"STEP",
					"output":158
				},
				{
					"input":53,
					"interpolation":"STEP",
					"output":159
				},
				{
					"input":53,
					"interpolation":"STEP",
					"output":160
				},
				{
					"input":50,
					"interpolation":"LINEAR",
					"output":161
				},
				{
					"input":50,
					"interpolation":"LINEAR",
					"output":162
				},
				{
					"input":53,
					"interpolation":"STEP",
					"output":110
				},
				{
					"input":53,
					"interpolation":"STEP",
					"output":163
				},
				{
					"input":50,
					"interpolation":"LINEAR",
					"output":164
				},
				{
					"input":53,
					"interpolation":"STEP",
					"output":54
				},
				{
					"input":53,
					"interpolation":"STEP",
					"output":165
				},
				{
					"input":50,
					"interpolation":"LINEAR",
					"output":166
				},
				{
					"input":53,
					"interpolation":"STEP",
					"output":167
				},
				{
					"input":53,
					"interpolation":"STEP",
					"output":168
				},
				{
					"input":50,
					"interpolation":"LINEAR",
					"output":169
				},
				{
					"input":53,
					"interpolation":"STEP",
					"output":167
				},
				{
					"input":53,
					"interpolation":"STEP",
					"output":170
				},
				{
					"input":50,
					"interpolation":"LINEAR",
					"output":171
				},
				{
					"input":53,
					"interpolation":"STEP",
					"output":141
				},
				{
					"input":53,
					"interpolation":"STEP",
					"output":172
				},
				{
					"input":50,
					"interpolation":"LINEAR",
					"output":173
				},
				{
					"input":53,
					"interpolation":"STEP",
					"output":81
				},
				{
					"input":53,
					"interpolation":"STEP",
					"output":174
				},
				{
					"input":53,
					"interpolation":"STEP",
					"output":175
				},
				{
					"input":53,
					"interpolation":"STEP",
					"output":66
				},
				{
					"input":53,
					"interpolation":"STEP",
					"output":176
				},
				{
					"input":50,
					"interpolation":"LINEAR",
					"output":177
				},
				{
					"input":53,
					"interpolation":"STEP",
					"output":54
				},
				{
					"input":53,
					"interpolation":"STEP",
					"output":178
				},
				{
					"input":50,
					"interpolation":"LINEAR",
					"output":179
				},
				{
					"input":53,
					"interpolation":"STEP",
					"output":93
				}
			]
		}
	],
	"materials":[
		{
			"doubleSided":true,
			"name":"MI_K33Head007",
			"normalTexture":{
				"index":0,
				"texCoord":1
			},
			"pbrMetallicRoughness":{
				"baseColorTexture":{
					"index":1
				},
				"metallicFactor":0.10000000149011612,
				"roughnessFactor":0.23636400699615479
			}
		},
		{
			"doubleSided":true,
			"name":"MI_K33Head01",
			"normalTexture":{
				"index":2
			},
			"pbrMetallicRoughness":{
				"baseColorTexture":{
					"index":3
				},
				"metallicFactor":0.10000000149011612,
				"roughnessFactor":0.19545499980449677
			}
		},
		{
			"doubleSided":true,
			"name":"MI_K33Arms007",
			"normalTexture":{
				"index":4,
				"texCoord":1
			},
			"pbrMetallicRoughness":{
				"baseColorTexture":{
					"index":5
				},
				"metallicFactor":0.10000000149011612,
				"roughnessFactor":0.2818180024623871
			}
		},
		{
			"doubleSided":true,
			"name":"MI_K33Body007",
			"normalTexture":{
				"index":6,
				"texCoord":1
			},
			"pbrMetallicRoughness":{
				"baseColorTexture":{
					"index":7
				},
				"metallicFactor":0.10000000149011612,
				"roughnessFactor":0.05000000074505806
			}
		},
		{
			"doubleSided":true,
			"name":"MI_K33Legs007",
			"normalTexture":{
				"index":8,
				"texCoord":1
			},
			"pbrMetallicRoughness":{
				"baseColorTexture":{
					"index":9
				},
				"metallicFactor":0.10000000149011612,
				"roughnessFactor":0.2227270007133484
			}
		},
		{
			"doubleSided":true,
			"name":"MI_K33Tail007",
			"normalTexture":{
				"index":10,
				"texCoord":1
			},
			"pbrMetallicRoughness":{
				"baseColorTexture":{
					"index":11
				},
				"metallicFactor":0.10000000149011612,
				"roughnessFactor":0.19545499980449677
			}
		}
	],
	"meshes":[
		{
			"name":"mesh_55.032",
			"primitives":[
				{
					"attributes":{
						"POSITION":0,
						"NORMAL":1,
						"TEXCOORD_0":2,
						"TEXCOORD_1":3,
						"JOINTS_0":4,
						"WEIGHTS_0":5
					},
					"indices":6,
					"material":0
				},
				{
					"attributes":{
						"POSITION":7,
						"NORMAL":8,
						"TEXCOORD_0":9,
						"TEXCOORD_1":10,
						"JOINTS_0":11,
						"WEIGHTS_0":12
					},
					"indices":13,
					"material":1
				},
				{
					"attributes":{
						"POSITION":14,
						"NORMAL":15,
						"TEXCOORD_0":16,
						"TEXCOORD_1":17,
						"JOINTS_0":18,
						"WEIGHTS_0":19
					},
					"indices":20,
					"material":2
				},
				{
					"attributes":{
						"POSITION":21,
						"NORMAL":22,
						"TEXCOORD_0":23,
						"TEXCOORD_1":24,
						"JOINTS_0":25,
						"WEIGHTS_0":26
					},
					"indices":27,
					"material":3
				},
				{
					"attributes":{
						"POSITION":28,
						"NORMAL":29,
						"TEXCOORD_0":30,
						"TEXCOORD_1":31,
						"JOINTS_0":32,
						"WEIGHTS_0":33
					},
					"indices":34,
					"material":4
				},
				{
					"attributes":{
						"POSITION":35,
						"NORMAL":36,
						"TEXCOORD_0":37,
						"TEXCOORD_1":38,
						"JOINTS_0":39,
						"WEIGHTS_0":40
					},
					"indices":41,
					"material":5
				}
			]
		},
		{
			"name":"mesh_55.667",
			"primitives":[
				{
					"attributes":{
						"POSITION":43,
						"NORMAL":44,
						"TEXCOORD_0":45,
						"TEXCOORD_1":46,
						"JOINTS_0":47,
						"WEIGHTS_0":48
					},
					"indices":49,
					"material":0
				}
			]
		}
	],
	"textures":[
		{
			"sampler":0,
			"source":0
		},
		{
			"sampler":0,
			"source":1
		},
		{
			"sampler":0,
			"source":2
		},
		{
			"sampler":0,
			"source":3
		},
		{
			"sampler":0,
			"source":4
		},
		{
			"sampler":0,
			"source":5
		},
		{
			"sampler":0,
			"source":6
		},
		{
			"sampler":0,
			"source":7
		},
		{
			"sampler":0,
			"source":8
		},
		{
			"sampler":0,
			"source":9
		},
		{
			"sampler":0,
			"source":10
		},
		{
			"sampler":0,
			"source":11
		}
	],
	"images":[
		{
			"mimeType":"image/jpeg",
			"name":"MI_K33Head007_normal",
			"uri":"MI_K33Head007_normal.jpg"
		},
		{
			"mimeType":"image/png",
			"name":"MI_K33Head007_baseColor",
			"uri":"MI_K33Head007_baseColor.png"
		},
		{
			"mimeType":"image/jpeg",
			"name":"MI_K33Head01_normal",
			"uri":"MI_K33Head01_normal.jpg"
		},
		{
			"mimeType":"image/png",
			"name":"MI_K33Head01_baseColor",
			"uri":"MI_K33Head01_baseColor.png"
		},
		{
			"mimeType":"image/jpeg",
			"name":"MI_K33Arms007_normal",
			"uri":"MI_K33Arms007_normal.jpg"
		},
		{
			"mimeType":"image/png",
			"name":"MI_K33Arms007_baseColor",
			"uri":"MI_K33Arms007_baseColor.png"
		},
		{
			"mimeType":"image/jpeg",
			"name":"MI_K33Body007_normal",
			"uri":"MI_K33Body007_normal.jpg"
		},
		{
			"mimeType":"image/png",
			"name":"MI_K33Body007_baseColor",
			"uri":"MI_K33Body007_baseColor.png"
		},
		{
			"mimeType":"image/jpeg",
			"name":"MI_K33Legs007_normal",
			"uri":"MI_K33Legs007_normal.jpg"
		},
		{
			"mimeType":"image/png",
			"name":"MI_K33Legs007_baseColor",
			"uri":"MI_K33Legs007_baseColor.png"
		},
		{
			"mimeType":"image/jpeg",
			"name":"MI_K33Tail007_normal",
			"uri":"MI_K33Tail007_normal.jpg"
		},
		{
			"mimeType":"image/png",
			"name":"MI_K33Tail007_baseColor",
			"uri":"MI_K33Tail007_baseColor.png"
		}
	],
	"skins":[
		{
			"inverseBindMatrices":42,
			"joints":[
				35,
				26,
				15,
				11,
				8,
				9,
				10,
				13,
				12,
				14,
				20,
				19,
				18,
				17,
				16,
				25,
				24,
				23,
				22,
				21,
				30,
				29,
				28,
				27,
				34,
				33,
				32,
				31,
				40,
				39,
				38,
				37,
				36,
				45,
				44,
				43,
				42,
				41,
				54,
				53,
				52,
				51,
				50,
				49,
				48,
				47,
				46
			],
			"name":"Esqueleto"
		}
	],
	"accessors":[
		{
			"bufferView":0,
			"componentType":5126,
			"count":9944,
			"max":[
				0.37775886058807373,
				2.8007938861846924,
				0.4642232358455658
			],
			"min":[
				-0.37775886058807373,
				1.8566062450408936,
				-0.8386526107788086
			],
			"type":"VEC3"
		},
		{
			"bufferView":1,
			"componentType":5126,
			"count":9944,
			"type":"VEC3"
		},
		{
			"bufferView":2,
			"componentType":5126,
			"count":9944,
			"type":"VEC2"
		},
		{
			"bufferView":3,
			"componentType":5126,
			"count":9944,
			"type":"VEC2"
		},
		{
			"bufferView":4,
			"componentType":5121,
			"count":9944,
			"type":"VEC4"
		},
		{
			"bufferView":5,
			"componentType":5126,
			"count":9944,
			"type":"VEC4"
		},
		{
			"bufferView":6,
			"componentType":5123,
			"count":34383,
			"type":"SCALAR"
		},
		{
			"bufferView":7,
			"componentType":5126,
			"count":466,
			"max":[
				0.040406838059425354,
				2.0580453872680664,
				0.490352064371109
			],
			"min":[
				-0.0372912771999836,
				1.888690710067749,
				0.25656893849372864
			],
			"type":"VEC3"
		},
		{
			"bufferView":8,
			"componentType":5126,
			"count":466,
			"type":"VEC3"
		},
		{
			"bufferView":9,
			"componentType":5126,
			"count":466,
			"type":"VEC2"
		},
		{
			"bufferView":10,
			"componentType":5126,
			"count":466,
			"type":"VEC2"
		},
		{
			"bufferView":11,
			"componentType":5121,
			"count":466,
			"type":"VEC4"
		},
		{
			"bufferView":12,
			"componentType":5126,
			"count":466,
			"type":"VEC4"
		},
		{
			"bufferView":13,
			"componentType":5123,
			"count":2298,
			"type":"SCALAR"
		},
		{
			"bufferView":14,
			"componentType":5126,
			"count":7922,
			"max":[
				0.6567047834396362,
				2.0194509029388428,
				0.6260486841201782
			],
			"min":[
				-0.6567047834396362,
				0.9228309392929077,
				-0.10274788737297058
			],
			"type":"VEC3"
		},
		{
			"bufferView":15,
			"componentType":5126,
			"count":7922,
			"type":"VEC3"
		},
		{
			"bufferView":16,
			"componentType":5126,
			"count":7922,
			"type":"VEC2"
		},
		{
			"bufferView":17,
			"componentType":5126,
			"count":7922,
			"type":"VEC2"
		},
		{
			"bufferView":18,
			"componentType":5121,
			"count":7922,
			"type":"VEC4"
		},
		{
			"bufferView":19,
			"componentType":5126,
			"count":7922,
			"type":"VEC4"
		},
		{
			"bufferView":20,
			"componentType":5123,
			"count":39444,
			"type":"SCALAR"
		},
		{
			"bufferView":21,
			"componentType":5126,
			"count":5539,
			"max":[
				0.8478914499282837,
				2.1788225173950195,
				0.45068666338920593
			],
			"min":[
				-0.8478915095329285,
				1.0273693799972534,
				-0.48952463269233704
			],
			"type":"VEC3"
		},
		{
			"bufferView":22,
			"componentType":5126,
			"count":5539,
			"type":"VEC3"
		},
		{
			"bufferView":23,
			"componentType":5126,
			"count":5539,
			"type":"VEC2"
		},
		{
			"bufferView":24,
			"componentType":5126,
			"count":5539,
			"type":"VEC2"
		},
		{
			"bufferView":25,
			"componentType":5121,
			"count":5539,
			"type":"VEC4"
		},
		{
			"bufferView":26,
			"componentType":5126,
			"count":5539,
			"type":"VEC4"
		},
		{
			"bufferView":27,
			"componentType":5123,
			"count":28062,
			"type":"SCALAR"
		},
		{
			"bufferView":28,
			"componentType":5126,
			"count":3208,
			"max":[
				0.2921820282936096,
				1.3456401824951172,
				0.3661944568157196
			],
			"min":[
				-0.2921820282936096,
				-0.004984617233276367,
				-0.32767534255981445
			],
			"type":"VEC3"
		},
		{
			"bufferView":29,
			"componentType":5126,
			"count":3208,
			"type":"VEC3"
		},
		{
			"bufferView":30,
			"componentType":5126,
			"count":3208,
			"type":"VEC2"
		},
		{
			"bufferView":31,
			"componentType":5126,
			"count":3208,
			"type":"VEC2"
		},
		{
			"bufferView":32,
			"componentType":5121,
			"count":3208,
			"type":"VEC4"
		},
		{
			"bufferView":33,
			"componentType":5126,
			"count":3208,
			"type":"VEC4"
		},
		{
			"bufferView":34,
			"componentType":5123,
			"count":16314,
			"type":"SCALAR"
		},
		{
			"bufferView":35,
			"componentType":5126,
			"count":10814,
			"max":[
				0.13996466994285583,
				1.183570384979248,
				-0.09586859494447708
			],
			"min":[
				-0.15961997210979462,
				-0.025526046752929688,
				-3.0168867111206055
			],
			"type":"VEC3"
		},
		{
			"bufferView":36,
			"componentType":5126,
			"count":10814,
			"type":"VEC3"
		},
		{
			"bufferView":37,
			"componentType":5126,
			"count":10814,
			"type":"VEC2"
		},
		{
			"bufferView":38,
			"componentType":5126,
			"count":10814,
			"type":"VEC2"
		},
		{
			"bufferView":39,
			"componentType":5121,
			"count":10814,
			"type":"VEC4"
		},
		{
			"bufferView":40,
			"componentType":5126,
			"count":10814,
			"type":"VEC4"
		},
		{
			"bufferView":41,
			"componentType":5123,
			"count":48066,
			"type":"SCALAR"
		},
		{
			"bufferView":42,
			"componentType":5126,
			"count":47,
			"type":"MAT4"
		},
		{
			"bufferView":43,
			"componentType":5126,
			"count":3,
			"max":[
				0.022310838103294373,
				1.898550271987915,
				0.40543970465660095
			],
			"min":[
				0.0193925928324461,
				1.895126461982727,
				0.3991249203681946
			],
			"type":"VEC3"
		},
		{
			"bufferView":44,
			"componentType":5126,
			"count":3,
			"type":"VEC3"
		},
		{
			"bufferView":45,
			"componentType":5126,
			"count":3,
			"type":"VEC2"
		},
		{
			"bufferView":46,
			"componentType":5126,
			"count":3,
			"type":"VEC2"
		},
		{
			"bufferView":47,
			"componentType":5121,
			"count":3,
			"type":"VEC4"
		},
		{
			"bufferView":48,
			"componentType":5126,
			"count":3,
			"type":"VEC4"
		},
		{
			"bufferView":49,
			"componentType":5123,
			"count":3,
			"type":"SCALAR"
		},
		{
			"bufferView":50,
			"componentType":5126,
			"count":18,
			"max":[
				0.75
			],
			"min":[
				0.041666666666666664
			],
			"type":"SCALAR"
		},
		{
			"bufferView":51,
			"componentType":5126,
			"count":18,
			"type":"VEC3"
		},
		{
			"bufferView":52,
			"componentType":5126,
			"count":18,
			"type":"VEC4"
		},
		{
			"bufferView":53,
			"componentType":5126,
			"count":2,
			"max":[
				0.75
			],
			"min":[
				0.041666666666666664
			],
			"type":"SCALAR"
		},
		{
			"bufferView":54,
			"componentType":5126,
			"count":2,
			"type":"VEC3"
		},
		{
			"bufferView":55,
			"componentType":5126,
			"count":2,
			"type":"VEC3"
		},
		{
			"bufferView":56,
			"componentType":5126,
			"count":18,
			"type":"VEC4"
		},
		{
			"bufferView":57,
			"componentType":5126,
			"count":2,
			"type":"VEC3"
		},
		{
			"bufferView":58,
			"componentType":5126,
			"count":2,
			"type":"VEC3"
		},
		{
			"bufferView":59,
			"componentType":5126,
			"count":18,
			"type":"VEC4"
		},
		{
			"bufferView":60,
			"componentType":5126,
			"count":2,
			"type":"VEC3"
		},
		{
			"bufferView":61,
			"componentType":5126,
			"count":2,
			"type":"VEC3"
		},
		{
			"bufferView":62,
			"componentType":5126,
			"count":18,
			"type":"VEC4"
		},
		{
			"bufferView":63,
			"componentType":5126,
			"count":2,
			"type":"VEC3"
		},
		{
			"bufferView":64,
			"componentType":5126,
			"count":2,
			"type":"VEC3"
		},
		{
			"bufferView":65,
			"componentType":5126,
			"count":2,
			"type":"VEC4"
		},
		{
			"bufferView":66,
			"componentType":5126,
			"count":2,
			"type":"VEC3"
		},
		{
			"bufferView":67,
			"componentType":5126,
			"count":2,
			"type":"VEC3"
		},
		{
			"bufferView":68,
			"componentType":5126,
			"count":2,
			"type":"VEC4"
		},
		{
			"bufferView":69,
			"componentType":5126,
			"count":2,
			"type":"VEC3"
		},
		{
			"bufferView":70,
			"componentType":5126,
			"count":2,
			"type":"VEC3"
		},
		{
			"bufferView":71,
			"componentType":5126,
			"count":2,
			"type":"VEC4"
		},
		{
			"bufferView":72,
			"componentType":5126,
			"count":2,
			"type":"VEC3"
		},
		{
			"bufferView":73,
			"componentType":5126,
			"count":2,
			"type":"VEC3"
		},
		{
			"bufferView":74,
			"componentType":5126,
			"count":18,
			"type":"VEC4"
		},
		{
			"bufferView":75,
			"componentType":5126,
			"count":2,
			"type":"VEC3"
		},
		{
			"bufferView":76,
			"componentType":5126,
			"count":2,
			"type":"VEC3"
		},
		{
			"bufferView":77,
			"componentType":5126,
			"count":2,
			"type":"VEC4"
		},
		{
			"bufferView":78,
			"componentType":5126,
			"count":2,
			"type":"VEC3"
		},
		{
			"bufferView":79,
			"componentType":5126,
			"count":2,
			"type":"VEC3"
		},
		{
			"bufferView":80,
			"componentType":5126,
			"count":2,
			"type":"VEC4"
		},
		{
			"bufferView":81,
			"componentType":5126,
			"count":2,
			"type":"VEC3"
		},
		{
			"bufferView":82,
			"componentType":5126,
			"count":2,
			"type":"VEC3"
		},
		{
			"bufferView":83,
			"componentType":5126,
			"count":2,
			"type":"VEC4"
		},
		{
			"bufferView":84,
			"componentType":5126,
			"count":2,
			"type":"VEC3"
		},
		{
			"bufferView":85,
			"componentType":5126,
			"count":2,
			"type":"VEC3"
		},
		{
			"bufferView":86,
			"componentType":5126,
			"count":18,
			"type":"VEC4"
		},
		{
			"bufferView":87,
			"componentType":5126,
			"count":2,
			"type":"VEC3"
		},
		{
			"bufferView":88,
			"componentType":5126,
			"count":2,
			"type":"VEC3"
		},
		{
			"bufferView":89,
			"componentType":5126,
			"count":2,
			"type":"VEC4"
		},
		{
			"bufferView":90,
			"componentType":5126,
			"count":2,
			"type":"VEC3"
		},
		{
			"bufferView":91,
			"componentType":5126,
			"count":2,
			"type":"VEC3"
		},
		{
			"bufferView":92,
			"componentType":5126,
			"count":2,
			"type":"VEC4"
		},
		{
			"bufferView":93,
			"componentType":5126,
			"count":2,
			"type":"VEC3"
		},
		{
			"bufferView":94,
			"componentType":5126,
			"count":2,
			"type":"VEC3"
		},
		{
			"bufferView":95,
			"componentType":5126,
			"count":2,
			"type":"VEC4"
		},
		{
			"bufferView":96,
			"componentType":5126,
			"count":2,
			"type":"VEC3"
		},
		{
			"bufferView":97,
			"componentType":5126,
			"count":2,
			"type":"VEC3"
		},
		{
			"bufferView":98,
			"componentType":5126,
			"count":2,
			"type":"VEC4"
		},
		{
			"bufferView":99,
			"componentType":5126,
			"count":2,
			"type":"VEC3"
		},
		{
			"bufferView":100,
			"componentType":5126,
			"count":2,
			"type":"VEC3"
		},
		{
			"bufferView":101,
			"componentType":5126,
			"count":18,
			"type":"VEC4"
		},
		{
			"bufferView":102,
			"componentType":5126,
			"count":2,
			"type":"VEC3"
		},
		{
			"bufferView":103,
			"componentType":5126,
			"count":2,
			"type":"VEC3"
		},
		{
			"bufferView":104,
			"componentType":5126,
			"count":18,
			"type":"VEC4"
		},
		{
			"bufferView":105,
			"componentType":5126,
			"count":2,
			"type":"VEC3"
		},
		{
			"bufferView":106,
			"componentType":5126,
			"count":2,
			"type":"VEC3"
		},
		{
			"bufferView":107,
			"componentType":5126,
			"count":2,
			"type":"VEC4"
		},
		{
			"bufferView":108,
			"componentType":5126,
			"count":2,
			"type":"VEC3"
		},
		{
			"bufferView":109,
			"componentType":5126,
			"count":2,
			"type":"VEC4"
		},
		{
			"bufferView":110,
			"componentType":5126,
			"count":2,
			"type":"VEC3"
		},
		{
			"bufferView":111,
			"componentType":5126,
			"count":2,
			"type":"VEC3"
		},
		{
			"bufferView":112,
			"componentType":5126,
			"count":2,
			"type":"VEC4"
		},
		{
			"bufferView":113,
			"componentType":5126,
			"count":2,
			"type":"VEC3"
		},
		{
			"bufferView":114,
			"componentType":5126,
			"count":2,
			"type":"VEC3"
		},
		{
			"bufferView":115,
			"componentType":5126,
			"count":18,
			"type":"VEC4"
		},
		{
			"bufferView":116,
			"componentType":5126,
			"count":2,
			"type":"VEC3"
		},
		{
			"bufferView":117,
			"componentType":5126,
			"count":2,
			"type":"VEC3"
		},
		{
			"bufferView":118,
			"componentType":5126,
			"count":18,
			"type":"VEC4"
		},
		{
			"bufferView":119,
			"componentType":5126,
			"count":2,
			"type":"VEC3"
		},
		{
			"bufferView":120,
			"componentType":5126,
			"count":2,
			"type":"VEC3"
		},
		{
			"bufferView":121,
			"componentType":5126,
			"count":2,
			"type":"VEC4"
		},
		{
			"bufferView":122,
			"componentType":5126,
			"count":2,
			"type":"VEC3"
		},
		{
			"bufferView":123,
			"componentType":5126,
			"count":2,
			"type":"VEC3"
		},
		{
			"bufferView":124,
			"componentType":5126,
			"count":2,
			"type":"VEC4"
		},
		{
			"bufferView":125,
			"componentType":5126,
			"count":2,
			"type":"VEC3"
		},
		{
			"bufferView":126,
			"componentType":5126,
			"count":2,
			"type":"VEC3"
		},
		{
			"bufferView":127,
			"componentType":5126,
			"count":18,
			"type":"VEC4"
		},
		{
			"bufferView":128,
			"componentType":5126,
			"count":2,
			"type":"VEC3"
		},
		{
			"bufferView":129,
			"componentType":5126,
			"count":2,
			"type":"VEC3"
		},
		{
			"bufferView":130,
			"componentType":5126,
			"count":18,
			"type":"VEC4"
		},
		{
			"bufferView":131,
			"componentType":5126,
			"count":2,
			"type":"VEC3"
		},
		{
			"bufferView":132,
			"componentType":5126,
			"count":2,
			"type":"VEC4"
		},
		{
			"bufferView":133,
			"componentType":5126,
			"count":2,
			"type":"VEC3"
		},
		{
			"bufferView":134,
			"componentType":5126,
			"count":18,
			"type":"VEC3"
		},
		{
			"bufferView":135,
			"componentType":5126,
			"count":2,
			"type":"VEC4"
		},
		{
			"bufferView":136,
			"componentType":5126,
			"count":2,
			"type":"VEC3"
		},
		{
			"bufferView":137,
			"componentType":5126,
			"count":18,
			"type":"VEC4"
		},
		{
			"bufferView":138,
			"componentType":5126,
			"count":2,
			"type":"VEC3"
		},
		{
			"bufferView":139,
			"componentType":5126,
			"count":2,
			"type":"VEC3"
		},
		{
			"bufferView":140,
			"componentType":5126,
			"count":18,
			"type":"VEC4"
		},
		{
			"bufferView":141,
			"componentType":5126,
			"count":2,
			"type":"VEC3"
		},
		{
			"bufferView":142,
			"componentType":5126,
			"count":2,
			"type":"VEC3"
		},
		{
			"bufferView":143,
			"componentType":5126,
			"count":18,
			"type":"VEC4"
		},
		{
			"bufferView":144,
			"componentType":5126,
			"count":2,
			"type":"VEC3"
		},
		{
			"bufferView":145,
			"componentType":5126,
			"count":2,
			"type":"VEC3"
		},
		{
			"bufferView":146,
			"componentType":5126,
			"count":2,
			"type":"VEC4"
		},
		{
			"bufferView":147,
			"componentType":5126,
			"count":2,
			"type":"VEC3"
		},
		{
			"bufferView":148,
			"componentType":5126,
			"count":18,
			"type":"VEC3"
		},
		{
			"bufferView":149,
			"componentType":5126,
			"count":2,
			"type":"VEC4"
		},
		{
			"bufferView":150,
			"componentType":5126,
			"count":2,
			"type":"VEC3"
		},
		{
			"bufferView":151,
			"componentType":5126,
			"count":18,
			"type":"VEC4"
		},
		{
			"bufferView":152,
			"componentType":5126,
			"count":2,
			"type":"VEC3"
		},
		{
			"bufferView":153,
			"componentType":5126,
			"count":2,
			"type":"VEC3"
		},
		{
			"bufferView":154,
			"componentType":5126,
			"count":18,
			"type":"VEC4"
		},
		{
			"bufferView":155,
			"componentType":5126,
			"count":2,
			"type":"VEC3"
		},
		{
			"bufferView":156,
			"componentType":5126,
			"count":18,
			"type":"VEC4"
		},
		{
			"bufferView":157,
			"componentType":5126,
			"count":2,
			"type":"VEC3"
		},
		{
			"bufferView":158,
			"componentType":5126,
			"count":2,
			"type":"VEC3"
		},
		{
			"bufferView":159,
			"componentType":5126,
			"count":2,
			"type":"VEC4"
		},
		{
			"bufferView":160,
			"componentType":5126,
			"count":2,
			"type":"VEC3"
		},
		{
			"bufferView":161,
			"componentType":5126,
			"count":18,
			"type":"VEC3"
		},
		{
			"bufferView":162,
			"componentType":5126,
			"count":18,
			"type":"VEC4"
		},
		{
			"bufferView":163,
			"componentType":5126,
			"count":2,
			"type":"VEC3"
		},
		{
			"bufferView":164,
			"componentType":5126,
			"count":18,
			"type":"VEC4"
		},
		{
			"bufferView":165,
			"componentType":5126,
			"count":2,
			"type":"VEC3"
		},
		{
			"bufferView":166,
			"componentType":5126,
			"count":18,
			"type":"VEC4"
		},
		{
			"bufferView":167,
			"componentType":5126,
			"count":2,
			"type":"VEC3"
		},
		{
			"bufferView":168,
			"componentType":5126,
			"count":2,
			"type":"VEC3"
		},
		{
			"bufferView":169,
			"componentType":5126,
			"count":18,
			"type":"VEC4"
		},
		{
			"bufferView":170,
			"componentType":5126,
			"count":2,
			"type":"VEC3"
		},
		{
			"bufferView":171,
			"componentType":5126,
			"count":18,
			"type":"VEC4"
		},
		{
			"bufferView":172,
			"componentType":5126,
			"count":2,
			"type":"VEC3"
		},
		{
			"bufferView":173,
			"componentType":5126,
			"count":18,
			"type":"VEC4"
		},
		{
			"bufferView":174,
			"componentType":5126,
			"count":2,
			"type":"VEC3"
		},
		{
			"bufferView":175,
			"componentType":5126,
			"count":2,
			"type":"VEC4"
		},
		{
			"bufferView":176,
			"componentType":5126,
			"count":2,
			"type":"VEC3"
		},
		{
			"bufferView":177,
			"componentType":5126,
			"count":18,
			"type":"VEC4"
		},
		{
			"bufferView":178,
			"componentType":5126,
			"count":2,
			"type":"VEC3"
		},
		{
			"bufferView":179,
			"componentType":5126,
			"count":18,
			"type":"VEC4"
		}
	],
	"bufferViews":[
		{
			"buffer":0,
			"byteLength":119328,
			"byteOffset":0,
			"target":34962
		},
		{
			"buffer":0,
			"byteLength":119328,
			"byteOffset":119328,
			"target":34962
		},
		{
			"buffer":0,
			"byteLength":79552,
			"byteOffset":238656,
			"target":34962
		},
		{
			"buffer":0,
			"byteLength":79552,
			"byteOffset":318208,
			"target":34962
		},
		{
			"buffer":0,
			"byteLength":39776,
			"byteOffset":397760,
			"target":34962
		},
		{
			"buffer":0,
			"byteLength":159104,
			"byteOffset":437536,
			"target":34962
		},
		{
			"buffer":0,
			"byteLength":68766,
			"byteOffset":596640,
			"target":34963
		},
		{
			"buffer":0,
			"byteLength":5592,
			"byteOffset":665408,
			"target":34962
		},
		{
			"buffer":0,
			"byteLength":5592,
			"byteOffset":671000,
			"target":34962
		},
		{
			"buffer":0,
			"byteLength":3728,
			"byteOffset":676592,
			"target":34962
		},
		{
			"buffer":0,
			"byteLength":3728,
			"byteOffset":680320,
			"target":34962
		},
		{
			"buffer":0,
			"byteLength":1864,
			"byteOffset":684048,
			"target":34962
		},
		{
			"buffer":0,
			"byteLength":7456,
			"byteOffset":685912,
			"target":34962
		},
		{
			"buffer":0,
			"byteLength":4596,
			"byteOffset":693368,
			"target":34963
		},
		{
			"buffer":0,
			"byteLength":95064,
			"byteOffset":697964,
			"target":34962
		},
		{
			"buffer":0,
			"byteLength":95064,
			"byteOffset":793028,
			"target":34962
		},
		{
			"buffer":0,
			"byteLength":63376,
			"byteOffset":888092,
			"target":34962
		},
		{
			"buffer":0,
			"byteLength":63376,
			"byteOffset":951468,
			"target":34962
		},
		{
			"buffer":0,
			"byteLength":31688,
			"byteOffset":1014844,
			"target":34962
		},
		{
			"buffer":0,
			"byteLength":126752,
			"byteOffset":1046532,
			"target":34962
		},
		{
			"buffer":0,
			"byteLength":78888,
			"byteOffset":1173284,
			"target":34963
		},
		{
			"buffer":0,
			"byteLength":66468,
			"byteOffset":1252172,
			"target":34962
		},
		{
			"buffer":0,
			"byteLength":66468,
			"byteOffset":1318640,
			"target":34962
		},
		{
			"buffer":0,
			"byteLength":44312,
			"byteOffset":1385108,
			"target":34962
		},
		{
			"buffer":0,
			"byteLength":44312,
			"byteOffset":1429420,
			"target":34962
		},
		{
			"buffer":0,
			"byteLength":22156,
			"byteOffset":1473732,
			"target":34962
		},
		{
			"buffer":0,
			"byteLength":88624,
			"byteOffset":1495888,
			"target":34962
		},
		{
			"buffer":0,
			"byteLength":56124,
			"byteOffset":1584512,
			"target":34963
		},
		{
			"buffer":0,
			"byteLength":38496,
			"byteOffset":1640636,
			"target":34962
		},
		{
			"buffer":0,
			"byteLength":38496,
			"byteOffset":1679132,
			"target":34962
		},
		{
			"buffer":0,
			"byteLength":25664,
			"byteOffset":1717628,
			"target":34962
		},
		{
			"buffer":0,
			"byteLength":25664,
			"byteOffset":1743292,
			"target":34962
		},
		{
			"buffer":0,
			"byteLength":12832,
			"byteOffset":1768956,
			"target":34962
		},
		{
			"buffer":0,
			"byteLength":51328,
			"byteOffset":1781788,
			"target":34962
		},
		{
			"buffer":0,
			"byteLength":32628,
			"byteOffset":1833116,
			"target":34963
		},
		{
			"buffer":0,
			"byteLength":129768,
			"byteOffset":1865744,
			"target":34962
		},
		{
			"buffer":0,
			"byteLength":129768,
			"byteOffset":1995512,
			"target":34962
		},
		{
			"buffer":0,
			"byteLength":86512,
			"byteOffset":2125280,
			"target":34962
		},
		{
			"buffer":0,
			"byteLength":86512,
			"byteOffset":2211792,
			"target":34962
		},
		{
			"buffer":0,
			"byteLength":43256,
			"byteOffset":2298304,
			"target":34962
		},
		{
			"buffer":0,
			"byteLength":173024,
			"byteOffset":2341560,
			"target":34962
		},
		{
			"buffer":0,
			"byteLength":96132,
			"byteOffset":2514584,
			"target":34963
		},
		{
			"buffer":0,
			"byteLength":3008,
			"byteOffset":2610716
		},
		{
			"buffer":0,
			"byteLength":36,
			"byteOffset":2613724,
			"target":34962
		},
		{
			"buffer":0,
			"byteLength":36,
			"byteOffset":2613760,
			"target":34962
		},
		{
			"buffer":0,
			"byteLength":24,
			"byteOffset":2613796,
			"target":34962
		},
		{
			"buffer":0,
			"byteLength":24,
			"byteOffset":2613820,
			"target":34962
		},
		{
			"buffer":0,
			"byteLength":12,
			"byteOffset":2613844,
			"target":34962
		},
		{
			"buffer":0,
			"byteLength":48,
			"byteOffset":2613856,
			"target":34962
		},
		{
			"buffer":0,
			"byteLength":6,
			"byteOffset":2613904,
			"target":34963
		},
		{
			"buffer":0,
			"byteLength":72,
			"byteOffset":2613912
		},
		{
			"buffer":0,
			"byteLength":216,
			"byteOffset":2613984
		},
		{
			"buffer":0,
			"byteLength":288,
			"byteOffset":2614200
		},
		{
			"buffer":0,
			"byteLength":8,
			"byteOffset":2614488
		},
		{
			"buffer":0,
			"byteLength":24,
			"byteOffset":2614496
		},
		{
			"buffer":0,
			"byteLength":24,
			"byteOffset":2614520
		},
		{
			"buffer":0,
			"byteLength":288,
			"byteOffset":2614544
		},
		{
			"buffer":0,
			"byteLength":24,
			"byteOffset":2614832
		},
		{
			"buffer":0,
			"byteLength":24,
			"byteOffset":2614856
		},
		{
			"buffer":0,
			"byteLength":288,
			"byteOffset":2614880
		},
		{
			"buffer":0,
			"byteLength":24,
			"byteOffset":2615168
		},
		{
			"buffer":0,
			"byteLength":24,
			"byteOffset":2615192
		},
		{
			"buffer":0,
			"byteLength":288,
			"byteOffset":2615216
		},
		{
			"buffer":0,
			"byteLength":24,
			"byteOffset":2615504
		},
		{
			"buffer":0,
			"byteLength":24,
			"byteOffset":2615528
		},
		{
			"buffer":0,
			"byteLength":32,
			"byteOffset":2615552
		},
		{
			"buffer":0,
			"byteLength":24,
			"byteOffset":2615584
		},
		{
			"buffer":0,
			"byteLength":24,
			"byteOffset":2615608
		},
		{
			"buffer":0,
			"byteLength":32,
			"byteOffset":2615632
		},
		{
			"buffer":0,
			"byteLength":24,
			"byteOffset":2615664
		},
		{
			"buffer":0,
			"byteLength":24,
			"byteOffset":2615688
		},
		{
			"buffer":0,
			"byteLength":32,
			"byteOffset":2615712
		},
		{
			"buffer":0,
			"byteLength":24,
			"byteOffset":2615744
		},
		{
			"buffer":0,
			"byteLength":24,
			"byteOffset":2615768
		},
		{
			"buffer":0,
			"byteLength":288,
			"byteOffset":2615792
		},
		{
			"buffer":0,
			"byteLength":24,
			"byteOffset":2616080
		},
		{
			"buffer":0,
			"byteLength":24,
			"byteOffset":2616104
		},
		{
			"buffer":0,
			"byteLength":32,
			"byteOffset":2616128
		},
		{
			"buffer":0,
			"byteLength":24,
			"byteOffset":2616160
		},
		{
			"buffer":0,
			"byteLength":24,
			"byteOffset":2616184
		},
		{
			"buffer":0,
			"byteLength":32,
			"byteOffset":2616208
		},
		{
			"buffer":0,
			"byteLength":24,
			"byteOffset":2616240
		},
		{
			"buffer":0,
			"byteLength":24,
			"byteOffset":2616264
		},
		{
			"buffer":0,
			"byteLength":32,
			"byteOffset":2616288
		},
		{
			"buffer":0,
			"byteLength":24,
			"byteOffset":2616320
		},
		{
			"buffer":0,
			"byteLength":24,
			"byteOffset":2616344
		},
		{
			"buffer":0,
			"byteLength":288,
			"byteOffset":2616368
		},
		{
			"buffer":0,
			"byteLength":24,
			"byteOffset":2616656
		},
		{
			"buffer":0,
			"byteLength":24,
			"byteOffset":2616680
		},
		{
			"buffer":0,
			"byteLength":32,
			"byteOffset":2616704
		},
		{
			"buffer":0,
			"byteLength":24,
			"byteOffset":2616736
		},
		{
			"buffer":0,
			"byteLength":24,
			"byteOffset":2616760
		},
		{
			"buffer":0,
			"byteLength":32,
			"byteOffset":2616784
		},
		{
			"buffer":0,
			"byteLength":24,
			"byteOffset":2616816
		},
		{
			"buffer":0,
			"byteLength":24,
			"byteOffset":2616840
		},
		{
			"buffer":0,
			"byteLength":32,
			"byteOffset":2616864
		},
		{
			"buffer":0,
			"byteLength":24,
			"byteOffset":2616896
		},
		{
			"buffer":0,
			"byteLength":24,
			"byteOffset":2616920
		},
		{
			"buffer":0,
			"byteLength":32,
			"byteOffset":2616944
		},
		{
			"buffer":0,
			"byteLength":24,
			"byteOffset":2616976
		},
		{
			"buffer":0,
			"byteLength":24,
			"byteOffset":2617000
		},
		{
			"buffer":0,
			"byteLength":288,
			"byteOffset":2617024
		},
		{
			"buffer":0,
			"byteLength":24,
			"byteOffset":2617312
		},
		{
			"buffer":0,
			"byteLength":24,
			"byteOffset":2617336
		},
		{
			"buffer":0,
			"byteLength":288,
			"byteOffset":2617360
		},
		{
			"buffer":0,
			"byteLength":24,
			"byteOffset":2617648
		},
		{
			"buffer":0,
			"byteLength":24,
			"byteOffset":2617672
		},
		{
			"buffer":0,
			"byteLength":32,
			"byteOffset":2617696
		},
		{
			"buffer":0,
			"byteLength":24,
			"byteOffset":2617728
		},
		{
			"buffer":0,
			"byteLength":32,
			"byteOffset":2617752
		},
		{
			"buffer":0,
			"byteLength":24,
			"byteOffset":2617784
		},
		{
			"buffer":0,
			"byteLength":24,
			"byteOffset":2617808
		},
		{
			"buffer":0,
			"byteLength":32,
			"byteOffset":2617832
		},
		{
			"buffer":0,
			"byteLength":24,
			"byteOffset":2617864
		},
		{
			"buffer":0,
			"byteLength":24,
			"byteOffset":2617888
		},
		{
			"buffer":0,
			"byteLength":288,
			"byteOffset":2617912
		},
		{
			"buffer":0,
			"byteLength":24,
			"byteOffset":2618200
		},
		{
			"buffer":0,
			"byteLength":24,
			"byteOffset":2618224
		},
		{
			"buffer":0,
			"byteLength":288,
			"byteOffset":2618248
		},
		{
			"buffer":0,
			"byteLength":24,
			"byteOffset":2618536
		},
		{
			"buffer":0,
			"byteLength":24,
			"byteOffset":2618560
		},
		{
			"buffer":0,
			"byteLength":32,
			"byteOffset":2618584
		},
		{
			"buffer":0,
			"byteLength":24,
			"byteOffset":2618616
		},
		{
			"buffer":0,
			"byteLength":24,
			"byteOffset":2618640
		},
		{
			"buffer":0,
			"byteLength":32,
			"byteOffset":2618664
		},
		{
			"buffer":0,
			"byteLength":24,
			"byteOffset":2618696
		},
		{
			"buffer":0,
			"byteLength":24,
			"byteOffset":2618720
		},
		{
			"buffer":0,
			"byteLength":288,
			"byteOffset":2618744
		},
		{
			"buffer":0,
			"byteLength":24,
			"byteOffset":2619032
		},
		{
			"buffer":0,
			"byteLength":24,
			"byteOffset":2619056
		},
		{
			"buffer":0,
			"byteLength":288,
			"byteOffset":2619080
		},
		{
			"buffer":0,
			"byteLength":24,
			"byteOffset":2619368
		},
		{
			"buffer":0,
			"byteLength":32,
			"byteOffset":2619392
		},
		{
			"buffer":0,
			"byteLength":24,
			"byteOffset":2619424
		},
		{
			"buffer":0,
			"byteLength":216,
			"byteOffset":2619448
		},
		{
			"buffer":0,
			"byteLength":32,
			"byteOffset":2619664
		},
		{
			"buffer":0,
			"byteLength":24,
			"byteOffset":2619696
		},
		{
			"buffer":0,
			"byteLength":288,
			"byteOffset":2619720
		},
		{
			"buffer":0,
			"byteLength":24,
			"byteOffset":2620008
		},
		{
			"buffer":0,
			"byteLength":24,
			"byteOffset":2620032
		},
		{
			"buffer":0,
			"byteLength":288,
			"byteOffset":2620056
		},
		{
			"buffer":0,
			"byteLength":24,
			"byteOffset":2620344
		},
		{
			"buffer":0,
			"byteLength":24,
			"byteOffset":2620368
		},
		{
			"buffer":0,
			"byteLength":288,
			"byteOffset":2620392
		},
		{
			"buffer":0,
			"byteLength":24,
			"byteOffset":2620680
		},
		{
			"buffer":0,
			"byteLength":24,
			"byteOffset":2620704
		},
		{
			"buffer":0,
			"byteLength":32,
			"byteOffset":2620728
		},
		{
			"buffer":0,
			"byteLength":24,
			"byteOffset":2620760
		},
		{
			"buffer":0,
			"byteLength":216,
			"byteOffset":2620784
		},
		{
			"buffer":0,
			"byteLength":32,
			"byteOffset":2621000
		},
		{
			"buffer":0,
			"byteLength":24,
			"byteOffset":2621032
		},
		{
			"buffer":0,
			"byteLength":288,
			"byteOffset":2621056
		},
		{
			"buffer":0,
			"byteLength":24,
			"byteOffset":2621344
		},
		{
			"buffer":0,
			"byteLength":24,
			"byteOffset":2621368
		},
		{
			"buffer":0,
			"byteLength":288,
			"byteOffset":2621392
		},
		{
			"buffer":0,
			"byteLength":24,
			"byteOffset":2621680
		},
		{
			"buffer":0,
			"byteLength":288,
			"byteOffset":2621704
		},
		{
			"buffer":0,
			"byteLength":24,
			"byteOffset":2621992
		},
		{
			"buffer":0,
			"byteLength":24,
			"byteOffset":2622016
		},
		{
			"buffer":0,
			"byteLength":32,
			"byteOffset":2622040
		},
		{
			"buffer":0,
			"byteLength":24,
			"byteOffset":2622072
		},
		{
			"buffer":0,
			"byteLength":216,
			"byteOffset":2622096
		},
		{
			"buffer":0,
			"byteLength":288,
			"byteOffset":2622312
		},
		{
			"buffer":0,
			"byteLength":24,
			"byteOffset":2622600
		},
		{
			"buffer":0,
			"byteLength":288,
			"byteOffset":2622624
		},
		{
			"buffer":0,
			"byteLength":24,
			"byteOffset":2622912
		},
		{
			"buffer":0,
			"byteLength":288,
			"byteOffset":2622936
		},
		{
			"buffer":0,
			"byteLength":24,
			"byteOffset":2623224
		},
		{
			"buffer":0,
			"byteLength":24,
			"byteOffset":2623248
		},
		{
			"buffer":0,
			"byteLength":288,
			"byteOffset":2623272
		},
		{
			"buffer":0,
			"byteLength":24,
			"byteOffset":2623560
		},
		{
			"buffer":0,
			"byteLength":288,
			"byteOffset":2623584
		},
		{
			"buffer":0,
			"byteLength":24,
			"byteOffset":2623872
		},
		{
			"buffer":0,
			"byteLength":288,
			"byteOffset":2623896
		},
		{
			"buffer":0,
			"byteLength":24,
			"byteOffset":2624184
		},
		{
			"buffer":0,
			"byteLength":32,
			"byteOffset":2624208
		},
		{
			"buffer":0,
			"byteLength":24,
			"byteOffset":2624240
		},
		{
			"buffer":0,
			"byteLength":288,
			"byteOffset":2624264
		},
		{
			"buffer":0,
			"byteLength":24,
			"byteOffset":2624552
		},
		{
			"buffer":0,
			"byteLength":288,
			"byteOffset":2624576
		}
	],
	"samplers":[
		{
			"magFilter":9729,
			"minFilter":9987
		}
	],
	"buffers":[
		{
			"byteLength":2624864,
			"uri":"xenomorph.bin"
		}
	]
}
