{
	"asset":{
		"generator":"Khronos glTF Blender I/O v5.0.21",
		"version":"2.0"
	},
	"extensionsUsed":[
		"KHR_materials_transmission"
	],
	"scene":0,
	"scenes":[
		{
			"name":"Scene",
			"nodes":[
				58
			]
		}
	],
	"nodes":[
		{
			"name":"2504c60b037e4a1599c176e3ca764c72.fbx",
			"translation":[
				-0.3620167374610901,
				3.685987949371338,
				0
			]
		},
		{
			"name":"alien_u0v0",
			"translation":[
				-0.3620167374610901,
				3.685987949371338,
				0
			]
		},
		{
			"name":"Hueso.018",
			"rotation":[
				-0.008104469627141953,
				-0.02126203663647175,
				-0.07726746052503586,
				0.9967507123947144
			],
			"scale":[
				1.0000001192092896,
				1,
				1
			],
			"translation":[
				5.662441253662109e-07,
				0.47615522146224976,
				-9.313225746154785e-08
			]
		},
		{
			"children":[
				2
			],
			"name":"Hueso.016",
			"rotation":[
				-0.029698047786951065,
				-0.004335162695497274,
				0.029511932283639908,
				0.9991137385368347
			],
			"scale":[
				1,
				1,
				0.9999999403953552
			],
			"translation":[
				-2.086162567138672e-07,
				0.4427395462989807,
				-1.4901161193847656e-08
			]
		},
		{
			"children":[
				3
			],
			"name":"Hueso.015",
			"rotation":[
				-0.28789108991622925,
				-0.12477998435497284,
				-0.01854602061212063,
				0.9493180513381958
			],
			"scale":[
				0.9999999403953552,
				1,
				0.9999999403953552
			],
			"translation":[
				0,
				0.3359821140766144,
				2.9802322387695312e-08
			]
		},
		{
			"children":[
				4
			],
			"name":"Hueso.017",
			"rotation":[
				-0.12121356278657913,
				-0.11482418328523636,
				-0.09939517825841904,
				0.9809399843215942
			],
			"scale":[
				1.0000001192092896,
				1.0000001192092896,
				1
			],
			"translation":[
				5.960464477539063e-08,
				0.49331364035606384,
				-4.023313522338867e-07
			]
		},
		{
			"children":[
				5
			],
			"name":"Hueso.014",
			"rotation":[
				-0.02371235191822052,
				-0.1641484498977661,
				-0.1788443773984909,
				0.9697977900505066
			],
			"scale":[
				1.0000001192092896,
				0.9999999403953552,
				1
			],
			"translation":[
				-8.940696716308594e-08,
				0.5617867708206177,
				0
			]
		},
		{
			"children":[
				6
			],
			"name":"Hueso.013",
			"rotation":[
				0.11546581238508224,
				-0.015716243535280228,
				-0.002695668488740921,
				0.9931834936141968
			],
			"scale":[
				0.9999999403953552,
				0.9999998807907104,
				1
			],
			"translation":[
				2.9802322387695312e-08,
				0.5542230606079102,
				8.940696716308594e-08
			]
		},
		{
			"children":[
				7
			],
			"name":"Hueso.012",
			"rotation":[
				0.24627314507961273,
				-0.1610833704471588,
				-0.17921388149261475,
				0.9387673139572144
			],
			"scale":[
				0.9999999403953552,
				1,
				1
			],
			"translation":[
				1.1920928955078125e-07,
				0.685405969619751,
				2.7567148208618164e-07
			]
		},
		{
			"children":[
				8
			],
			"name":"Hueso.011",
			"rotation":[
				0.3651001751422882,
				-0.11787279695272446,
				0.046967003494501114,
				0.9222809076309204
			],
			"scale":[
				0.9999999403953552,
				0.9999998807907104,
				0.9999999403953552
			],
			"translation":[
				-1.4901161193847656e-08,
				0.6827490329742432,
				-3.4458935260772705e-07
			]
		},
		{
			"children":[
				9
			],
			"name":"Hueso.010",
			"rotation":[
				0.20772899687290192,
				-0.0759013444185257,
				0.20941171050071716,
				0.9524885416030884
			],
			"scale":[
				0.9999999403953552,
				0.9999999403953552,
				0.9999999403953552
			],
			"translation":[
				0,
				0.8554590940475464,
				-1.601874828338623e-07
			]
		},
		{
			"children":[
				10
			],
			"name":"Hueso.009",
			"rotation":[
				-0.023077229037880898,
				-0.04074304923415184,
				0.15528184175491333,
				0.9867598414421082
			],
			"scale":[
				1,
				0.9999999403953552,
				1
			],
			"translation":[
				-7.450580596923828e-09,
				0.9327120780944824,
				-4.936009645462036e-08
			]
		},
		{
			"children":[
				11
			],
			"name":"Hueso.008",
			"rotation":[
				-0.1384311020374298,
				0.008142074570059776,
				-0.0763532966375351,
				0.9873908758163452
			],
			"translation":[
				0,
				0.8293644189834595,
				-1.7881393432617188e-07
			]
		},
		{
			"children":[
				12
			],
			"name":"Hueso.007",
			"rotation":[
				-0.11928091198205948,
				0,
				0,
				0.9928605556488037
			],
			"translation":[
				0,
				-2.4924192428588867,
				3.8524892330169678
			]
		},
		{
			"name":"Hueso.004.R.001",
			"rotation":[
				-0.5600614547729492,
				-0.18342508375644684,
				0.5189611911773682,
				0.619165301322937
			],
			"scale":[
				0.9999998807907104,
				1,
				0.9999998807907104
			],
			"translation":[
				5.2619725465774536e-08,
				2.615084648132324,
				1.685693860054016e-07
			]
		},
		{
			"name":"Hueso.004.R.002",
			"rotation":[
				-0.8369305729866028,
				0.02028735727071762,
				-0.02080225758254528,
				0.5465372204780579
			],
			"scale":[
				1,
				0.9999999403953552,
				0.9999999403953552
			],
			"translation":[
				5.2619725465774536e-08,
				2.615084648132324,
				1.685693860054016e-07
			]
		},
		{
			"children":[
				14,
				15
			],
			"name":"Hueso.004.R",
			"rotation":[
				0.38800719380378723,
				0.044712748378515244,
				-0.13674362003803253,
				0.9103583693504333
			],
			"translation":[
				8.940696716308594e-08,
				1.6160683631896973,
				2.9802322387695312e-08
			]
		},
		{
			"children":[
				16
			],
			"name":"Hueso.005.L",
			"rotation":[
				-0.28792476654052734,
				0.4023410379886627,
				-0.3587000072002411,
				0.7915524840354919
			],
			"translation":[
				-9.685754776000977e-08,
				0.2655852735042572,
				-2.8312206268310547e-07
			]
		},
		{
			"children":[
				17
			],
			"name":"Hueso.003.L",
			"rotation":[
				-0.27724602818489075,
				0.008723236620426178,
				0.6543572545051575,
				0.703473687171936
			],
			"scale":[
				1,
				1,
				0.9999999403953552
			],
			"translation":[
				-0.02062353491783142,
				-2.540511131286621,
				3.805009603500366
			]
		},
		{
			"name":"Hueso.004.L.001",
			"rotation":[
				-0.4779941141605377,
				0.3371608257293701,
				-0.512585461139679,
				0.6285700798034668
			],
			"scale":[
				1,
				1,
				0.9999999403953552
			],
			"translation":[
				3.725290298461914e-09,
				2.4346864223480225,
				2.9802322387695312e-08
			]
		},
		{
			"name":"Hueso.004.L.002",
			"rotation":[
				-0.16671399772167206,
				0.4456896483898163,
				-0.6389631628990173,
				0.6043949723243713
			],
			"scale":[
				1.0000001192092896,
				1.0000001192092896,
				1
			],
			"translation":[
				3.725290298461914e-09,
				2.4346864223480225,
				2.9802322387695312e-08
			]
		},
		{
			"children":[
				19,
				20
			],
			"name":"Hueso.004.L",
			"rotation":[
				0.39758238196372986,
				-0.10207503288984299,
				0.26048997044563293,
				0.8738729953765869
			],
			"scale":[
				0.9999998807907104,
				0.9999999403953552,
				0.9999999403953552
			],
			"translation":[
				5.960464477539063e-08,
				1.7492561340332031,
				-2.9802322387695312e-08
			]
		},
		{
			"children":[
				21
			],
			"name":"Hueso.005.R",
			"rotation":[
				-0.3645714223384857,
				-0.3048669993877411,
				-0.023501068353652954,
				0.8795405030250549
			],
			"scale":[
				1,
				0.9999999403953552,
				1
			],
			"translation":[
				1.862645149230957e-07,
				0.23112861812114716,
				3.725290298461914e-09
			]
		},
		{
			"children":[
				22
			],
			"name":"Hueso.003.R",
			"rotation":[
				-0.42960450053215027,
				-0.007968949154019356,
				-0.5977593660354614,
				0.6768014430999756
			],
			"translation":[
				0.04343456029891968,
				-2.5156781673431396,
				3.818359375
			]
		},
		{
			"name":"Hueso.023",
			"rotation":[
				-0.5246275663375854,
				-0.07854939997196198,
				-0.055918022990226746,
				0.8458541035652161
			],
			"scale":[
				1,
				0.9999999403953552,
				0.9999999403953552
			],
			"translation":[
				2.9802322387695312e-08,
				0.7129451036453247,
				-2.2351741790771484e-08
			]
		},
		{
			"children":[
				24
			],
			"name":"Hueso.002",
			"rotation":[
				-0.6910648941993713,
				-0.23839974403381348,
				-0.2843703329563141,
				0.6202647686004639
			],
			"scale":[
				0.9999999403953552,
				1,
				1
			],
			"translation":[
				-8.940696716308594e-08,
				0.45896032452583313,
				2.682209014892578e-07
			]
		},
		{
			"name":"HuesoLeng.",
			"rotation":[
				0.7493769526481628,
				-0.3402773141860962,
				-0.05904119461774826,
				0.5649421215057373
			],
			"scale":[
				1.0000001192092896,
				1.0000001192092896,
				1.0000001192092896
			],
			"translation":[
				-0.11910319328308105,
				0.2769533693790436,
				0.292117178440094
			]
		},
		{
			"name":"Hueso.032",
			"rotation":[
				0.7572574615478516,
				-0.5193105936050415,
				-0.15760426223278046,
				0.3633711040019989
			],
			"scale":[
				1,
				0.9999999403953552,
				0.9999999403953552
			],
			"translation":[
				-0.23956075310707092,
				0.26916420459747314,
				0.692366898059845
			]
		},
		{
			"name":"Hueso.033",
			"rotation":[
				0.7713227868080139,
				-0.07378416508436203,
				0.0935538113117218,
				0.6251918077468872
			],
			"scale":[
				1,
				1,
				1.0000001192092896
			],
			"translation":[
				-0.37006279826164246,
				0.2757125496864319,
				0.6293208599090576
			]
		},
		{
			"children":[
				26,
				27,
				28
			],
			"name":"HuesoCab.",
			"rotation":[
				-0.302718847990036,
				-0.1399649828672409,
				-0.13101278245449066,
				0.9335988163948059
			],
			"scale":[
				0.9999998807907104,
				0.9999999403953552,
				1
			],
			"translation":[
				-8.940696716308594e-08,
				0.45896032452583313,
				2.682209014892578e-07
			]
		},
		{
			"name":"Hueso.034",
			"rotation":[
				0.011304149404168129,
				-0.20742106437683105,
				0.05901449918746948,
				0.9764046669006348
			],
			"scale":[
				0.9999999403953552,
				0.9999999403953552,
				1
			],
			"translation":[
				-0.020825639367103577,
				0.2782798707485199,
				-0.09698234498500824
			]
		},
		{
			"name":"Hueso.035",
			"rotation":[
				-0.09682168066501617,
				0.3023253381252289,
				-0.05358292907476425,
				0.9467597007751465
			],
			"scale":[
				1,
				0.9999999403953552,
				0.9999999403953552
			],
			"translation":[
				-0.10288000106811523,
				0.2783774137496948,
				-0.010707199573516846
			]
		},
		{
			"children":[
				30,
				31
			],
			"name":"Hueso.036",
			"rotation":[
				0.02875969186425209,
				0.04139303043484688,
				-0.024297116324305534,
				0.9984333515167236
			],
			"scale":[
				0.9999998807907104,
				0.9999999403953552,
				0.9999999403953552
			],
			"translation":[
				1.1920928955078125e-07,
				0.46581846475601196,
				1.7881393432617188e-07
			]
		},
		{
			"children":[
				32
			],
			"name":"Hueso.031",
			"rotation":[
				0.37115442752838135,
				-0.6620005965232849,
				0.009434666484594345,
				0.6510841846466064
			],
			"scale":[
				0.9999997615814209,
				0.9999997615814209,
				0.9999998211860657
			],
			"translation":[
				-8.940696716308594e-08,
				0.45896032452583313,
				2.682209014892578e-07
			]
		},
		{
			"children":[
				25,
				29,
				33
			],
			"name":"Hueso.003",
			"rotation":[
				0.07026754319667816,
				0.4540346562862396,
				0.10686899721622467,
				0.8817562460899353
			],
			"scale":[
				1,
				0.9999998807907104,
				0.9999998807907104
			],
			"translation":[
				8.195638656616211e-08,
				1.3625948429107666,
				1.2665987014770508e-07
			]
		},
		{
			"name":"Hueso.021",
			"rotation":[
				0.23369862139225006,
				0.06732268631458282,
				-0.05605093017220497,
				0.9683547616004944
			],
			"scale":[
				0.9999999403953552,
				0.9999999403953552,
				1
			],
			"translation":[
				1.4901161193847656e-08,
				0.38917452096939087,
				-7.450580596923828e-09
			]
		},
		{
			"children":[
				35
			],
			"name":"Hueso.020",
			"rotation":[
				0.11798074841499329,
				-0.0022919042967259884,
				0.012217395007610321,
				0.9929381012916565
			],
			"translation":[
				-2.2351741790771484e-08,
				0.5188190340995789,
				-7.450580596923828e-09
			]
		},
		{
			"children":[
				36
			],
			"name":"Hueso.019",
			"rotation":[
				0.3089847266674042,
				-0.09236519783735275,
				0.10801912099123001,
				0.9403877258300781
			],
			"scale":[
				0.9999999403953552,
				0.9999999403953552,
				1
			],
			"translation":[
				0,
				1.2005301713943481,
				5.960464477539063e-08
			]
		},
		{
			"children":[
				37
			],
			"name":"Hueso.006",
			"rotation":[
				-0.5905705094337463,
				0.38498345017433167,
				-0.294633686542511,
				0.6451396942138672
			],
			"translation":[
				-1.280244248391682e-07,
				1.0345408916473389,
				3.898820466474717e-07
			]
		},
		{
			"children":[
				38
			],
			"name":"Hueso.005",
			"rotation":[
				-0.37479352951049805,
				0.23864807188510895,
				-0.1760277897119522,
				0.8784026503562927
			],
			"scale":[
				0.9999998807907104,
				0.9999999403953552,
				0.9999999403953552
			],
			"translation":[
				-3.725290298461914e-09,
				0.5072296261787415,
				5.457550287246704e-07
			]
		},
		{
			"children":[
				39
			],
			"name":"Hueso.004",
			"rotation":[
				-0.8012422323226929,
				0.5189959406852722,
				0.2643768787384033,
				0.13696342706680298
			],
			"scale":[
				1.0000001192092896,
				1.0000001192092896,
				1
			],
			"translation":[
				8.195638656616211e-08,
				1.3625948429107666,
				1.2665987014770508e-07
			]
		},
		{
			"name":"Hueso.029",
			"rotation":[
				0.06854873150587082,
				-0.1520998179912567,
				0.1653997004032135,
				0.9720132350921631
			],
			"scale":[
				1,
				0.9999999403953552,
				1
			],
			"translation":[
				2.9802322387695312e-08,
				0.34929192066192627,
				-5.960464477539063e-08
			]
		},
		{
			"children":[
				41
			],
			"name":"Hueso.028",
			"rotation":[
				-0.06235738843679428,
				0.026020415127277374,
				-0.024017764255404472,
				0.9974254965782166
			],
			"scale":[
				1.0000001192092896,
				1.0000001192092896,
				1
			],
			"translation":[
				-8.940696716308594e-08,
				0.39655911922454834,
				0
			]
		},
		{
			"children":[
				42
			],
			"name":"Hueso.027",
			"rotation":[
				-0.31664130091667175,
				-0.1426294445991516,
				0.22940275073051453,
				0.9092686772346497
			],
			"scale":[
				1,
				1,
				0.9999999403953552
			],
			"translation":[
				-2.9802322387695312e-08,
				1.3192178010940552,
				6.109476089477539e-07
			]
		},
		{
			"children":[
				43
			],
			"name":"Hueso.026",
			"rotation":[
				-0.3547351062297821,
				-0.11089068651199341,
				0.1161770150065422,
				0.9210695624351501
			],
			"scale":[
				1,
				1,
				1.0000001192092896
			],
			"translation":[
				5.960464477539063e-08,
				1.1740046739578247,
				3.725290298461914e-08
			]
		},
		{
			"children":[
				44
			],
			"name":"Hueso.025",
			"rotation":[
				0.0845390260219574,
				0.032486118376255035,
				0.08091797679662704,
				0.9925976395606995
			],
			"scale":[
				0.9999999403953552,
				0.9999998211860657,
				1.0000001192092896
			],
			"translation":[
				-2.9802322387695312e-08,
				0.6072876453399658,
				3.403984010219574e-07
			]
		},
		{
			"children":[
				45
			],
			"name":"Hueso.024",
			"rotation":[
				-0.8892036080360413,
				-0.37854331731796265,
				0.04489922150969505,
				0.2529941201210022
			],
			"scale":[
				0.9999998807907104,
				0.9999998807907104,
				0.9999998807907104
			],
			"translation":[
				8.195638656616211e-08,
				1.3625948429107666,
				1.2665987014770508e-07
			]
		},
		{
			"children":[
				34,
				40,
				46
			],
			"name":"Hueso.001",
			"rotation":[
				0.5007964372634888,
				-0.04799705743789673,
				-0.0932864248752594,
				0.8591838479042053
			],
			"scale":[
				1,
				1,
				1.0000001192092896
			],
			"translation":[
				7.450580596923828e-09,
				0.5387179851531982,
				7.078051567077637e-08
			]
		},
		{
			"children":[
				47
			],
			"name":"Hueso",
			"rotation":[
				0.6947691440582275,
				-0.0008453003829345107,
				-0.06341051310300827,
				0.7164316773414612
			],
			"scale":[
				0.9999998807907104,
				0.9999999403953552,
				0.9999999403953552
			],
			"translation":[
				0,
				-2.5128655433654785,
				3.6839489936828613
			]
		},
		{
			"children":[
				13,
				18,
				23,
				48
			],
			"name":"Hueso.022",
			"rotation":[
				-0.6976183652877808,
				0,
				0,
				0.7164695262908936
			],
			"translation":[
				-0.3247109055519104,
				0.10587489604949951,
				-3.1742119789123535
			]
		},
		{
			"name":"neutral_bone",
			"rotation":[
				-0.7071067690849304,
				0,
				0,
				0.7071067690849304
			]
		},
		{
			"mesh":0,
			"name":"alien_u0v0_alien_u0v0_0",
			"skin":0
		},
		{
			"name":"alien_u0v1",
			"translation":[
				-0.3620167374610901,
				3.685987949371338,
				0
			]
		},
		{
			"mesh":1,
			"name":"alien_u0v1_alien_u0v1_0",
			"skin":0
		},
		{
			"name":"alien_u0v2",
			"translation":[
				-0.3620167374610901,
				3.685987949371338,
				0
			]
		},
		{
			"mesh":2,
			"name":"alien_u0v2_alien_u0v2_0",
			"skin":0
		},
		{
			"name":"RootNode",
			"translation":[
				-0.3620167374610901,
				3.685987949371338,
				0
			]
		},
		{
			"name":"Sketchfab_model",
			"rotation":[
				-0.70710688829422,
				0,
				0,
				0.7071066498756409
			],
			"translation":[
				-0.3620167374610901,
				3.685987949371338,
				0
			]
		},
		{
			"children":[
				0,
				1,
				51,
				52,
				53,
				54,
				55,
				56,
				57,
				49,
				50
			],
			"name":"Esqueleto"
		}
	],
	"animations":[
		{
			"channels":[
				{
					"sampler":0,
					"target":{
						"node":49,
						"path":"translation"
					}
				},
				{
					"sampler":1,
					"target":{
						"node":49,
						"path":"rotation"
					}
				},
				{
					"sampler":2,
					"target":{
						"node":49,
						"path":"scale"
					}
				},
				{
					"sampler":3,
					"target":{
						"node":13,
						"path":"translation"
					}
				},
				{
					"sampler":4,
					"target":{
						"node":13,
						"path":"rotation"
					}
				},
				{
					"sampler":5,
					"target":{
						"node":13,
						"path":"scale"
					}
				},
				{
					"sampler":6,
					"target":{
						"node":12,
						"path":"translation"
					}
				},
				{
					"sampler":7,
					"target":{
						"node":12,
						"path":"rotation"
					}
				},
				{
					"sampler":8,
					"target":{
						"node":12,
						"path":"scale"
					}
				},
				{
					"sampler":9,
					"target":{
						"node":11,
						"path":"translation"
					}
				},
				{
					"sampler":10,
					"target":{
						"node":11,
						"path":"rotation"
					}
				},
				{
					"sampler":11,
					"target":{
						"node":11,
						"path":"scale"
					}
				},
				{
					"sampler":12,
					"target":{
						"node":10,
						"path":"translation"
					}
				},
				{
					"sampler":13,
					"target":{
						"node":10,
						"path":"rotation"
					}
				},
				{
					"sampler":14,
					"target":{
						"node":10,
						"path":"scale"
					}
				},
				{
					"sampler":15,
					"target":{
						"node":9,
						"path":"translation"
					}
				},
				{
					"sampler":16,
					"target":{
						"node":9,
						"path":"rotation"
					}
				},
				{
					"sampler":17,
					"target":{
						"node":9,
						"path":"scale"
					}
				},
				{
					"sampler":18,
					"target":{
						"node":8,
						"path":"translation"
					}
				},
				{
					"sampler":19,
					"target":{
						"node":8,
						"path":"rotation"
					}
				},
				{
					"sampler":20,
					"target":{
						"node":8,
						"path":"scale"
					}
				},
				{
					"sampler":21,
					"target":{
						"node":7,
						"path":"translation"
					}
				},
				{
					"sampler":22,
					"target":{
						"node":7,
						"path":"rotation"
					}
				},
				{
					"sampler":23,
					"target":{
						"node":7,
						"path":"scale"
					}
				},
				{
					"sampler":24,
					"target":{
						"node":6,
						"path":"translation"
					}
				},
				{
					"sampler":25,
					"target":{
						"node":6,
						"path":"rotation"
					}
				},
				{
					"sampler":26,
					"target":{
						"node":6,
						"path":"scale"
					}
				},
				{
					"sampler":27,
					"target":{
						"node":5,
						"path":"translation"
					}
				},
				{
					"sampler":28,
					"target":{
						"node":5,
						"path":"rotation"
					}
				},
				{
					"sampler":29,
					"target":{
						"node":5,
						"path":"scale"
					}
				},
				{
					"sampler":30,
					"target":{
						"node":4,
						"path":"translation"
					}
				},
				{
					"sampler":31,
					"target":{
						"node":4,
						"path":"rotation"
					}
				},
				{
					"sampler":32,
					"target":{
						"node":4,
						"path":"scale"
					}
				},
				{
					"sampler":33,
					"target":{
						"node":3,
						"path":"translation"
					}
				},
				{
					"sampler":34,
					"target":{
						"node":3,
						"path":"rotation"
					}
				},
				{
					"sampler":35,
					"target":{
						"node":3,
						"path":"scale"
					}
				},
				{
					"sampler":36,
					"target":{
						"node":2,
						"path":"translation"
					}
				},
				{
					"sampler":37,
					"target":{
						"node":2,
						"path":"rotation"
					}
				},
				{
					"sampler":38,
					"target":{
						"node":2,
						"path":"scale"
					}
				},
				{
					"sampler":39,
					"target":{
						"node":18,
						"path":"translation"
					}
				},
				{
					"sampler":40,
					"target":{
						"node":18,
						"path":"rotation"
					}
				},
				{
					"sampler":41,
					"target":{
						"node":18,
						"path":"scale"
					}
				},
				{
					"sampler":42,
					"target":{
						"node":17,
						"path":"translation"
					}
				},
				{
					"sampler":43,
					"target":{
						"node":17,
						"path":"rotation"
					}
				},
				{
					"sampler":44,
					"target":{
						"node":17,
						"path":"scale"
					}
				},
				{
					"sampler":45,
					"target":{
						"node":16,
						"path":"translation"
					}
				},
				{
					"sampler":46,
					"target":{
						"node":16,
						"path":"rotation"
					}
				},
				{
					"sampler":47,
					"target":{
						"node":16,
						"path":"scale"
					}
				},
				{
					"sampler":48,
					"target":{
						"node":14,
						"path":"translation"
					}
				},
				{
					"sampler":49,
					"target":{
						"node":14,
						"path":"rotation"
					}
				},
				{
					"sampler":50,
					"target":{
						"node":14,
						"path":"scale"
					}
				},
				{
					"sampler":51,
					"target":{
						"node":15,
						"path":"translation"
					}
				},
				{
					"sampler":52,
					"target":{
						"node":15,
						"path":"rotation"
					}
				},
				{
					"sampler":53,
					"target":{
						"node":15,
						"path":"scale"
					}
				},
				{
					"sampler":54,
					"target":{
						"node":23,
						"path":"translation"
					}
				},
				{
					"sampler":55,
					"target":{
						"node":23,
						"path":"rotation"
					}
				},
				{
					"sampler":56,
					"target":{
						"node":23,
						"path":"scale"
					}
				},
				{
					"sampler":57,
					"target":{
						"node":22,
						"path":"translation"
					}
				},
				{
					"sampler":58,
					"target":{
						"node":22,
						"path":"rotation"
					}
				},
				{
					"sampler":59,
					"target":{
						"node":22,
						"path":"scale"
					}
				},
				{
					"sampler":60,
					"target":{
						"node":21,
						"path":"translation"
					}
				},
				{
					"sampler":61,
					"target":{
						"node":21,
						"path":"rotation"
					}
				},
				{
					"sampler":62,
					"target":{
						"node":21,
						"path":"scale"
					}
				},
				{
					"sampler":63,
					"target":{
						"node":19,
						"path":"translation"
					}
				},
				{
					"sampler":64,
					"target":{
						"node":19,
						"path":"rotation"
					}
				},
				{
					"sampler":65,
					"target":{
						"node":19,
						"path":"scale"
					}
				},
				{
					"sampler":66,
					"target":{
						"node":20,
						"path":"translation"
					}
				},
				{
					"sampler":67,
					"target":{
						"node":20,
						"path":"rotation"
					}
				},
				{
					"sampler":68,
					"target":{
						"node":20,
						"path":"scale"
					}
				},
				{
					"sampler":69,
					"target":{
						"node":48,
						"path":"translation"
					}
				},
				{
					"sampler":70,
					"target":{
						"node":48,
						"path":"rotation"
					}
				},
				{
					"sampler":71,
					"target":{
						"node":48,
						"path":"scale"
					}
				},
				{
					"sampler":72,
					"target":{
						"node":47,
						"path":"translation"
					}
				},
				{
					"sampler":73,
					"target":{
						"node":47,
						"path":"rotation"
					}
				},
				{
					"sampler":74,
					"target":{
						"node":47,
						"path":"scale"
					}
				},
				{
					"sampler":75,
					"target":{
						"node":34,
						"path":"translation"
					}
				},
				{
					"sampler":76,
					"target":{
						"node":34,
						"path":"rotation"
					}
				},
				{
					"sampler":77,
					"target":{
						"node":34,
						"path":"scale"
					}
				},
				{
					"sampler":78,
					"target":{
						"node":25,
						"path":"translation"
					}
				},
				{
					"sampler":79,
					"target":{
						"node":25,
						"path":"rotation"
					}
				},
				{
					"sampler":80,
					"target":{
						"node":25,
						"path":"scale"
					}
				},
				{
					"sampler":81,
					"target":{
						"node":24,
						"path":"translation"
					}
				},
				{
					"sampler":82,
					"target":{
						"node":24,
						"path":"rotation"
					}
				},
				{
					"sampler":83,
					"target":{
						"node":24,
						"path":"scale"
					}
				},
				{
					"sampler":84,
					"target":{
						"node":29,
						"path":"translation"
					}
				},
				{
					"sampler":85,
					"target":{
						"node":29,
						"path":"rotation"
					}
				},
				{
					"sampler":86,
					"target":{
						"node":29,
						"path":"scale"
					}
				},
				{
					"sampler":87,
					"target":{
						"node":26,
						"path":"translation"
					}
				},
				{
					"sampler":88,
					"target":{
						"node":26,
						"path":"rotation"
					}
				},
				{
					"sampler":89,
					"target":{
						"node":26,
						"path":"scale"
					}
				},
				{
					"sampler":90,
					"target":{
						"node":27,
						"path":"translation"
					}
				},
				{
					"sampler":91,
					"target":{
						"node":27,
						"path":"rotation"
					}
				},
				{
					"sampler":92,
					"target":{
						"node":27,
						"path":"scale"
					}
				},
				{
					"sampler":93,
					"target":{
						"node":28,
						"path":"translation"
					}
				},
				{
					"sampler":94,
					"target":{
						"node":28,
						"path":"rotation"
					}
				},
				{
					"sampler":95,
					"target":{
						"node":28,
						"path":"scale"
					}
				},
				{
					"sampler":96,
					"target":{
						"node":33,
						"path":"translation"
					}
				},
				{
					"sampler":97,
					"target":{
						"node":33,
						"path":"rotation"
					}
				},
				{
					"sampler":98,
					"target":{
						"node":33,
						"path":"scale"
					}
				},
				{
					"sampler":99,
					"target":{
						"node":32,
						"path":"translation"
					}
				},
				{
					"sampler":100,
					"target":{
						"node":32,
						"path":"rotation"
					}
				},
				{
					"sampler":101,
					"target":{
						"node":32,
						"path":"scale"
					}
				},
				{
					"sampler":102,
					"target":{
						"node":30,
						"path":"translation"
					}
				},
				{
					"sampler":103,
					"target":{
						"node":30,
						"path":"rotation"
					}
				},
				{
					"sampler":104,
					"target":{
						"node":30,
						"path":"scale"
					}
				},
				{
					"sampler":105,
					"target":{
						"node":31,
						"path":"translation"
					}
				},
				{
					"sampler":106,
					"target":{
						"node":31,
						"path":"rotation"
					}
				},
				{
					"sampler":107,
					"target":{
						"node":31,
						"path":"scale"
					}
				},
				{
					"sampler":108,
					"target":{
						"node":40,
						"path":"translation"
					}
				},
				{
					"sampler":109,
					"target":{
						"node":40,
						"path":"rotation"
					}
				},
				{
					"sampler":110,
					"target":{
						"node":40,
						"path":"scale"
					}
				},
				{
					"sampler":111,
					"target":{
						"node":39,
						"path":"translation"
					}
				},
				{
					"sampler":112,
					"target":{
						"node":39,
						"path":"rotation"
					}
				},
				{
					"sampler":113,
					"target":{
						"node":39,
						"path":"scale"
					}
				},
				{
					"sampler":114,
					"target":{
						"node":38,
						"path":"translation"
					}
				},
				{
					"sampler":115,
					"target":{
						"node":38,
						"path":"rotation"
					}
				},
				{
					"sampler":116,
					"target":{
						"node":38,
						"path":"scale"
					}
				},
				{
					"sampler":117,
					"target":{
						"node":37,
						"path":"translation"
					}
				},
				{
					"sampler":118,
					"target":{
						"node":37,
						"path":"rotation"
					}
				},
				{
					"sampler":119,
					"target":{
						"node":37,
						"path":"scale"
					}
				},
				{
					"sampler":120,
					"target":{
						"node":36,
						"path":"translation"
					}
				},
				{
					"sampler":121,
					"target":{
						"node":36,
						"path":"rotation"
					}
				},
				{
					"sampler":122,
					"target":{
						"node":36,
						"path":"scale"
					}
				},
				{
					"sampler":123,
					"target":{
						"node":35,
						"path":"translation"
					}
				},
				{
					"sampler":124,
					"target":{
						"node":35,
						"path":"rotation"
					}
				},
				{
					"sampler":125,
					"target":{
						"node":35,
						"path":"scale"
					}
				},
				{
					"sampler":126,
					"target":{
						"node":46,
						"path":"translation"
					}
				},
				{
					"sampler":127,
					"target":{
						"node":46,
						"path":"rotation"
					}
				},
				{
					"sampler":128,
					"target":{
						"node":46,
						"path":"scale"
					}
				},
				{
					"sampler":129,
					"target":{
						"node":45,
						"path":"translation"
					}
				},
				{
					"sampler":130,
					"target":{
						"node":45,
						"path":"rotation"
					}
				},
				{
					"sampler":131,
					"target":{
						"node":45,
						"path":"scale"
					}
				},
				{
					"sampler":132,
					"target":{
						"node":44,
						"path":"translation"
					}
				},
				{
					"sampler":133,
					"target":{
						"node":44,
						"path":"rotation"
					}
				},
				{
					"sampler":134,
					"target":{
						"node":44,
						"path":"scale"
					}
				},
				{
					"sampler":135,
					"target":{
						"node":43,
						"path":"translation"
					}
				},
				{
					"sampler":136,
					"target":{
						"node":43,
						"path":"rotation"
					}
				},
				{
					"sampler":137,
					"target":{
						"node":43,
						"path":"scale"
					}
				},
				{
					"sampler":138,
					"target":{
						"node":42,
						"path":"translation"
					}
				},
				{
					"sampler":139,
					"target":{
						"node":42,
						"path":"rotation"
					}
				},
				{
					"sampler":140,
					"target":{
						"node":42,
						"path":"scale"
					}
				},
				{
					"sampler":141,
					"target":{
						"node":41,
						"path":"translation"
					}
				},
				{
					"sampler":142,
					"target":{
						"node":41,
						"path":"rotation"
					}
				},
				{
					"sampler":143,
					"target":{
						"node":41,
						"path":"scale"
					}
				}
			],
			"name":"Alien_Caminar",
			"samplers":[
				{
					"input":19,
					"interpolation":"LINEAR",
					"output":20
				},
				{
					"input":21,
					"interpolation":"STEP",
					"output":22
				},
				{
					"input":21,
					"interpolation":"STEP",
					"output":23
				},
				{
					"input":21,
					"interpolation":"STEP",
					"output":24
				},
				{
					"input":19,
					"interpolation":"LINEAR",
					"output":25
				},
				{
					"input":21,
					"interpolation":"STEP",
					"output":23
				},
				{
					"input":21,
					"interpolation":"STEP",
					"output":26
				},
				{
					"input":19,
					"interpolation":"LINEAR",
					"output":27
				},
				{
					"input":21,
					"interpolation":"STEP",
					"output":28
				},
				{
					"input":21,
					"interpolation":"STEP",
					"output":29
				},
				{
					"input":19,
					"interpolation":"LINEAR",
					"output":30
				},
				{
					"input":21,
					"interpolation":"STEP",
					"output":31
				},
				{
					"input":21,
					"interpolation":"STEP",
					"output":32
				},
				{
					"input":19,
					"interpolation":"LINEAR",
					"output":33
				},
				{
					"input":21,
					"interpolation":"STEP",
					"output":34
				},
				{
					"input":21,
					"interpolation":"STEP",
					"output":35
				},
				{
					"input":19,
					"interpolation":"LINEAR",
					"output":36
				},
				{
					"input":21,
					"interpolation":"STEP",
					"output":31
				},
				{
					"input":21,
					"interpolation":"STEP",
					"output":37
				},
				{
					"input":19,
					"interpolation":"LINEAR",
					"output":38
				},
				{
					"input":21,
					"interpolation":"STEP",
					"output":39
				},
				{
					"input":21,
					"interpolation":"STEP",
					"output":40
				},
				{
					"input":21,
					"interpolation":"STEP",
					"output":41
				},
				{
					"input":21,
					"interpolation":"STEP",
					"output":42
				},
				{
					"input":21,
					"interpolation":"STEP",
					"output":43
				},
				{
					"input":19,
					"interpolation":"LINEAR",
					"output":44
				},
				{
					"input":21,
					"interpolation":"STEP",
					"output":45
				},
				{
					"input":21,
					"interpolation":"STEP",
					"output":46
				},
				{
					"input":21,
					"interpolation":"STEP",
					"output":47
				},
				{
					"input":21,
					"interpolation":"STEP",
					"output":48
				},
				{
					"input":21,
					"interpolation":"STEP",
					"output":49
				},
				{
					"input":19,
					"interpolation":"LINEAR",
					"output":50
				},
				{
					"input":21,
					"interpolation":"STEP",
					"output":51
				},
				{
					"input":21,
					"interpolation":"STEP",
					"output":52
				},
				{
					"input":21,
					"interpolation":"STEP",
					"output":53
				},
				{
					"input":21,
					"interpolation":"STEP",
					"output":54
				},
				{
					"input":21,
					"interpolation":"STEP",
					"output":55
				},
				{
					"input":19,
					"interpolation":"LINEAR",
					"output":56
				},
				{
					"input":21,
					"interpolation":"STEP",
					"output":57
				},
				{
					"input":21,
					"interpolation":"STEP",
					"output":58
				},
				{
					"input":21,
					"interpolation":"STEP",
					"output":59
				},
				{
					"input":21,
					"interpolation":"STEP",
					"output":60
				},
				{
					"input":21,
					"interpolation":"STEP",
					"output":61
				},
				{
					"input":19,
					"interpolation":"LINEAR",
					"output":62
				},
				{
					"input":21,
					"interpolation":"STEP",
					"output":63
				},
				{
					"input":21,
					"interpolation":"STEP",
					"output":64
				},
				{
					"input":19,
					"interpolation":"LINEAR",
					"output":65
				},
				{
					"input":21,
					"interpolation":"STEP",
					"output":42
				},
				{
					"input":21,
					"interpolation":"STEP",
					"output":66
				},
				{
					"input":19,
					"interpolation":"LINEAR",
					"output":67
				},
				{
					"input":21,
					"interpolation":"STEP",
					"output":68
				},
				{
					"input":21,
					"interpolation":"STEP",
					"output":69
				},
				{
					"input":19,
					"interpolation":"LINEAR",
					"output":70
				},
				{
					"input":21,
					"interpolation":"STEP",
					"output":39
				},
				{
					"input":21,
					"interpolation":"STEP",
					"output":71
				},
				{
					"input":21,
					"interpolation":"STEP",
					"output":72
				},
				{
					"input":21,
					"interpolation":"STEP",
					"output":73
				},
				{
					"input":21,
					"interpolation":"STEP",
					"output":74
				},
				{
					"input":19,
					"interpolation":"LINEAR",
					"output":75
				},
				{
					"input":21,
					"interpolation":"STEP",
					"output":76
				},
				{
					"input":21,
					"interpolation":"STEP",
					"output":77
				},
				{
					"input":19,
					"interpolation":"LINEAR",
					"output":78
				},
				{
					"input":21,
					"interpolation":"STEP",
					"output":68
				},
				{
					"input":21,
					"interpolation":"STEP",
					"output":79
				},
				{
					"input":19,
					"interpolation":"LINEAR",
					"output":80
				},
				{
					"input":21,
					"interpolation":"STEP",
					"output":81
				},
				{
					"input":21,
					"interpolation":"STEP",
					"output":82
				},
				{
					"input":19,
					"interpolation":"LINEAR",
					"output":83
				},
				{
					"input":21,
					"interpolation":"STEP",
					"output":39
				},
				{
					"input":21,
					"interpolation":"STEP",
					"output":84
				},
				{
					"input":21,
					"interpolation":"STEP",
					"output":85
				},
				{
					"input":21,
					"interpolation":"STEP",
					"output":86
				},
				{
					"input":21,
					"interpolation":"STEP",
					"output":87
				},
				{
					"input":19,
					"interpolation":"LINEAR",
					"output":88
				},
				{
					"input":21,
					"interpolation":"STEP",
					"output":89
				},
				{
					"input":21,
					"interpolation":"STEP",
					"output":90
				},
				{
					"input":19,
					"interpolation":"LINEAR",
					"output":91
				},
				{
					"input":21,
					"interpolation":"STEP",
					"output":92
				},
				{
					"input":21,
					"interpolation":"STEP",
					"output":93
				},
				{
					"input":21,
					"interpolation":"STEP",
					"output":94
				},
				{
					"input":21,
					"interpolation":"STEP",
					"output":95
				},
				{
					"input":21,
					"interpolation":"STEP",
					"output":96
				},
				{
					"input":21,
					"interpolation":"STEP",
					"output":97
				},
				{
					"input":21,
					"interpolation":"STEP",
					"output":48
				},
				{
					"input":21,
					"interpolation":"STEP",
					"output":98
				},
				{
					"input":21,
					"interpolation":"STEP",
					"output":99
				},
				{
					"input":21,
					"interpolation":"STEP",
					"output":100
				},
				{
					"input":21,
					"interpolation":"STEP",
					"output":101
				},
				{
					"input":21,
					"interpolation":"STEP",
					"output":102
				},
				{
					"input":21,
					"interpolation":"STEP",
					"output":103
				},
				{
					"input":21,
					"interpolation":"STEP",
					"output":104
				},
				{
					"input":21,
					"interpolation":"STEP",
					"output":105
				},
				{
					"input":21,
					"interpolation":"STEP",
					"output":106
				},
				{
					"input":21,
					"interpolation":"STEP",
					"output":107
				},
				{
					"input":21,
					"interpolation":"STEP",
					"output":108
				},
				{
					"input":21,
					"interpolation":"STEP",
					"output":109
				},
				{
					"input":21,
					"interpolation":"STEP",
					"output":110
				},
				{
					"input":21,
					"interpolation":"STEP",
					"output":111
				},
				{
					"input":21,
					"interpolation":"STEP",
					"output":112
				},
				{
					"input":21,
					"interpolation":"STEP",
					"output":113
				},
				{
					"input":21,
					"interpolation":"STEP",
					"output":114
				},
				{
					"input":21,
					"interpolation":"STEP",
					"output":115
				},
				{
					"input":21,
					"interpolation":"STEP",
					"output":116
				},
				{
					"input":21,
					"interpolation":"STEP",
					"output":117
				},
				{
					"input":21,
					"interpolation":"STEP",
					"output":106
				},
				{
					"input":21,
					"interpolation":"STEP",
					"output":118
				},
				{
					"input":21,
					"interpolation":"STEP",
					"output":119
				},
				{
					"input":21,
					"interpolation":"STEP",
					"output":120
				},
				{
					"input":21,
					"interpolation":"STEP",
					"output":121
				},
				{
					"input":21,
					"interpolation":"STEP",
					"output":122
				},
				{
					"input":21,
					"interpolation":"STEP",
					"output":123
				},
				{
					"input":21,
					"interpolation":"STEP",
					"output":124
				},
				{
					"input":19,
					"interpolation":"LINEAR",
					"output":125
				},
				{
					"input":21,
					"interpolation":"STEP",
					"output":126
				},
				{
					"input":21,
					"interpolation":"STEP",
					"output":127
				},
				{
					"input":19,
					"interpolation":"LINEAR",
					"output":128
				},
				{
					"input":21,
					"interpolation":"STEP",
					"output":115
				},
				{
					"input":21,
					"interpolation":"STEP",
					"output":129
				},
				{
					"input":21,
					"interpolation":"STEP",
					"output":130
				},
				{
					"input":21,
					"interpolation":"STEP",
					"output":131
				},
				{
					"input":21,
					"interpolation":"STEP",
					"output":132
				},
				{
					"input":21,
					"interpolation":"STEP",
					"output":133
				},
				{
					"input":21,
					"interpolation":"STEP",
					"output":134
				},
				{
					"input":21,
					"interpolation":"STEP",
					"output":135
				},
				{
					"input":21,
					"interpolation":"STEP",
					"output":136
				},
				{
					"input":21,
					"interpolation":"STEP",
					"output":137
				},
				{
					"input":21,
					"interpolation":"STEP",
					"output":138
				},
				{
					"input":21,
					"interpolation":"STEP",
					"output":139
				},
				{
					"input":21,
					"interpolation":"STEP",
					"output":140
				},
				{
					"input":21,
					"interpolation":"STEP",
					"output":141
				},
				{
					"input":19,
					"interpolation":"LINEAR",
					"output":142
				},
				{
					"input":21,
					"interpolation":"STEP",
					"output":143
				},
				{
					"input":21,
					"interpolation":"STEP",
					"output":144
				},
				{
					"input":19,
					"interpolation":"LINEAR",
					"output":145
				},
				{
					"input":21,
					"interpolation":"STEP",
					"output":146
				},
				{
					"input":21,
					"interpolation":"STEP",
					"output":147
				},
				{
					"input":19,
					"interpolation":"LINEAR",
					"output":148
				},
				{
					"input":21,
					"interpolation":"STEP",
					"output":89
				},
				{
					"input":21,
					"interpolation":"STEP",
					"output":149
				},
				{
					"input":21,
					"interpolation":"STEP",
					"output":150
				},
				{
					"input":21,
					"interpolation":"STEP",
					"output":115
				},
				{
					"input":21,
					"interpolation":"STEP",
					"output":151
				},
				{
					"input":21,
					"interpolation":"STEP",
					"output":152
				},
				{
					"input":21,
					"interpolation":"STEP",
					"output":153
				}
			]
		}
	],
	"materials":[
		{
			"doubleSided":true,
			"name":"alien_u0v0",
			"normalTexture":{
				"index":0
			},
			"occlusionTexture":{
				"index":1
			},
			"pbrMetallicRoughness":{
				"baseColorTexture":{
					"index":2
				},
				"metallicFactor":0,
				"metallicRoughnessTexture":{
					"index":1
				}
			}
		},
		{
			"doubleSided":true,
			"name":"alien_u0v1",
			"normalTexture":{
				"index":3
			},
			"occlusionTexture":{
				"index":4
			},
			"pbrMetallicRoughness":{
				"baseColorTexture":{
					"index":5
				},
				"metallicRoughnessTexture":{
					"index":4
				}
			}
		},
		{
			"alphaMode":"BLEND",
			"doubleSided":true,
			"extensions":{
				"KHR_materials_transmission":{
					"transmissionFactor":1,
					"transmissionTexture":{
						"index":6
					}
				}
			},
			"name":"alien_u0v2",
			"normalTexture":{
				"index":7
			},
			"occlusionTexture":{
				"index":8
			},
			"pbrMetallicRoughness":{
				"baseColorFactor":[
					0.6855146884918213,
					0.020438652485609055,
					0.022864971309900284,
					1
				],
				"baseColorTexture":{
					"index":9
				},
				"metallicFactor":0,
				"metallicRoughnessTexture":{
					"index":8
				}
			}
		}
	],
	"meshes":[
		{
			"name":"alien_u0v0_alien_u0v0_0",
			"primitives":[
				{
					"attributes":{
						"POSITION":0,
						"NORMAL":1,
						"TEXCOORD_0":2,
						"JOINTS_0":3,
						"WEIGHTS_0":4
					},
					"indices":5,
					"material":0
				}
			]
		},
		{
			"name":"alien_u0v1_alien_u0v1_0",
			"primitives":[
				{
					"attributes":{
						"POSITION":7,
						"NORMAL":8,
						"TEXCOORD_0":9,
						"JOINTS_0":10,
						"WEIGHTS_0":11
					},
					"indices":12,
					"material":1
				}
			]
		},
		{
			"name":"alien_u0v2_alien_u0v2_0",
			"primitives":[
				{
					"attributes":{
						"POSITION":13,
						"NORMAL":14,
						"TEXCOORD_0":15,
						"JOINTS_0":16,
						"WEIGHTS_0":17
					},
					"indices":18,
					"material":2
				}
			]
		}
	],
	"textures":[
		{
			"sampler":0,
			"source":0
		},
		{
			"sampler":0,
			"source":1
		},
		{
			"sampler":0,
			"source":2
		},
		{
			"sampler":0,
			"source":3
		},
		{
			"sampler":0,
			"source":4
		},
		{
			"sampler":0,
			"source":5
		},
		{
			"sampler":0,
			"source":6
		},
		{
			"sampler":0,
			"source":7
		},
		{
			"sampler":0,
			"source":8
		},
		{
			"sampler":0,
			"source":9
		}
	],
	"images":[
		{
			"mimeType":"image/png",
			"name":"alien_u0v0_normal",
			"uri":"alien_u0v0_normal.png"
		},
		{
			"mimeType":"image/png",
			"name":"alien_u0v0_metallicRoughness",
			"uri":"alien_u0v0_metallicRoughness.png"
		},
		{
			"mimeType":"image/png",
			"name":"alien_u0v0_baseColor",
			"uri":"alien_u0v0_baseColor.png"
		},
		{
			"mimeType":"image/png",
			"name":"alien_u0v1_normal",
			"uri":"alien_u0v1_normal.png"
		},
		{
			"mimeType":"image/png",
			"name":"alien_u0v1_metallicRoughness",
			"uri":"alien_u0v1_metallicRoughness.png"
		},
		{
			"mimeType":"image/png",
			"name":"alien_u0v1_baseColor",
			"uri":"alien_u0v1_baseColor.png"
		},
		{
			"mimeType":"image/png",
			"name":"alien_u0v2_transmission",
			"uri":"alien_u0v2_transmission.png"
		},
		{
			"mimeType":"image/png",
			"name":"alien_u0v2_normal",
			"uri":"alien_u0v2_normal.png"
		},
		{
			"mimeType":"image/png",
			"name":"alien_u0v2_metallicRoughness",
			"uri":"alien_u0v2_metallicRoughness.png"
		},
		{
			"mimeType":"image/png",
			"name":"alien_u0v2_baseColor",
			"uri":"alien_u0v2_baseColor.png"
		}
	],
	"skins":[
		{
			"inverseBindMatrices":6,
			"joints":[
				49,
				13,
				12,
				11,
				10,
				9,
				8,
				7,
				6,
				5,
				4,
				3,
				2,
				18,
				17,
				16,
				14,
				15,
				23,
				22,
				21,
				19,
				20,
				48,
				47,
				34,
				25,
				24,
				29,
				26,
				27,
				28,
				33,
				32,
				30,
				31,
				40,
				39,
				38,
				37,
				36,
				35,
				46,
				45,
				44,
				43,
				42,
				41,
				50
			],
			"name":"Esqueleto"
		}
	],
	"accessors":[
		{
			"bufferView":0,
			"componentType":5126,
			"count":11233,
			"max":[
				1.5214025974273682,
				6.111865997314453,
				1.989630937576294
			],
			"min":[
				-1.4022479057312012,
				2.6442813873291016,
				-5.162377834320068
			],
			"type":"VEC3"
		},
		{
			"bufferView":1,
			"componentType":5126,
			"count":11233,
			"type":"VEC3"
		},
		{
			"bufferView":2,
			"componentType":5126,
			"count":11233,
			"type":"VEC2"
		},
		{
			"bufferView":3,
			"componentType":5121,
			"count":11233,
			"type":"VEC4"
		},
		{
			"bufferView":4,
			"componentType":5126,
			"count":11233,
			"type":"VEC4"
		},
		{
			"bufferView":5,
			"componentType":5123,
			"count":62454,
			"type":"SCALAR"
		},
		{
			"bufferView":6,
			"componentType":5126,
			"count":49,
			"type":"MAT4"
		},
		{
			"bufferView":7,
			"componentType":5126,
			"count":8104,
			"max":[
				1.742354154586792,
				5.147777080535889,
				1.9500739574432373
			],
			"min":[
				-1.5179388523101807,
				-0.07939696311950684,
				-2.8181912899017334
			],
			"type":"VEC3"
		},
		{
			"bufferView":8,
			"componentType":5126,
			"count":8104,
			"type":"VEC3"
		},
		{
			"bufferView":9,
			"componentType":5126,
			"count":8104,
			"type":"VEC2"
		},
		{
			"bufferView":10,
			"componentType":5121,
			"count":8104,
			"type":"VEC4"
		},
		{
			"bufferView":11,
			"componentType":5126,
			"count":8104,
			"type":"VEC4"
		},
		{
			"bufferView":12,
			"componentType":5123,
			"count":42624,
			"type":"SCALAR"
		},
		{
			"bufferView":13,
			"componentType":5126,
			"count":980,
			"max":[
				0.5879892706871033,
				6.159816265106201,
				2.035590410232544
			],
			"min":[
				-0.7422521114349365,
				4.732290267944336,
				-0.5647455453872681
			],
			"type":"VEC3"
		},
		{
			"bufferView":14,
			"componentType":5126,
			"count":980,
			"type":"VEC3"
		},
		{
			"bufferView":15,
			"componentType":5126,
			"count":980,
			"type":"VEC2"
		},
		{
			"bufferView":16,
			"componentType":5121,
			"count":980,
			"type":"VEC4"
		},
		{
			"bufferView":17,
			"componentType":5126,
			"count":980,
			"type":"VEC4"
		},
		{
			"bufferView":18,
			"componentType":5123,
			"count":5472,
			"type":"SCALAR"
		},
		{
			"bufferView":19,
			"componentType":5126,
			"count":17,
			"max":[
				0.7083333333333334
			],
			"min":[
				0.041666666666666664
			],
			"type":"SCALAR"
		},
		{
			"bufferView":20,
			"componentType":5126,
			"count":17,
			"type":"VEC3"
		},
		{
			"bufferView":21,
			"componentType":5126,
			"count":2,
			"max":[
				0.7083333333333334
			],
			"min":[
				0.041666666666666664
			],
			"type":"SCALAR"
		},
		{
			"bufferView":22,
			"componentType":5126,
			"count":2,
			"type":"VEC4"
		},
		{
			"bufferView":23,
			"componentType":5126,
			"count":2,
			"type":"VEC3"
		},
		{
			"bufferView":24,
			"componentType":5126,
			"count":2,
			"type":"VEC3"
		},
		{
			"bufferView":25,
			"componentType":5126,
			"count":17,
			"type":"VEC4"
		},
		{
			"bufferView":26,
			"componentType":5126,
			"count":2,
			"type":"VEC3"
		},
		{
			"bufferView":27,
			"componentType":5126,
			"count":17,
			"type":"VEC4"
		},
		{
			"bufferView":28,
			"componentType":5126,
			"count":2,
			"type":"VEC3"
		},
		{
			"bufferView":29,
			"componentType":5126,
			"count":2,
			"type":"VEC3"
		},
		{
			"bufferView":30,
			"componentType":5126,
			"count":17,
			"type":"VEC4"
		},
		{
			"bufferView":31,
			"componentType":5126,
			"count":2,
			"type":"VEC3"
		},
		{
			"bufferView":32,
			"componentType":5126,
			"count":2,
			"type":"VEC3"
		},
		{
			"bufferView":33,
			"componentType":5126,
			"count":17,
			"type":"VEC4"
		},
		{
			"bufferView":34,
			"componentType":5126,
			"count":2,
			"type":"VEC3"
		},
		{
			"bufferView":35,
			"componentType":5126,
			"count":2,
			"type":"VEC3"
		},
		{
			"bufferView":36,
			"componentType":5126,
			"count":17,
			"type":"VEC4"
		},
		{
			"bufferView":37,
			"componentType":5126,
			"count":2,
			"type":"VEC3"
		},
		{
			"bufferView":38,
			"componentType":5126,
			"count":17,
			"type":"VEC4"
		},
		{
			"bufferView":39,
			"componentType":5126,
			"count":2,
			"type":"VEC3"
		},
		{
			"bufferView":40,
			"componentType":5126,
			"count":2,
			"type":"VEC3"
		},
		{
			"bufferView":41,
			"componentType":5126,
			"count":2,
			"type":"VEC4"
		},
		{
			"bufferView":42,
			"componentType":5126,
			"count":2,
			"type":"VEC3"
		},
		{
			"bufferView":43,
			"componentType":5126,
			"count":2,
			"type":"VEC3"
		},
		{
			"bufferView":44,
			"componentType":5126,
			"count":17,
			"type":"VEC4"
		},
		{
			"bufferView":45,
			"componentType":5126,
			"count":2,
			"type":"VEC3"
		},
		{
			"bufferView":46,
			"componentType":5126,
			"count":2,
			"type":"VEC3"
		},
		{
			"bufferView":47,
			"componentType":5126,
			"count":2,
			"type":"VEC4"
		},
		{
			"bufferView":48,
			"componentType":5126,
			"count":2,
			"type":"VEC3"
		},
		{
			"bufferView":49,
			"componentType":5126,
			"count":2,
			"type":"VEC3"
		},
		{
			"bufferView":50,
			"componentType":5126,
			"count":17,
			"type":"VEC4"
		},
		{
			"bufferView":51,
			"componentType":5126,
			"count":2,
			"type":"VEC3"
		},
		{
			"bufferView":52,
			"componentType":5126,
			"count":2,
			"type":"VEC3"
		},
		{
			"bufferView":53,
			"componentType":5126,
			"count":2,
			"type":"VEC4"
		},
		{
			"bufferView":54,
			"componentType":5126,
			"count":2,
			"type":"VEC3"
		},
		{
			"bufferView":55,
			"componentType":5126,
			"count":2,
			"type":"VEC3"
		},
		{
			"bufferView":56,
			"componentType":5126,
			"count":17,
			"type":"VEC4"
		},
		{
			"bufferView":57,
			"componentType":5126,
			"count":2,
			"type":"VEC3"
		},
		{
			"bufferView":58,
			"componentType":5126,
			"count":2,
			"type":"VEC3"
		},
		{
			"bufferView":59,
			"componentType":5126,
			"count":2,
			"type":"VEC4"
		},
		{
			"bufferView":60,
			"componentType":5126,
			"count":2,
			"type":"VEC3"
		},
		{
			"bufferView":61,
			"componentType":5126,
			"count":2,
			"type":"VEC3"
		},
		{
			"bufferView":62,
			"componentType":5126,
			"count":17,
			"type":"VEC4"
		},
		{
			"bufferView":63,
			"componentType":5126,
			"count":2,
			"type":"VEC3"
		},
		{
			"bufferView":64,
			"componentType":5126,
			"count":2,
			"type":"VEC3"
		},
		{
			"bufferView":65,
			"componentType":5126,
			"count":17,
			"type":"VEC4"
		},
		{
			"bufferView":66,
			"componentType":5126,
			"count":2,
			"type":"VEC3"
		},
		{
			"bufferView":67,
			"componentType":5126,
			"count":17,
			"type":"VEC4"
		},
		{
			"bufferView":68,
			"componentType":5126,
			"count":2,
			"type":"VEC3"
		},
		{
			"bufferView":69,
			"componentType":5126,
			"count":2,
			"type":"VEC3"
		},
		{
			"bufferView":70,
			"componentType":5126,
			"count":17,
			"type":"VEC4"
		},
		{
			"bufferView":71,
			"componentType":5126,
			"count":2,
			"type":"VEC3"
		},
		{
			"bufferView":72,
			"componentType":5126,
			"count":2,
			"type":"VEC4"
		},
		{
			"bufferView":73,
			"componentType":5126,
			"count":2,
			"type":"VEC3"
		},
		{
			"bufferView":74,
			"componentType":5126,
			"count":2,
			"type":"VEC3"
		},
		{
			"bufferView":75,
			"componentType":5126,
			"count":17,
			"type":"VEC4"
		},
		{
			"bufferView":76,
			"componentType":5126,
			"count":2,
			"type":"VEC3"
		},
		{
			"bufferView":77,
			"componentType":5126,
			"count":2,
			"type":"VEC3"
		},
		{
			"bufferView":78,
			"componentType":5126,
			"count":17,
			"type":"VEC4"
		},
		{
			"bufferView":79,
			"componentType":5126,
			"count":2,
			"type":"VEC3"
		},
		{
			"bufferView":80,
			"componentType":5126,
			"count":17,
			"type":"VEC4"
		},
		{
			"bufferView":81,
			"componentType":5126,
			"count":2,
			"type":"VEC3"
		},
		{
			"bufferView":82,
			"componentType":5126,
			"count":2,
			"type":"VEC3"
		},
		{
			"bufferView":83,
			"componentType":5126,
			"count":17,
			"type":"VEC4"
		},
		{
			"bufferView":84,
			"componentType":5126,
			"count":2,
			"type":"VEC3"
		},
		{
			"bufferView":85,
			"componentType":5126,
			"count":2,
			"type":"VEC4"
		},
		{
			"bufferView":86,
			"componentType":5126,
			"count":2,
			"type":"VEC3"
		},
		{
			"bufferView":87,
			"componentType":5126,
			"count":2,
			"type":"VEC3"
		},
		{
			"bufferView":88,
			"componentType":5126,
			"count":17,
			"type":"VEC4"
		},
		{
			"bufferView":89,
			"componentType":5126,
			"count":2,
			"type":"VEC3"
		},
		{
			"bufferView":90,
			"componentType":5126,
			"count":2,
			"type":"VEC3"
		},
		{
			"bufferView":91,
			"componentType":5126,
			"count":17,
			"type":"VEC4"
		},
		{
			"bufferView":92,
			"componentType":5126,
			"count":2,
			"type":"VEC3"
		},
		{
			"bufferView":93,
			"componentType":5126,
			"count":2,
			"type":"VEC3"
		},
		{
			"bufferView":94,
			"componentType":5126,
			"count":2,
			"type":"VEC4"
		},
		{
			"bufferView":95,
			"componentType":5126,
			"count":2,
			"type":"VEC3"
		},
		{
			"bufferView":96,
			"componentType":5126,
			"count":2,
			"type":"VEC3"
		},
		{
			"bufferView":97,
			"componentType":5126,
			"count":2,
			"type":"VEC4"
		},
		{
			"bufferView":98,
			"componentType":5126,
			"count":2,
			"type":"VEC3"
		},
		{
			"bufferView":99,
			"componentType":5126,
			"count":2,
			"type":"VEC4"
		},
		{
			"bufferView":100,
			"componentType":5126,
			"count":2,
			"type":"VEC3"
		},
		{
			"bufferView":101,
			"componentType":5126,
			"count":2,
			"type":"VEC3"
		},
		{
			"bufferView":102,
			"componentType":5126,
			"count":2,
			"type":"VEC4"
		},
		{
			"bufferView":103,
			"componentType":5126,
			"count":2,
			"type":"VEC3"
		},
		{
			"bufferView":104,
			"componentType":5126,
			"count":2,
			"type":"VEC3"
		},
		{
			"bufferView":105,
			"componentType":5126,
			"count":2,
			"type":"VEC4"
		},
		{
			"bufferView":106,
			"componentType":5126,
			"count":2,
			"type":"VEC3"
		},
		{
			"bufferView":107,
			"componentType":5126,
			"count":2,
			"type":"VEC3"
		},
		{
			"bufferView":108,
			"componentType":5126,
			"count":2,
			"type":"VEC4"
		},
		{
			"bufferView":109,
			"componentType":5126,
			"count":2,
			"type":"VEC3"
		},
		{
			"bufferView":110,
			"componentType":5126,
			"count":2,
			"type":"VEC3"
		},
		{
			"bufferView":111,
			"componentType":5126,
			"count":2,
			"type":"VEC4"
		},
		{
			"bufferView":112,
			"componentType":5126,
			"count":2,
			"type":"VEC3"
		},
		{
			"bufferView":113,
			"componentType":5126,
			"count":2,
			"type":"VEC3"
		},
		{
			"bufferView":114,
			"componentType":5126,
			"count":2,
			"type":"VEC4"
		},
		{
			"bufferView":115,
			"componentType":5126,
			"count":2,
			"type":"VEC3"
		},
		{
			"bufferView":116,
			"componentType":5126,
			"count":2,
			"type":"VEC3"
		},
		{
			"bufferView":117,
			"componentType":5126,
			"count":2,
			"type":"VEC4"
		},
		{
			"bufferView":118,
			"componentType":5126,
			"count":2,
			"type":"VEC3"
		},
		{
			"bufferView":119,
			"componentType":5126,
			"count":2,
			"type":"VEC4"
		},
		{
			"bufferView":120,
			"componentType":5126,
			"count":2,
			"type":"VEC3"
		},
		{
			"bufferView":121,
			"componentType":5126,
			"count":2,
			"type":"VEC3"
		},
		{
			"bufferView":122,
			"componentType":5126,
			"count":2,
			"type":"VEC4"
		},
		{
			"bufferView":123,
			"componentType":5126,
			"count":2,
			"type":"VEC3"
		},
		{
			"bufferView":124,
			"componentType":5126,
			"count":2,
			"type":"VEC3"
		},
		{
			"bufferView":125,
			"componentType":5126,
			"count":17,
			"type":"VEC4"
		},
		{
			"bufferView":126,
			"componentType":5126,
			"count":2,
			"type":"VEC3"
		},
		{
			"bufferView":127,
			"componentType":5126,
			"count":2,
			"type":"VEC3"
		},
		{
			"bufferView":128,
			"componentType":5126,
			"count":17,
			"type":"VEC4"
		},
		{
			"bufferView":129,
			"componentType":5126,
			"count":2,
			"type":"VEC3"
		},
		{
			"bufferView":130,
			"componentType":5126,
			"count":2,
			"type":"VEC4"
		},
		{
			"bufferView":131,
			"componentType":5126,
			"count":2,
			"type":"VEC3"
		},
		{
			"bufferView":132,
			"componentType":5126,
			"count":2,
			"type":"VEC3"
		},
		{
			"bufferView":133,
			"componentType":5126,
			"count":2,
			"type":"VEC4"
		},
		{
			"bufferView":134,
			"componentType":5126,
			"count":2,
			"type":"VEC3"
		},
		{
			"bufferView":135,
			"componentType":5126,
			"count":2,
			"type":"VEC3"
		},
		{
			"bufferView":136,
			"componentType":5126,
			"count":2,
			"type":"VEC4"
		},
		{
			"bufferView":137,
			"componentType":5126,
			"count":2,
			"type":"VEC3"
		},
		{
			"bufferView":138,
			"componentType":5126,
			"count":2,
			"type":"VEC3"
		},
		{
			"bufferView":139,
			"componentType":5126,
			"count":2,
			"type":"VEC4"
		},
		{
			"bufferView":140,
			"componentType":5126,
			"count":2,
			"type":"VEC3"
		},
		{
			"bufferView":141,
			"componentType":5126,
			"count":2,
			"type":"VEC3"
		},
		{
			"bufferView":142,
			"componentType":5126,
			"count":17,
			"type":"VEC4"
		},
		{
			"bufferView":143,
			"componentType":5126,
			"count":2,
			"type":"VEC3"
		},
		{
			"bufferView":144,
			"componentType":5126,
			"count":2,
			"type":"VEC3"
		},
		{
			"bufferView":145,
			"componentType":5126,
			"count":17,
			"type":"VEC4"
		},
		{
			"bufferView":146,
			"componentType":5126,
			"count":2,
			"type":"VEC3"
		},
		{
			"bufferView":147,
			"componentType":5126,
			"count":2,
			"type":"VEC3"
		},
		{
			"bufferView":148,
			"componentType":5126,
			"count":17,
			"type":"VEC4"
		},
		{
			"bufferView":149,
			"componentType":5126,
			"count":2,
			"type":"VEC3"
		},
		{
			"bufferView":150,
			"componentType":5126,
			"count":2,
			"type":"VEC4"
		},
		{
			"bufferView":151,
			"componentType":5126,
			"count":2,
			"type":"VEC3"
		},
		{
			"bufferView":152,
			"componentType":5126,
			"count":2,
			"type":"VEC4"
		},
		{
			"bufferView":153,
			"componentType":5126,
			"count":2,
			"type":"VEC3"
		}
	],
	"bufferViews":[
		{
			"buffer":0,
			"byteLength":134796,
			"byteOffset":0,
			"target":34962
		},
		{
			"buffer":0,
			"byteLength":134796,
			"byteOffset":134796,
			"target":34962
		},
		{
			"buffer":0,
			"byteLength":89864,
			"byteOffset":269592,
			"target":34962
		},
		{
			"buffer":0,
			"byteLength":44932,
			"byteOffset":359456,
			"target":34962
		},
		{
			"buffer":0,
			"byteLength":179728,
			"byteOffset":404388,
			"target":34962
		},
		{
			"buffer":0,
			"byteLength":124908,
			"byteOffset":584116,
			"target":34963
		},
		{
			"buffer":0,
			"byteLength":3136,
			"byteOffset":709024
		},
		{
			"buffer":0,
			"byteLength":97248,
			"byteOffset":712160,
			"target":34962
		},
		{
			"buffer":0,
			"byteLength":97248,
			"byteOffset":809408,
			"target":34962
		},
		{
			"buffer":0,
			"byteLength":64832,
			"byteOffset":906656,
			"target":34962
		},
		{
			"buffer":0,
			"byteLength":32416,
			"byteOffset":971488,
			"target":34962
		},
		{
			"buffer":0,
			"byteLength":129664,
			"byteOffset":1003904,
			"target":34962
		},
		{
			"buffer":0,
			"byteLength":85248,
			"byteOffset":1133568,
			"target":34963
		},
		{
			"buffer":0,
			"byteLength":11760,
			"byteOffset":1218816,
			"target":34962
		},
		{
			"buffer":0,
			"byteLength":11760,
			"byteOffset":1230576,
			"target":34962
		},
		{
			"buffer":0,
			"byteLength":7840,
			"byteOffset":1242336,
			"target":34962
		},
		{
			"buffer":0,
			"byteLength":3920,
			"byteOffset":1250176,
			"target":34962
		},
		{
			"buffer":0,
			"byteLength":15680,
			"byteOffset":1254096,
			"target":34962
		},
		{
			"buffer":0,
			"byteLength":10944,
			"byteOffset":1269776,
			"target":34963
		},
		{
			"buffer":0,
			"byteLength":68,
			"byteOffset":1280720
		},
		{
			"buffer":0,
			"byteLength":204,
			"byteOffset":1280788
		},
		{
			"buffer":0,
			"byteLength":8,
			"byteOffset":1280992
		},
		{
			"buffer":0,
			"byteLength":32,
			"byteOffset":1281000
		},
		{
			"buffer":0,
			"byteLength":24,
			"byteOffset":1281032
		},
		{
			"buffer":0,
			"byteLength":24,
			"byteOffset":1281056
		},
		{
			"buffer":0,
			"byteLength":272,
			"byteOffset":1281080
		},
		{
			"buffer":0,
			"byteLength":24,
			"byteOffset":1281352
		},
		{
			"buffer":0,
			"byteLength":272,
			"byteOffset":1281376
		},
		{
			"buffer":0,
			"byteLength":24,
			"byteOffset":1281648
		},
		{
			"buffer":0,
			"byteLength":24,
			"byteOffset":1281672
		},
		{
			"buffer":0,
			"byteLength":272,
			"byteOffset":1281696
		},
		{
			"buffer":0,
			"byteLength":24,
			"byteOffset":1281968
		},
		{
			"buffer":0,
			"byteLength":24,
			"byteOffset":1281992
		},
		{
			"buffer":0,
			"byteLength":272,
			"byteOffset":1282016
		},
		{
			"buffer":0,
			"byteLength":24,
			"byteOffset":1282288
		},
		{
			"buffer":0,
			"byteLength":24,
			"byteOffset":1282312
		},
		{
			"buffer":0,
			"byteLength":272,
			"byteOffset":1282336
		},
		{
			"buffer":0,
			"byteLength":24,
			"byteOffset":1282608
		},
		{
			"buffer":0,
			"byteLength":272,
			"byteOffset":1282632
		},
		{
			"buffer":0,
			"byteLength":24,
			"byteOffset":1282904
		},
		{
			"buffer":0,
			"byteLength":24,
			"byteOffset":1282928
		},
		{
			"buffer":0,
			"byteLength":32,
			"byteOffset":1282952
		},
		{
			"buffer":0,
			"byteLength":24,
			"byteOffset":1282984
		},
		{
			"buffer":0,
			"byteLength":24,
			"byteOffset":1283008
		},
		{
			"buffer":0,
			"byteLength":272,
			"byteOffset":1283032
		},
		{
			"buffer":0,
			"byteLength":24,
			"byteOffset":1283304
		},
		{
			"buffer":0,
			"byteLength":24,
			"byteOffset":1283328
		},
		{
			"buffer":0,
			"byteLength":32,
			"byteOffset":1283352
		},
		{
			"buffer":0,
			"byteLength":24,
			"byteOffset":1283384
		},
		{
			"buffer":0,
			"byteLength":24,
			"byteOffset":1283408
		},
		{
			"buffer":0,
			"byteLength":272,
			"byteOffset":1283432
		},
		{
			"buffer":0,
			"byteLength":24,
			"byteOffset":1283704
		},
		{
			"buffer":0,
			"byteLength":24,
			"byteOffset":1283728
		},
		{
			"buffer":0,
			"byteLength":32,
			"byteOffset":1283752
		},
		{
			"buffer":0,
			"byteLength":24,
			"byteOffset":1283784
		},
		{
			"buffer":0,
			"byteLength":24,
			"byteOffset":1283808
		},
		{
			"buffer":0,
			"byteLength":272,
			"byteOffset":1283832
		},
		{
			"buffer":0,
			"byteLength":24,
			"byteOffset":1284104
		},
		{
			"buffer":0,
			"byteLength":24,
			"byteOffset":1284128
		},
		{
			"buffer":0,
			"byteLength":32,
			"byteOffset":1284152
		},
		{
			"buffer":0,
			"byteLength":24,
			"byteOffset":1284184
		},
		{
			"buffer":0,
			"byteLength":24,
			"byteOffset":1284208
		},
		{
			"buffer":0,
			"byteLength":272,
			"byteOffset":1284232
		},
		{
			"buffer":0,
			"byteLength":24,
			"byteOffset":1284504
		},
		{
			"buffer":0,
			"byteLength":24,
			"byteOffset":1284528
		},
		{
			"buffer":0,
			"byteLength":272,
			"byteOffset":1284552
		},
		{
			"buffer":0,
			"byteLength":24,
			"byteOffset":1284824
		},
		{
			"buffer":0,
			"byteLength":272,
			"byteOffset":1284848
		},
		{
			"buffer":0,
			"byteLength":24,
			"byteOffset":1285120
		},
		{
			"buffer":0,
			"byteLength":24,
			"byteOffset":1285144
		},
		{
			"buffer":0,
			"byteLength":272,
			"byteOffset":1285168
		},
		{
			"buffer":0,
			"byteLength":24,
			"byteOffset":1285440
		},
		{
			"buffer":0,
			"byteLength":32,
			"byteOffset":1285464
		},
		{
			"buffer":0,
			"byteLength":24,
			"byteOffset":1285496
		},
		{
			"buffer":0,
			"byteLength":24,
			"byteOffset":1285520
		},
		{
			"buffer":0,
			"byteLength":272,
			"byteOffset":1285544
		},
		{
			"buffer":0,
			"byteLength":24,
			"byteOffset":1285816
		},
		{
			"buffer":0,
			"byteLength":24,
			"byteOffset":1285840
		},
		{
			"buffer":0,
			"byteLength":272,
			"byteOffset":1285864
		},
		{
			"buffer":0,
			"byteLength":24,
			"byteOffset":1286136
		},
		{
			"buffer":0,
			"byteLength":272,
			"byteOffset":1286160
		},
		{
			"buffer":0,
			"byteLength":24,
			"byteOffset":1286432
		},
		{
			"buffer":0,
			"byteLength":24,
			"byteOffset":1286456
		},
		{
			"buffer":0,
			"byteLength":272,
			"byteOffset":1286480
		},
		{
			"buffer":0,
			"byteLength":24,
			"byteOffset":1286752
		},
		{
			"buffer":0,
			"byteLength":32,
			"byteOffset":1286776
		},
		{
			"buffer":0,
			"byteLength":24,
			"byteOffset":1286808
		},
		{
			"buffer":0,
			"byteLength":24,
			"byteOffset":1286832
		},
		{
			"buffer":0,
			"byteLength":272,
			"byteOffset":1286856
		},
		{
			"buffer":0,
			"byteLength":24,
			"byteOffset":1287128
		},
		{
			"buffer":0,
			"byteLength":24,
			"byteOffset":1287152
		},
		{
			"buffer":0,
			"byteLength":272,
			"byteOffset":1287176
		},
		{
			"buffer":0,
			"byteLength":24,
			"byteOffset":1287448
		},
		{
			"buffer":0,
			"byteLength":24,
			"byteOffset":1287472
		},
		{
			"buffer":0,
			"byteLength":32,
			"byteOffset":1287496
		},
		{
			"buffer":0,
			"byteLength":24,
			"byteOffset":1287528
		},
		{
			"buffer":0,
			"byteLength":24,
			"byteOffset":1287552
		},
		{
			"buffer":0,
			"byteLength":32,
			"byteOffset":1287576
		},
		{
			"buffer":0,
			"byteLength":24,
			"byteOffset":1287608
		},
		{
			"buffer":0,
			"byteLength":32,
			"byteOffset":1287632
		},
		{
			"buffer":0,
			"byteLength":24,
			"byteOffset":1287664
		},
		{
			"buffer":0,
			"byteLength":24,
			"byteOffset":1287688
		},
		{
			"buffer":0,
			"byteLength":32,
			"byteOffset":1287712
		},
		{
			"buffer":0,
			"byteLength":24,
			"byteOffset":1287744
		},
		{
			"buffer":0,
			"byteLength":24,
			"byteOffset":1287768
		},
		{
			"buffer":0,
			"byteLength":32,
			"byteOffset":1287792
		},
		{
			"buffer":0,
			"byteLength":24,
			"byteOffset":1287824
		},
		{
			"buffer":0,
			"byteLength":24,
			"byteOffset":1287848
		},
		{
			"buffer":0,
			"byteLength":32,
			"byteOffset":1287872
		},
		{
			"buffer":0,
			"byteLength":24,
			"byteOffset":1287904
		},
		{
			"buffer":0,
			"byteLength":24,
			"byteOffset":1287928
		},
		{
			"buffer":0,
			"byteLength":32,
			"byteOffset":1287952
		},
		{
			"buffer":0,
			"byteLength":24,
			"byteOffset":1287984
		},
		{
			"buffer":0,
			"byteLength":24,
			"byteOffset":1288008
		},
		{
			"buffer":0,
			"byteLength":32,
			"byteOffset":1288032
		},
		{
			"buffer":0,
			"byteLength":24,
			"byteOffset":1288064
		},
		{
			"buffer":0,
			"byteLength":24,
			"byteOffset":1288088
		},
		{
			"buffer":0,
			"byteLength":32,
			"byteOffset":1288112
		},
		{
			"buffer":0,
			"byteLength":24,
			"byteOffset":1288144
		},
		{
			"buffer":0,
			"byteLength":32,
			"byteOffset":1288168
		},
		{
			"buffer":0,
			"byteLength":24,
			"byteOffset":1288200
		},
		{
			"buffer":0,
			"byteLength":24,
			"byteOffset":1288224
		},
		{
			"buffer":0,
			"byteLength":32,
			"byteOffset":1288248
		},
		{
			"buffer":0,
			"byteLength":24,
			"byteOffset":1288280
		},
		{
			"buffer":0,
			"byteLength":24,
			"byteOffset":1288304
		},
		{
			"buffer":0,
			"byteLength":272,
			"byteOffset":1288328
		},
		{
			"buffer":0,
			"byteLength":24,
			"byteOffset":1288600
		},
		{
			"buffer":0,
			"byteLength":24,
			"byteOffset":1288624
		},
		{
			"buffer":0,
			"byteLength":272,
			"byteOffset":1288648
		},
		{
			"buffer":0,
			"byteLength":24,
			"byteOffset":1288920
		},
		{
			"buffer":0,
			"byteLength":32,
			"byteOffset":1288944
		},
		{
			"buffer":0,
			"byteLength":24,
			"byteOffset":1288976
		},
		{
			"buffer":0,
			"byteLength":24,
			"byteOffset":1289000
		},
		{
			"buffer":0,
			"byteLength":32,
			"byteOffset":1289024
		},
		{
			"buffer":0,
			"byteLength":24,
			"byteOffset":1289056
		},
		{
			"buffer":0,
			"byteLength":24,
			"byteOffset":1289080
		},
		{
			"buffer":0,
			"byteLength":32,
			"byteOffset":1289104
		},
		{
			"buffer":0,
			"byteLength":24,
			"byteOffset":1289136
		},
		{
			"buffer":0,
			"byteLength":24,
			"byteOffset":1289160
		},
		{
			"buffer":0,
			"byteLength":32,
			"byteOffset":1289184
		},
		{
			"buffer":0,
			"byteLength":24,
			"byteOffset":1289216
		},
		{
			"buffer":0,
			"byteLength":24,
			"byteOffset":1289240
		},
		{
			"buffer":0,
			"byteLength":272,
			"byteOffset":1289264
		},
		{
			"buffer":0,
			"byteLength":24,
			"byteOffset":1289536
		},
		{
			"buffer":0,
			"byteLength":24,
			"byteOffset":1289560
		},
		{
			"buffer":0,
			"byteLength":272,
			"byteOffset":1289584
		},
		{
			"buffer":0,
			"byteLength":24,
			"byteOffset":1289856
		},
		{
			"buffer":0,
			"byteLength":24,
			"byteOffset":1289880
		},
		{
			"buffer":0,
			"byteLength":272,
			"byteOffset":1289904
		},
		{
			"buffer":0,
			"byteLength":24,
			"byteOffset":1290176
		},
		{
			"buffer":0,
			"byteLength":32,
			"byteOffset":1290200
		},
		{
			"buffer":0,
			"byteLength":24,
			"byteOffset":1290232
		},
		{
			"buffer":0,
			"byteLength":32,
			"byteOffset":1290256
		},
		{
			"buffer":0,
			"byteLength":24,
			"byteOffset":1290288
		}
	],
	"samplers":[
		{
			"magFilter":9729,
			"minFilter":9987
		}
	],
	"buffers":[
		{
			"byteLength":1290312,
			"uri":"Alien.bin"
		}
	]
}
