{
	"asset":{
		"generator":"Khronos glTF Blender I/O v5.0.21",
		"version":"2.0"
	},
	"scene":0,
	"scenes":[
		{
			"name":"Scene",
			"nodes":[
				11
			]
		}
	],
	"nodes":[
		{
			"mesh":0,
			"name":"Object_10",
			"translation":[
				7.62939453125e-06,
				-2.771002982626669e-06,
				-1.9153649191139266e-05
			]
		},
		{
			"mesh":1,
			"name":"Object_11",
			"translation":[
				7.62939453125e-06,
				-2.771002982626669e-06,
				-1.9153649191139266e-05
			]
		},
		{
			"mesh":2,
			"name":"Object_2",
			"translation":[
				7.62939453125e-06,
				-2.771002982626669e-06,
				-1.9153649191139266e-05
			]
		},
		{
			"mesh":3,
			"name":"Object_3",
			"translation":[
				7.62939453125e-06,
				-2.771002982626669e-06,
				-1.9153649191139266e-05
			]
		},
		{
			"mesh":4,
			"name":"Object_4",
			"translation":[
				7.62939453125e-06,
				-2.771002982626669e-06,
				-1.9153649191139266e-05
			]
		},
		{
			"mesh":5,
			"name":"Object_5",
			"translation":[
				7.62939453125e-06,
				-2.771002982626669e-06,
				-1.9153649191139266e-05
			]
		},
		{
			"mesh":6,
			"name":"Object_6",
			"translation":[
				7.62939453125e-06,
				-2.771002982626669e-06,
				-1.9153649191139266e-05
			]
		},
		{
			"mesh":7,
			"name":"Object_7",
			"translation":[
				7.62939453125e-06,
				-2.771002982626669e-06,
				-1.9153649191139266e-05
			]
		},
		{
			"mesh":8,
			"name":"Object_8",
			"translation":[
				7.62939453125e-06,
				-2.771002982626669e-06,
				-1.9153649191139266e-05
			]
		},
		{
			"mesh":9,
			"name":"Object_9",
			"translation":[
				7.62939453125e-06,
				-2.771002982626669e-06,
				-1.9153649191139266e-05
			]
		},
		{
			"children":[
				0,
				1,
				2,
				3,
				4,
				5,
				6,
				7,
				8,
				9
			],
			"name":"finalassemble.obj.cleaner.gles",
			"translation":[
				7.62939453125e-06,
				-2.771002982626669e-06,
				-1.9153649191139266e-05
			]
		},
		{
			"children":[
				10
			],
			"name":"Sketchfab_model",
			"rotation":[
				-0.70710688829422,
				0,
				0,
				0.7071066498756409
			],
			"scale":[
				0.05160694196820259,
				0.05160694941878319,
				0.05160694941878319
			],
			"translation":[
				2.7918825149536133,
				10.588249206542969,
				1.4960075616836548
			]
		}
	],
	"materials":[
		{
			"doubleSided":true,
			"emissiveFactor":[
				1,
				1,
				1
			],
			"emissiveTexture":{
				"index":0
			},
			"name":"FLOORS",
			"normalTexture":{
				"index":1
			},
			"pbrMetallicRoughness":{
				"baseColorTexture":{
					"index":2
				},
				"metallicRoughnessTexture":{
					"index":3
				}
			}
		},
		{
			"doubleSided":true,
			"name":"WALLS",
			"normalTexture":{
				"index":4
			},
			"pbrMetallicRoughness":{
				"baseColorTexture":{
					"index":5
				},
				"metallicRoughnessTexture":{
					"index":6
				}
			}
		},
		{
			"alphaMode":"BLEND",
			"doubleSided":true,
			"name":"SHELL",
			"normalTexture":{
				"index":7
			},
			"pbrMetallicRoughness":{
				"baseColorTexture":{
					"index":8
				},
				"metallicRoughnessTexture":{
					"index":9
				}
			}
		},
		{
			"doubleSided":true,
			"emissiveFactor":[
				0.30000001192092896,
				0.30000001192092896,
				0.30000001192092896
			],
			"emissiveTexture":{
				"index":10
			},
			"name":"TERMINAL",
			"normalTexture":{
				"index":11
			},
			"pbrMetallicRoughness":{
				"baseColorTexture":{
					"index":12
				},
				"metallicRoughnessTexture":{
					"index":13
				}
			}
		},
		{
			"doubleSided":true,
			"emissiveFactor":[
				0.8999999761581421,
				0.8999999761581421,
				0.8999999761581421
			],
			"emissiveTexture":{
				"index":14
			},
			"name":"WALLEND",
			"normalTexture":{
				"index":15
			},
			"pbrMetallicRoughness":{
				"baseColorTexture":{
					"index":16
				},
				"metallicRoughnessTexture":{
					"index":17
				}
			}
		},
		{
			"alphaMode":"BLEND",
			"doubleSided":true,
			"name":"default",
			"normalTexture":{
				"index":18
			},
			"pbrMetallicRoughness":{
				"baseColorTexture":{
					"index":19
				},
				"metallicRoughnessTexture":{
					"index":20
				}
			}
		}
	],
	"meshes":[
		{
			"name":"Object_8",
			"primitives":[
				{
					"attributes":{
						"POSITION":0,
						"NORMAL":1,
						"TEXCOORD_0":2
					},
					"indices":3,
					"material":0
				}
			]
		},
		{
			"name":"Object_9",
			"primitives":[
				{
					"attributes":{
						"POSITION":4,
						"NORMAL":5,
						"TEXCOORD_0":6
					},
					"indices":7,
					"material":1
				}
			]
		},
		{
			"name":"Object_0",
			"primitives":[
				{
					"attributes":{
						"POSITION":8,
						"NORMAL":9,
						"TEXCOORD_0":10
					},
					"indices":11,
					"material":2
				}
			]
		},
		{
			"name":"Object_1",
			"primitives":[
				{
					"attributes":{
						"POSITION":12,
						"NORMAL":13,
						"TEXCOORD_0":14
					},
					"indices":15,
					"material":3
				}
			]
		},
		{
			"name":"Object_2",
			"primitives":[
				{
					"attributes":{
						"POSITION":16,
						"NORMAL":17,
						"TEXCOORD_0":18
					},
					"indices":19,
					"material":4
				}
			]
		},
		{
			"name":"Object_3",
			"primitives":[
				{
					"attributes":{
						"POSITION":20,
						"NORMAL":21,
						"TEXCOORD_0":22
					},
					"indices":23,
					"material":5
				}
			]
		},
		{
			"name":"Object_4",
			"primitives":[
				{
					"attributes":{
						"POSITION":24,
						"NORMAL":25,
						"TEXCOORD_0":26
					},
					"indices":27,
					"material":0
				}
			]
		},
		{
			"name":"Object_5",
			"primitives":[
				{
					"attributes":{
						"POSITION":28,
						"NORMAL":29,
						"TEXCOORD_0":30
					},
					"indices":31,
					"material":0
				}
			]
		},
		{
			"name":"Object_6",
			"primitives":[
				{
					"attributes":{
						"POSITION":32,
						"NORMAL":33,
						"TEXCOORD_0":34
					},
					"indices":35,
					"material":0
				}
			]
		},
		{
			"name":"Object_7",
			"primitives":[
				{
					"attributes":{
						"POSITION":36,
						"NORMAL":37,
						"TEXCOORD_0":38
					},
					"indices":39,
					"material":0
				}
			]
		}
	],
	"textures":[
		{
			"sampler":0,
			"source":0
		},
		{
			"sampler":0,
			"source":1
		},
		{
			"sampler":0,
			"source":2
		},
		{
			"sampler":0,
			"source":3
		},
		{
			"sampler":0,
			"source":4
		},
		{
			"sampler":0,
			"source":5
		},
		{
			"sampler":0,
			"source":6
		},
		{
			"sampler":0,
			"source":7
		},
		{
			"sampler":0,
			"source":8
		},
		{
			"sampler":0,
			"source":9
		},
		{
			"sampler":0,
			"source":10
		},
		{
			"sampler":0,
			"source":11
		},
		{
			"sampler":0,
			"source":12
		},
		{
			"sampler":0,
			"source":13
		},
		{
			"sampler":0,
			"source":14
		},
		{
			"sampler":0,
			"source":15
		},
		{
			"sampler":0,
			"source":16
		},
		{
			"sampler":0,
			"source":17
		},
		{
			"sampler":0,
			"source":18
		},
		{
			"sampler":0,
			"source":19
		},
		{
			"sampler":0,
			"source":20
		}
	],
	"images":[
		{
			"mimeType":"image/png",
			"name":"FLOORS_emissive",
			"uri":"FLOORS_emissive.png"
		},
		{
			"mimeType":"image/png",
			"name":"FLOORS_normal",
			"uri":"FLOORS_normal.png"
		},
		{
			"mimeType":"image/png",
			"name":"FLOORS_baseColor",
			"uri":"FLOORS_baseColor.png"
		},
		{
			"mimeType":"image/png",
			"name":"FLOORS_metallicRoughness",
			"uri":"FLOORS_metallicRoughness.png"
		},
		{
			"mimeType":"image/png",
			"name":"WALLS_normal",
			"uri":"WALLS_normal.png"
		},
		{
			"mimeType":"image/png",
			"name":"WALLS_baseColor",
			"uri":"WALLS_baseColor.png"
		},
		{
			"mimeType":"image/png",
			"name":"WALLS_metallicRoughness",
			"uri":"WALLS_metallicRoughness.png"
		},
		{
			"mimeType":"image/png",
			"name":"SHELL_normal",
			"uri":"SHELL_normal.png"
		},
		{
			"mimeType":"image/png",
			"name":"SHELL_baseColor",
			"uri":"SHELL_baseColor.png"
		},
		{
			"mimeType":"image/png",
			"name":"SHELL_metallicRoughness",
			"uri":"SHELL_metallicRoughness.png"
		},
		{
			"mimeType":"image/png",
			"name":"TERMINAL_emissive",
			"uri":"TERMINAL_emissive.png"
		},
		{
			"mimeType":"image/png",
			"name":"TERMINAL_normal",
			"uri":"TERMINAL_normal.png"
		},
		{
			"mimeType":"image/png",
			"name":"TERMINAL_baseColor",
			"uri":"TERMINAL_baseColor.png"
		},
		{
			"mimeType":"image/png",
			"name":"TERMINAL_metallicRoughness",
			"uri":"TERMINAL_metallicRoughness.png"
		},
		{
			"mimeType":"image/png",
			"name":"WALLEND_emissive",
			"uri":"WALLEND_emissive.png"
		},
		{
			"mimeType":"image/png",
			"name":"WALLEND_normal",
			"uri":"WALLEND_normal.png"
		},
		{
			"mimeType":"image/png",
			"name":"WALLEND_baseColor",
			"uri":"WALLEND_baseColor.png"
		},
		{
			"mimeType":"image/png",
			"name":"WALLEND_metallicRoughness",
			"uri":"WALLEND_metallicRoughness.png"
		},
		{
			"mimeType":"image/png",
			"name":"default_normal",
			"uri":"default_normal.png"
		},
		{
			"mimeType":"image/png",
			"name":"default_baseColor",
			"uri":"default_baseColor.png"
		},
		{
			"mimeType":"image/png",
			"name":"default_metallicRoughness",
			"uri":"default_metallicRoughness.png"
		}
	],
	"accessors":[
		{
			"bufferView":0,
			"componentType":5126,
			"count":4993,
			"max":[
				-5.384099960327148,
				-458.0990905761719,
				142.8426971435547
			],
			"min":[
				-278.13629150390625,
				-647.3917846679688,
				-57.05799865722656
			],
			"type":"VEC3"
		},
		{
			"bufferView":1,
			"componentType":5126,
			"count":4993,
			"type":"VEC3"
		},
		{
			"bufferView":2,
			"componentType":5126,
			"count":4993,
			"type":"VEC2"
		},
		{
			"bufferView":3,
			"componentType":5123,
			"count":10968,
			"type":"SCALAR"
		},
		{
			"bufferView":4,
			"componentType":5126,
			"count":2167,
			"max":[
				177.65589904785156,
				-451.5516052246094,
				331.4541931152344
			],
			"min":[
				-329.08758544921875,
				-992.0084228515625,
				-200.44529724121094
			],
			"type":"VEC3"
		},
		{
			"bufferView":5,
			"componentType":5126,
			"count":2167,
			"type":"VEC3"
		},
		{
			"bufferView":6,
			"componentType":5126,
			"count":2167,
			"type":"VEC2"
		},
		{
			"bufferView":7,
			"componentType":5123,
			"count":5802,
			"type":"SCALAR"
		},
		{
			"bufferView":8,
			"componentType":5126,
			"count":681,
			"max":[
				390.22540283203125,
				-100.2396011352539,
				374.3966064453125
			],
			"min":[
				-886.0718994140625,
				-1358.31201171875,
				-369.15460205078125
			],
			"type":"VEC3"
		},
		{
			"bufferView":9,
			"componentType":5126,
			"count":681,
			"type":"VEC3"
		},
		{
			"bufferView":10,
			"componentType":5126,
			"count":681,
			"type":"VEC2"
		},
		{
			"bufferView":11,
			"componentType":5123,
			"count":2274,
			"type":"SCALAR"
		},
		{
			"bufferView":12,
			"componentType":5126,
			"count":2554,
			"max":[
				-209.0471954345703,
				-581.1624145507812,
				130.45480346679688
			],
			"min":[
				-312.54229736328125,
				-764.7083129882812,
				-69.92160034179688
			],
			"type":"VEC3"
		},
		{
			"bufferView":13,
			"componentType":5126,
			"count":2554,
			"type":"VEC3"
		},
		{
			"bufferView":14,
			"componentType":5126,
			"count":2554,
			"type":"VEC2"
		},
		{
			"bufferView":15,
			"componentType":5123,
			"count":9126,
			"type":"SCALAR"
		},
		{
			"bufferView":16,
			"componentType":5126,
			"count":4492,
			"max":[
				-68.8727035522461,
				-453.6174011230469,
				56.88589859008789
			],
			"min":[
				-329.0903015136719,
				-670.347412109375,
				-200.3448944091797
			],
			"type":"VEC3"
		},
		{
			"bufferView":17,
			"componentType":5126,
			"count":4492,
			"type":"VEC3"
		},
		{
			"bufferView":18,
			"componentType":5126,
			"count":4492,
			"type":"VEC2"
		},
		{
			"bufferView":19,
			"componentType":5123,
			"count":18891,
			"type":"SCALAR"
		},
		{
			"bufferView":20,
			"componentType":5126,
			"count":172,
			"max":[
				1579.4791259765625,
				490.8828125,
				287.6637878417969
			],
			"min":[
				-1356.634521484375,
				-2253.947998046875,
				-253.40469360351562
			],
			"type":"VEC3"
		},
		{
			"bufferView":21,
			"componentType":5126,
			"count":172,
			"type":"VEC3"
		},
		{
			"bufferView":22,
			"componentType":5126,
			"count":172,
			"type":"VEC2"
		},
		{
			"bufferView":23,
			"componentType":5123,
			"count":693,
			"type":"SCALAR"
		},
		{
			"bufferView":24,
			"componentType":5126,
			"count":2107,
			"max":[
				158.17430114746094,
				-715.3472290039062,
				317.01470947265625
			],
			"min":[
				-94.606201171875,
				-993.0374145507812,
				36.65439987182617
			],
			"type":"VEC3"
		},
		{
			"bufferView":25,
			"componentType":5126,
			"count":2107,
			"type":"VEC3"
		},
		{
			"bufferView":26,
			"componentType":5126,
			"count":2107,
			"type":"VEC2"
		},
		{
			"bufferView":27,
			"componentType":5123,
			"count":5934,
			"type":"SCALAR"
		},
		{
			"bufferView":28,
			"componentType":5126,
			"count":1831,
			"max":[
				76.7822036743164,
				-723.1619873046875,
				121.74549865722656
			],
			"min":[
				-195.97000122070312,
				-912.4547119140625,
				-78.15519714355469
			],
			"type":"VEC3"
		},
		{
			"bufferView":29,
			"componentType":5126,
			"count":1831,
			"type":"VEC3"
		},
		{
			"bufferView":30,
			"componentType":5126,
			"count":1831,
			"type":"VEC2"
		},
		{
			"bufferView":31,
			"componentType":5123,
			"count":5064,
			"type":"SCALAR"
		},
		{
			"bufferView":32,
			"componentType":5126,
			"count":1834,
			"max":[
				-24.581499099731445,
				-594.5380249023438,
				6.935800075531006
			],
			"min":[
				-297.3337097167969,
				-783.8306274414062,
				-192.9647979736328
			],
			"type":"VEC3"
		},
		{
			"bufferView":33,
			"componentType":5126,
			"count":1834,
			"type":"VEC3"
		},
		{
			"bufferView":34,
			"componentType":5126,
			"count":1834,
			"type":"VEC2"
		},
		{
			"bufferView":35,
			"componentType":5123,
			"count":5064,
			"type":"SCALAR"
		},
		{
			"bufferView":36,
			"componentType":5126,
			"count":5140,
			"max":[
				95.97959899902344,
				-586.7230834960938,
				257.6523132324219
			],
			"min":[
				-176.77259826660156,
				-776.0158081054688,
				57.7515983581543
			],
			"type":"VEC3"
		},
		{
			"bufferView":37,
			"componentType":5126,
			"count":5140,
			"type":"VEC3"
		},
		{
			"bufferView":38,
			"componentType":5126,
			"count":5140,
			"type":"VEC2"
		},
		{
			"bufferView":39,
			"componentType":5123,
			"count":10968,
			"type":"SCALAR"
		}
	],
	"bufferViews":[
		{
			"buffer":0,
			"byteLength":59916,
			"byteOffset":0,
			"target":34962
		},
		{
			"buffer":0,
			"byteLength":59916,
			"byteOffset":59916,
			"target":34962
		},
		{
			"buffer":0,
			"byteLength":39944,
			"byteOffset":119832,
			"target":34962
		},
		{
			"buffer":0,
			"byteLength":21936,
			"byteOffset":159776,
			"target":34963
		},
		{
			"buffer":0,
			"byteLength":26004,
			"byteOffset":181712,
			"target":34962
		},
		{
			"buffer":0,
			"byteLength":26004,
			"byteOffset":207716,
			"target":34962
		},
		{
			"buffer":0,
			"byteLength":17336,
			"byteOffset":233720,
			"target":34962
		},
		{
			"buffer":0,
			"byteLength":11604,
			"byteOffset":251056,
			"target":34963
		},
		{
			"buffer":0,
			"byteLength":8172,
			"byteOffset":262660,
			"target":34962
		},
		{
			"buffer":0,
			"byteLength":8172,
			"byteOffset":270832,
			"target":34962
		},
		{
			"buffer":0,
			"byteLength":5448,
			"byteOffset":279004,
			"target":34962
		},
		{
			"buffer":0,
			"byteLength":4548,
			"byteOffset":284452,
			"target":34963
		},
		{
			"buffer":0,
			"byteLength":30648,
			"byteOffset":289000,
			"target":34962
		},
		{
			"buffer":0,
			"byteLength":30648,
			"byteOffset":319648,
			"target":34962
		},
		{
			"buffer":0,
			"byteLength":20432,
			"byteOffset":350296,
			"target":34962
		},
		{
			"buffer":0,
			"byteLength":18252,
			"byteOffset":370728,
			"target":34963
		},
		{
			"buffer":0,
			"byteLength":53904,
			"byteOffset":388980,
			"target":34962
		},
		{
			"buffer":0,
			"byteLength":53904,
			"byteOffset":442884,
			"target":34962
		},
		{
			"buffer":0,
			"byteLength":35936,
			"byteOffset":496788,
			"target":34962
		},
		{
			"buffer":0,
			"byteLength":37782,
			"byteOffset":532724,
			"target":34963
		},
		{
			"buffer":0,
			"byteLength":2064,
			"byteOffset":570508,
			"target":34962
		},
		{
			"buffer":0,
			"byteLength":2064,
			"byteOffset":572572,
			"target":34962
		},
		{
			"buffer":0,
			"byteLength":1376,
			"byteOffset":574636,
			"target":34962
		},
		{
			"buffer":0,
			"byteLength":1386,
			"byteOffset":576012,
			"target":34963
		},
		{
			"buffer":0,
			"byteLength":25284,
			"byteOffset":577400,
			"target":34962
		},
		{
			"buffer":0,
			"byteLength":25284,
			"byteOffset":602684,
			"target":34962
		},
		{
			"buffer":0,
			"byteLength":16856,
			"byteOffset":627968,
			"target":34962
		},
		{
			"buffer":0,
			"byteLength":11868,
			"byteOffset":644824,
			"target":34963
		},
		{
			"buffer":0,
			"byteLength":21972,
			"byteOffset":656692,
			"target":34962
		},
		{
			"buffer":0,
			"byteLength":21972,
			"byteOffset":678664,
			"target":34962
		},
		{
			"buffer":0,
			"byteLength":14648,
			"byteOffset":700636,
			"target":34962
		},
		{
			"buffer":0,
			"byteLength":10128,
			"byteOffset":715284,
			"target":34963
		},
		{
			"buffer":0,
			"byteLength":22008,
			"byteOffset":725412,
			"target":34962
		},
		{
			"buffer":0,
			"byteLength":22008,
			"byteOffset":747420,
			"target":34962
		},
		{
			"buffer":0,
			"byteLength":14672,
			"byteOffset":769428,
			"target":34962
		},
		{
			"buffer":0,
			"byteLength":10128,
			"byteOffset":784100,
			"target":34963
		},
		{
			"buffer":0,
			"byteLength":61680,
			"byteOffset":794228,
			"target":34962
		},
		{
			"buffer":0,
			"byteLength":61680,
			"byteOffset":855908,
			"target":34962
		},
		{
			"buffer":0,
			"byteLength":41120,
			"byteOffset":917588,
			"target":34962
		},
		{
			"buffer":0,
			"byteLength":21936,
			"byteOffset":958708,
			"target":34963
		}
	],
	"samplers":[
		{
			"magFilter":9729,
			"minFilter":9987
		}
	],
	"buffers":[
		{
			"byteLength":980644,
			"uri":"spaceship.bin"
		}
	]
}
