{
	"asset":{
		"generator":"Khronos glTF Blender I/O v5.0.21",
		"version":"2.0"
	},
	"scene":0,
	"scenes":[
		{
			"name":"Scene",
			"nodes":[
				4
			]
		}
	],
	"nodes":[
		{
			"mesh":0,
			"name":"Plano.002_Material_0"
		},
		{
			"children":[
				0
			],
			"name":"Plano.002",
			"rotation":[
				0,
				0.7071068286895752,
				0.7071068286895752,
				1.3767879636361613e-07
			],
			"scale":[
				100.0000228881836,
				100.00001525878906,
				100.00001525878906
			],
			"translation":[
				-23.12726402282715,
				2.376574754714966,
				-15.41817569732666
			]
		},
		{
			"children":[
				1
			],
			"name":"RootNode"
		},
		{
			"children":[
				2
			],
			"name":"alien egg_low.fbx",
			"rotation":[
				0.70710688829422,
				0,
				0,
				0.7071066498756409
			],
			"scale":[
				0.009999999776482582,
				0.010000000707805157,
				0.010000000707805157
			]
		},
		{
			"children":[
				3
			],
			"name":"Sketchfab_model",
			"rotation":[
				-0.70710688829422,
				0,
				0,
				0.7071066498756409
			]
		}
	],
	"materials":[
		{
			"doubleSided":true,
			"name":"Material.001",
			"normalTexture":{
				"index":0
			},
			"occlusionTexture":{
				"index":1
			},
			"pbrMetallicRoughness":{
				"baseColorTexture":{
					"index":2
				},
				"metallicRoughnessTexture":{
					"index":1
				}
			}
		}
	],
	"meshes":[
		{
			"name":"Plano.002_Material_0",
			"primitives":[
				{
					"attributes":{
						"POSITION":0,
						"NORMAL":1,
						"TEXCOORD_0":2
					},
					"indices":3,
					"material":0
				}
			]
		}
	],
	"textures":[
		{
			"sampler":0,
			"source":0
		},
		{
			"sampler":0,
			"source":1
		},
		{
			"sampler":0,
			"source":2
		}
	],
	"images":[
		{
			"mimeType":"image/png",
			"name":"Material_normal",
			"uri":"Material_normal.png"
		},
		{
			"mimeType":"image/png",
			"name":"Material_metallicRoughness",
			"uri":"Material_metallicRoughness.png"
		},
		{
			"mimeType":"image/png",
			"name":"Material_baseColor",
			"uri":"Material_baseColor.png"
		}
	],
	"accessors":[
		{
			"bufferView":0,
			"componentType":5126,
			"count":7214,
			"max":[
				3.001174211502075,
				3.5928750038146973,
				2.777571678161621
			],
			"min":[
				-3.438816547393799,
				-3.40871000289917,
				-0.16336417198181152
			],
			"type":"VEC3"
		},
		{
			"bufferView":1,
			"componentType":5126,
			"count":7214,
			"type":"VEC3"
		},
		{
			"bufferView":2,
			"componentType":5126,
			"count":7214,
			"type":"VEC2"
		},
		{
			"bufferView":3,
			"componentType":5123,
			"count":37398,
			"type":"SCALAR"
		}
	],
	"bufferViews":[
		{
			"buffer":0,
			"byteLength":86568,
			"byteOffset":0,
			"target":34962
		},
		{
			"buffer":0,
			"byteLength":86568,
			"byteOffset":86568,
			"target":34962
		},
		{
			"buffer":0,
			"byteLength":57712,
			"byteOffset":173136,
			"target":34962
		},
		{
			"buffer":0,
			"byteLength":74796,
			"byteOffset":230848,
			"target":34963
		}
	],
	"samplers":[
		{
			"magFilter":9729,
			"minFilter":9987
		}
	],
	"buffers":[
		{
			"byteLength":305644,
			"uri":"alien_egg.bin"
		}
	]
}
