{
	"asset":{
		"generator":"Khronos glTF Blender I/O v5.0.21",
		"version":"2.0"
	},
	"scene":0,
	"scenes":[
		{
			"name":"Scene",
			"nodes":[
				43
			]
		}
	],
	"nodes":[
		{
			"mesh":0,
			"name":"bava1_corpo_0"
		},
		{
			"children":[
				0
			],
			"name":"bava1"
		},
		{
			"mesh":1,
			"name":"bava2_corpo_0"
		},
		{
			"children":[
				2
			],
			"name":"bava2"
		},
		{
			"mesh":2,
			"name":"pCube10_corpo_0"
		},
		{
			"children":[
				4
			],
			"name":"pCube10"
		},
		{
			"mesh":3,
			"name":"pCube2_corpo_0"
		},
		{
			"children":[
				6
			],
			"name":"pCube2"
		},
		{
			"mesh":4,
			"name":"pCube5_corpo_0"
		},
		{
			"children":[
				8
			],
			"name":"pCube5"
		},
		{
			"mesh":5,
			"name":"pCube6_corpo_0"
		},
		{
			"children":[
				10
			],
			"name":"pCube6"
		},
		{
			"mesh":6,
			"name":"pCube7_corpo_0"
		},
		{
			"children":[
				12
			],
			"name":"pCube7"
		},
		{
			"mesh":7,
			"name":"pCube8_corpo_0"
		},
		{
			"children":[
				14
			],
			"name":"pCube8",
			"scale":[
				0.06259042024612427,
				0.11992954462766647,
				0.06259042024612427
			],
			"translation":[
				11.470305442810059,
				22.71473503112793,
				1.9912890195846558
			]
		},
		{
			"mesh":8,
			"name":"pCube9_corpo_0"
		},
		{
			"children":[
				16
			],
			"name":"pCube9"
		},
		{
			"children":[
				1,
				3,
				5,
				7,
				9,
				11,
				13,
				15,
				17
			],
			"name":"bava"
		},
		{
			"name":"Object_5"
		},
		{
			"mesh":9,
			"name":"Object_6"
		},
		{
			"mesh":10,
			"name":"pCube1_lambert2_0",
			"translation":[
				0,
				0,
				-7.629393167007947e-06
			]
		},
		{
			"children":[
				21
			],
			"name":"pCube1",
			"scale":[
				0.059042736887931824,
				0.20114679634571075,
				0.059042736887931824
			],
			"translation":[
				3.9052746295928955,
				2.0751490592956543,
				-5.880059242248535
			]
		},
		{
			"mesh":11,
			"name":"Piedistallo_basso_lambert2_0"
		},
		{
			"children":[
				23
			],
			"name":"Piedistallo_basso"
		},
		{
			"mesh":12,
			"name":"pPlane10_lambert2_0"
		},
		{
			"children":[
				25
			],
			"name":"pPlane10",
			"rotation":[
				-0.1830126941204071,
				-0.1830126941204071,
				0.6830126643180847,
				0.6830127239227295
			],
			"scale":[
				0.4597547948360443,
				0.4597548246383667,
				0.4597547948360443
			],
			"translation":[
				3.9052746295928955,
				2.3445024490356445,
				-5.880059242248535
			]
		},
		{
			"mesh":13,
			"name":"pPlane11_lambert2_0"
		},
		{
			"children":[
				27
			],
			"name":"pPlane11",
			"rotation":[
				-0.5609855055809021,
				-0.5609855651855469,
				0.4304593503475189,
				0.43045932054519653
			],
			"scale":[
				0.4597547948360443,
				0.4597548246383667,
				0.4597547948360443
			],
			"translation":[
				3.9052746295928955,
				2.3445024490356445,
				-5.880059242248535
			]
		},
		{
			"mesh":14,
			"name":"pPlane3_lambert2_0"
		},
		{
			"children":[
				29
			],
			"name":"pPlane3",
			"rotation":[
				-0.6830126643180847,
				-0.6830127239227295,
				0.1830126941204071,
				0.1830126941204071
			],
			"scale":[
				0.4597547948360443,
				0.4597548246383667,
				0.4597547948360443
			],
			"translation":[
				3.9052746295928955,
				2.3445024490356445,
				-5.880059242248535
			]
		},
		{
			"mesh":15,
			"name":"pPlane4_lambert2_0"
		},
		{
			"children":[
				31
			],
			"name":"pPlane4",
			"rotation":[
				-0.27059805393218994,
				-0.27059805393218994,
				0.6532815098762512,
				0.6532815098762512
			],
			"scale":[
				0.4597548544406891,
				0.4597548246383667,
				0.4597547948360443
			],
			"translation":[
				3.9052746295928955,
				2.3445024490356445,
				-5.880059242248535
			]
		},
		{
			"mesh":16,
			"name":"pPlane7_pavimento_0"
		},
		{
			"children":[
				33
			],
			"name":"pPlane7",
			"scale":[
				23.847410202026367,
				23.847410202026367,
				23.847410202026367
			]
		},
		{
			"mesh":17,
			"name":"pPlane8_lambert2_0"
		},
		{
			"children":[
				35
			],
			"name":"pPlane8",
			"rotation":[
				0.6123723983764648,
				0.6123724579811096,
				0.3535533845424652,
				0.3535534143447876
			],
			"scale":[
				0.4597547948360443,
				0.4597547948360443,
				0.4597548246383667
			],
			"translation":[
				3.9052746295928955,
				2.3445024490356445,
				-5.880059242248535
			]
		},
		{
			"mesh":18,
			"name":"pPlane9_lambert2_0"
		},
		{
			"children":[
				37
			],
			"name":"pPlane9",
			"rotation":[
				-0.7071068286895752,
				-0.7071068286895752,
				0,
				4.282547759340907e-15
			],
			"scale":[
				0.4597548544406891,
				0.4597548842430115,
				0.45975491404533386
			],
			"translation":[
				3.9052746295928955,
				2.3445024490356445,
				-5.880059242248535
			]
		},
		{
			"mesh":19,
			"name":"Teschio_basso_lambert2_0"
		},
		{
			"children":[
				39
			],
			"name":"Teschio_basso",
			"rotation":[
				0,
				-0.17720498144626617,
				0,
				0.9841740727424622
			],
			"translation":[
				0.22635674476623535,
				0,
				-7.244943618774414
			]
		},
		{
			"children":[
				18,
				19,
				20,
				22,
				24,
				26,
				28,
				30,
				32,
				34,
				36,
				38,
				40
			],
			"name":"RootNode"
		},
		{
			"children":[
				41
			],
			"name":"1974afc5179d4672ac2ec12e8d7246e1.fbx",
			"rotation":[
				0.70710688829422,
				0,
				0,
				0.7071066498756409
			]
		},
		{
			"children":[
				42
			],
			"name":"Sketchfab_model",
			"rotation":[
				-0.70710688829422,
				0,
				0,
				0.7071066498756409
			],
			"scale":[
				0.35627222061157227,
				0.35627225041389465,
				0.35627225041389465
			],
			"translation":[
				1.3119961023330688,
				1.9002399444580078,
				-0.3236193060874939
			]
		}
	],
	"materials":[
		{
			"alphaMode":"BLEND",
			"doubleSided":true,
			"emissiveFactor":[
				1,
				1,
				1
			],
			"emissiveTexture":{
				"index":0
			},
			"name":"corpo",
			"normalTexture":{
				"index":1
			},
			"occlusionTexture":{
				"index":2
			},
			"pbrMetallicRoughness":{
				"baseColorTexture":{
					"index":3
				},
				"metallicRoughnessTexture":{
					"index":2
				}
			}
		},
		{
			"doubleSided":true,
			"emissiveFactor":[
				1,
				1,
				1
			],
			"emissiveTexture":{
				"index":4
			},
			"name":"lambert2",
			"normalTexture":{
				"index":5
			},
			"occlusionTexture":{
				"index":6
			},
			"pbrMetallicRoughness":{
				"baseColorTexture":{
					"index":7
				},
				"metallicRoughnessTexture":{
					"index":6
				}
			}
		},
		{
			"alphaMode":"BLEND",
			"doubleSided":true,
			"name":"pavimento",
			"normalTexture":{
				"index":8
			},
			"occlusionTexture":{
				"index":9
			},
			"pbrMetallicRoughness":{
				"baseColorTexture":{
					"index":10
				},
				"metallicRoughnessTexture":{
					"index":9
				}
			}
		}
	],
	"meshes":[
		{
			"name":"bava1_corpo_0",
			"primitives":[
				{
					"attributes":{
						"POSITION":0,
						"NORMAL":1,
						"TEXCOORD_0":2
					},
					"indices":3,
					"material":0
				}
			]
		},
		{
			"name":"bava2_corpo_0",
			"primitives":[
				{
					"attributes":{
						"POSITION":4,
						"NORMAL":5,
						"TEXCOORD_0":6
					},
					"indices":7,
					"material":0
				}
			]
		},
		{
			"name":"pCube10_corpo_0",
			"primitives":[
				{
					"attributes":{
						"POSITION":8,
						"NORMAL":9,
						"TEXCOORD_0":10
					},
					"indices":11,
					"material":0
				}
			]
		},
		{
			"name":"pCube2_corpo_0",
			"primitives":[
				{
					"attributes":{
						"POSITION":12,
						"NORMAL":13,
						"TEXCOORD_0":14
					},
					"indices":15,
					"material":0
				}
			]
		},
		{
			"name":"pCube5_corpo_0",
			"primitives":[
				{
					"attributes":{
						"POSITION":16,
						"NORMAL":17,
						"TEXCOORD_0":18
					},
					"indices":19,
					"material":0
				}
			]
		},
		{
			"name":"pCube6_corpo_0",
			"primitives":[
				{
					"attributes":{
						"POSITION":20,
						"NORMAL":21,
						"TEXCOORD_0":22
					},
					"indices":23,
					"material":0
				}
			]
		},
		{
			"name":"pCube7_corpo_0",
			"primitives":[
				{
					"attributes":{
						"POSITION":24,
						"NORMAL":25,
						"TEXCOORD_0":26
					},
					"indices":27,
					"material":0
				}
			]
		},
		{
			"name":"pCube8_corpo_0",
			"primitives":[
				{
					"attributes":{
						"POSITION":28,
						"NORMAL":29,
						"TEXCOORD_0":30
					},
					"indices":31,
					"material":0
				}
			]
		},
		{
			"name":"pCube9_corpo_0",
			"primitives":[
				{
					"attributes":{
						"POSITION":32,
						"NORMAL":33,
						"TEXCOORD_0":34
					},
					"indices":35,
					"material":0
				}
			]
		},
		{
			"name":"xeno_bindato_corpo_0",
			"primitives":[
				{
					"attributes":{
						"POSITION":36,
						"NORMAL":37,
						"TEXCOORD_0":38
					},
					"indices":39,
					"material":0
				}
			]
		},
		{
			"name":"pCube1_lambert2_0",
			"primitives":[
				{
					"attributes":{
						"POSITION":40,
						"NORMAL":41,
						"TEXCOORD_0":42
					},
					"indices":43,
					"material":1
				}
			]
		},
		{
			"name":"Piedistallo_basso_lambert2_0",
			"primitives":[
				{
					"attributes":{
						"POSITION":44,
						"NORMAL":45,
						"TEXCOORD_0":46
					},
					"indices":47,
					"material":1
				}
			]
		},
		{
			"name":"pPlane10_lambert2_0",
			"primitives":[
				{
					"attributes":{
						"POSITION":48,
						"NORMAL":49,
						"TEXCOORD_0":50
					},
					"indices":51,
					"material":1
				}
			]
		},
		{
			"name":"pPlane11_lambert2_0",
			"primitives":[
				{
					"attributes":{
						"POSITION":52,
						"NORMAL":53,
						"TEXCOORD_0":54
					},
					"indices":51,
					"material":1
				}
			]
		},
		{
			"name":"pPlane3_lambert2_0",
			"primitives":[
				{
					"attributes":{
						"POSITION":55,
						"NORMAL":56,
						"TEXCOORD_0":57
					},
					"indices":51,
					"material":1
				}
			]
		},
		{
			"name":"pPlane4_lambert2_0",
			"primitives":[
				{
					"attributes":{
						"POSITION":58,
						"NORMAL":59,
						"TEXCOORD_0":60
					},
					"indices":51,
					"material":1
				}
			]
		},
		{
			"name":"pPlane7_pavimento_0",
			"primitives":[
				{
					"attributes":{
						"POSITION":61,
						"NORMAL":62,
						"TEXCOORD_0":63
					},
					"indices":51,
					"material":2
				}
			]
		},
		{
			"name":"pPlane8_lambert2_0",
			"primitives":[
				{
					"attributes":{
						"POSITION":64,
						"NORMAL":65,
						"TEXCOORD_0":66
					},
					"indices":51,
					"material":1
				}
			]
		},
		{
			"name":"pPlane9_lambert2_0",
			"primitives":[
				{
					"attributes":{
						"POSITION":67,
						"NORMAL":68,
						"TEXCOORD_0":69
					},
					"indices":51,
					"material":1
				}
			]
		},
		{
			"name":"Teschio_basso_lambert2_0",
			"primitives":[
				{
					"attributes":{
						"POSITION":70,
						"NORMAL":71,
						"TEXCOORD_0":72
					},
					"indices":73,
					"material":1
				}
			]
		}
	],
	"textures":[
		{
			"sampler":0,
			"source":0
		},
		{
			"sampler":0,
			"source":1
		},
		{
			"sampler":0,
			"source":2
		},
		{
			"sampler":0,
			"source":3
		},
		{
			"sampler":0,
			"source":4
		},
		{
			"sampler":0,
			"source":5
		},
		{
			"sampler":0,
			"source":6
		},
		{
			"sampler":0,
			"source":7
		},
		{
			"sampler":0,
			"source":8
		},
		{
			"sampler":0,
			"source":9
		},
		{
			"sampler":0,
			"source":10
		}
	],
	"images":[
		{
			"mimeType":"image/png",
			"name":"corpo_emissive",
			"uri":"corpo_emissive.png"
		},
		{
			"mimeType":"image/png",
			"name":"corpo_normal",
			"uri":"corpo_normal.png"
		},
		{
			"mimeType":"image/png",
			"name":"corpo_metallicRoughness",
			"uri":"corpo_metallicRoughness.png"
		},
		{
			"mimeType":"image/png",
			"name":"corpo_baseColor",
			"uri":"corpo_baseColor.png"
		},
		{
			"mimeType":"image/jpeg",
			"name":"lambert2_emissive",
			"uri":"lambert2_emissive.jpg"
		},
		{
			"mimeType":"image/png",
			"name":"lambert2_normal",
			"uri":"lambert2_normal.png"
		},
		{
			"mimeType":"image/png",
			"name":"lambert2_metallicRoughness",
			"uri":"lambert2_metallicRoughness.png"
		},
		{
			"mimeType":"image/png",
			"name":"lambert2_baseColor",
			"uri":"lambert2_baseColor.png"
		},
		{
			"mimeType":"image/png",
			"name":"pavimento_normal",
			"uri":"pavimento_normal.png"
		},
		{
			"mimeType":"image/png",
			"name":"pavimento_metallicRoughness",
			"uri":"pavimento_metallicRoughness.png"
		},
		{
			"mimeType":"image/png",
			"name":"pavimento_baseColor",
			"uri":"pavimento_baseColor.png"
		}
	],
	"accessors":[
		{
			"bufferView":0,
			"componentType":5126,
			"count":42,
			"max":[
				10.13652515411377,
				16.11988067626953,
				0.9106971025466919
			],
			"min":[
				10.013577461242676,
				15.248441696166992,
				0.7841989994049072
			],
			"type":"VEC3"
		},
		{
			"bufferView":1,
			"componentType":5126,
			"count":42,
			"type":"VEC3"
		},
		{
			"bufferView":2,
			"componentType":5126,
			"count":42,
			"type":"VEC2"
		},
		{
			"bufferView":3,
			"componentType":5123,
			"count":60,
			"type":"SCALAR"
		},
		{
			"bufferView":4,
			"componentType":5126,
			"count":44,
			"max":[
				10.138692855834961,
				9.13254451751709,
				2.2871837615966797
			],
			"min":[
				10.000174522399902,
				7.628667831420898,
				2.145345687866211
			],
			"type":"VEC3"
		},
		{
			"bufferView":5,
			"componentType":5126,
			"count":44,
			"type":"VEC3"
		},
		{
			"bufferView":6,
			"componentType":5126,
			"count":44,
			"type":"VEC2"
		},
		{
			"bufferView":7,
			"componentType":5123,
			"count":60,
			"type":"SCALAR"
		},
		{
			"bufferView":8,
			"componentType":5126,
			"count":64,
			"max":[
				10.865067481994629,
				0.03625565767288208,
				3.14617919921875
			],
			"min":[
				9.225095748901367,
				-0.07172612100839615,
				0.2050514817237854
			],
			"type":"VEC3"
		},
		{
			"bufferView":9,
			"componentType":5126,
			"count":64,
			"type":"VEC3"
		},
		{
			"bufferView":10,
			"componentType":5126,
			"count":64,
			"type":"VEC2"
		},
		{
			"bufferView":11,
			"componentType":5123,
			"count":138,
			"type":"SCALAR"
		},
		{
			"bufferView":12,
			"componentType":5126,
			"count":224,
			"max":[
				11.91035270690918,
				22.496641159057617,
				1.9963654279708862
			],
			"min":[
				11.767023086547852,
				21.1842041015625,
				1.8417115211486816
			],
			"type":"VEC3"
		},
		{
			"bufferView":13,
			"componentType":5126,
			"count":224,
			"type":"VEC3"
		},
		{
			"bufferView":14,
			"componentType":5126,
			"count":224,
			"type":"VEC2"
		},
		{
			"bufferView":15,
			"componentType":5123,
			"count":588,
			"type":"SCALAR"
		},
		{
			"bufferView":16,
			"componentType":5126,
			"count":219,
			"max":[
				10.998844146728516,
				21.50129508972168,
				0.785926878452301
			],
			"min":[
				10.783807754516602,
				20.189422607421875,
				0.6681954264640808
			],
			"type":"VEC3"
		},
		{
			"bufferView":17,
			"componentType":5126,
			"count":219,
			"type":"VEC3"
		},
		{
			"bufferView":18,
			"componentType":5126,
			"count":219,
			"type":"VEC2"
		},
		{
			"bufferView":19,
			"componentType":5123,
			"count":642,
			"type":"SCALAR"
		},
		{
			"bufferView":20,
			"componentType":5126,
			"count":208,
			"max":[
				11.58059310913086,
				21.35294532775879,
				1.5187397003173828
			],
			"min":[
				11.19957160949707,
				19.311634063720703,
				1.3080857992172241
			],
			"type":"VEC3"
		},
		{
			"bufferView":21,
			"componentType":5126,
			"count":208,
			"type":"VEC3"
		},
		{
			"bufferView":22,
			"componentType":5126,
			"count":208,
			"type":"VEC2"
		},
		{
			"bufferView":23,
			"componentType":5123,
			"count":624,
			"type":"SCALAR"
		},
		{
			"bufferView":24,
			"componentType":5126,
			"count":294,
			"max":[
				11.576848983764648,
				21.397144317626953,
				1.85011625289917
			],
			"min":[
				11.290901184082031,
				19.878787994384766,
				1.4864692687988281
			],
			"type":"VEC3"
		},
		{
			"bufferView":25,
			"componentType":5126,
			"count":294,
			"type":"VEC3"
		},
		{
			"bufferView":26,
			"componentType":5126,
			"count":294,
			"type":"VEC2"
		},
		{
			"bufferView":27,
			"componentType":5123,
			"count":831,
			"type":"SCALAR"
		},
		{
			"bufferView":28,
			"componentType":5126,
			"count":57,
			"max":[
				1.1024800539016724,
				-10.160954475402832,
				1.1894456148147583
			],
			"min":[
				-1.2283847332000732,
				-17.272090911865234,
				-0.8966033458709717
			],
			"type":"VEC3"
		},
		{
			"bufferView":29,
			"componentType":5126,
			"count":57,
			"type":"VEC3"
		},
		{
			"bufferView":30,
			"componentType":5126,
			"count":57,
			"type":"VEC2"
		},
		{
			"bufferView":31,
			"componentType":5123,
			"count":330,
			"type":"SCALAR"
		},
		{
			"bufferView":32,
			"componentType":5126,
			"count":163,
			"max":[
				11.9674654006958,
				21.963153839111328,
				1.0572903156280518
			],
			"min":[
				11.852896690368652,
				20.99275779724121,
				0.8392977714538574
			],
			"type":"VEC3"
		},
		{
			"bufferView":33,
			"componentType":5126,
			"count":163,
			"type":"VEC3"
		},
		{
			"bufferView":34,
			"componentType":5126,
			"count":163,
			"type":"VEC2"
		},
		{
			"bufferView":35,
			"componentType":5123,
			"count":543,
			"type":"SCALAR"
		},
		{
			"bufferView":36,
			"componentType":5126,
			"count":11442,
			"max":[
				7.615467548370361,
				33.415794372558594,
				10.656742095947266
			],
			"min":[
				-7.069721698760986,
				12.823773384094238,
				-10.656743049621582
			],
			"type":"VEC3"
		},
		{
			"bufferView":37,
			"componentType":5126,
			"count":11442,
			"type":"VEC3"
		},
		{
			"bufferView":38,
			"componentType":5126,
			"count":11442,
			"type":"VEC2"
		},
		{
			"bufferView":39,
			"componentType":5123,
			"count":61455,
			"type":"SCALAR"
		},
		{
			"bufferView":40,
			"componentType":5126,
			"count":20,
			"max":[
				0.5,
				0.5,
				0.5
			],
			"min":[
				-0.5,
				-0.5,
				-0.5
			],
			"type":"VEC3"
		},
		{
			"bufferView":41,
			"componentType":5126,
			"count":20,
			"type":"VEC3"
		},
		{
			"bufferView":42,
			"componentType":5126,
			"count":20,
			"type":"VEC2"
		},
		{
			"bufferView":43,
			"componentType":5123,
			"count":30,
			"type":"SCALAR"
		},
		{
			"bufferView":44,
			"componentType":5126,
			"count":256,
			"max":[
				5.072652816772461,
				13.134790420532227,
				5.072653293609619
			],
			"min":[
				-5.072652816772461,
				0,
				-5.072653293609619
			],
			"type":"VEC3"
		},
		{
			"bufferView":45,
			"componentType":5126,
			"count":256,
			"type":"VEC3"
		},
		{
			"bufferView":46,
			"componentType":5126,
			"count":256,
			"type":"VEC2"
		},
		{
			"bufferView":47,
			"componentType":5123,
			"count":438,
			"type":"SCALAR"
		},
		{
			"bufferView":48,
			"componentType":5126,
			"count":4,
			"max":[
				0.5,
				0,
				0.5
			],
			"min":[
				-0.5,
				0,
				-0.5
			],
			"type":"VEC3"
		},
		{
			"bufferView":49,
			"componentType":5126,
			"count":4,
			"type":"VEC3"
		},
		{
			"bufferView":50,
			"componentType":5126,
			"count":4,
			"type":"VEC2"
		},
		{
			"bufferView":51,
			"componentType":5123,
			"count":6,
			"type":"SCALAR"
		},
		{
			"bufferView":52,
			"componentType":5126,
			"count":4,
			"max":[
				0.5,
				0,
				0.5
			],
			"min":[
				-0.5,
				0,
				-0.5
			],
			"type":"VEC3"
		},
		{
			"bufferView":53,
			"componentType":5126,
			"count":4,
			"type":"VEC3"
		},
		{
			"bufferView":54,
			"componentType":5126,
			"count":4,
			"type":"VEC2"
		},
		{
			"bufferView":55,
			"componentType":5126,
			"count":4,
			"max":[
				0.5,
				0,
				0.5
			],
			"min":[
				-0.5,
				0,
				-0.5
			],
			"type":"VEC3"
		},
		{
			"bufferView":56,
			"componentType":5126,
			"count":4,
			"type":"VEC3"
		},
		{
			"bufferView":57,
			"componentType":5126,
			"count":4,
			"type":"VEC2"
		},
		{
			"bufferView":58,
			"componentType":5126,
			"count":4,
			"max":[
				0.5,
				0,
				0.5
			],
			"min":[
				-0.5,
				0,
				-0.5
			],
			"type":"VEC3"
		},
		{
			"bufferView":59,
			"componentType":5126,
			"count":4,
			"type":"VEC3"
		},
		{
			"bufferView":60,
			"componentType":5126,
			"count":4,
			"type":"VEC2"
		},
		{
			"bufferView":61,
			"componentType":5126,
			"count":4,
			"max":[
				0.5,
				0,
				0.5
			],
			"min":[
				-0.5,
				0,
				-0.5
			],
			"type":"VEC3"
		},
		{
			"bufferView":62,
			"componentType":5126,
			"count":4,
			"type":"VEC3"
		},
		{
			"bufferView":63,
			"componentType":5126,
			"count":4,
			"type":"VEC2"
		},
		{
			"bufferView":64,
			"componentType":5126,
			"count":4,
			"max":[
				0.5,
				0,
				0.5
			],
			"min":[
				-0.5,
				0,
				-0.5
			],
			"type":"VEC3"
		},
		{
			"bufferView":65,
			"componentType":5126,
			"count":4,
			"type":"VEC3"
		},
		{
			"bufferView":66,
			"componentType":5126,
			"count":4,
			"type":"VEC2"
		},
		{
			"bufferView":67,
			"componentType":5126,
			"count":4,
			"max":[
				0.5,
				0,
				0.5
			],
			"min":[
				-0.5,
				0,
				-0.5
			],
			"type":"VEC3"
		},
		{
			"bufferView":68,
			"componentType":5126,
			"count":4,
			"type":"VEC3"
		},
		{
			"bufferView":69,
			"componentType":5126,
			"count":4,
			"type":"VEC2"
		},
		{
			"bufferView":70,
			"componentType":5126,
			"count":819,
			"max":[
				5.49578332901001,
				2.8107399940490723,
				1.275020956993103
			],
			"min":[
				1.695511817932129,
				-0.01218482106924057,
				-1.2833918333053589
			],
			"type":"VEC3"
		},
		{
			"bufferView":71,
			"componentType":5126,
			"count":819,
			"type":"VEC3"
		},
		{
			"bufferView":72,
			"componentType":5126,
			"count":819,
			"type":"VEC2"
		},
		{
			"bufferView":73,
			"componentType":5123,
			"count":4014,
			"type":"SCALAR"
		}
	],
	"bufferViews":[
		{
			"buffer":0,
			"byteLength":504,
			"byteOffset":0,
			"target":34962
		},
		{
			"buffer":0,
			"byteLength":504,
			"byteOffset":504,
			"target":34962
		},
		{
			"buffer":0,
			"byteLength":336,
			"byteOffset":1008,
			"target":34962
		},
		{
			"buffer":0,
			"byteLength":120,
			"byteOffset":1344,
			"target":34963
		},
		{
			"buffer":0,
			"byteLength":528,
			"byteOffset":1464,
			"target":34962
		},
		{
			"buffer":0,
			"byteLength":528,
			"byteOffset":1992,
			"target":34962
		},
		{
			"buffer":0,
			"byteLength":352,
			"byteOffset":2520,
			"target":34962
		},
		{
			"buffer":0,
			"byteLength":120,
			"byteOffset":2872,
			"target":34963
		},
		{
			"buffer":0,
			"byteLength":768,
			"byteOffset":2992,
			"target":34962
		},
		{
			"buffer":0,
			"byteLength":768,
			"byteOffset":3760,
			"target":34962
		},
		{
			"buffer":0,
			"byteLength":512,
			"byteOffset":4528,
			"target":34962
		},
		{
			"buffer":0,
			"byteLength":276,
			"byteOffset":5040,
			"target":34963
		},
		{
			"buffer":0,
			"byteLength":2688,
			"byteOffset":5316,
			"target":34962
		},
		{
			"buffer":0,
			"byteLength":2688,
			"byteOffset":8004,
			"target":34962
		},
		{
			"buffer":0,
			"byteLength":1792,
			"byteOffset":10692,
			"target":34962
		},
		{
			"buffer":0,
			"byteLength":1176,
			"byteOffset":12484,
			"target":34963
		},
		{
			"buffer":0,
			"byteLength":2628,
			"byteOffset":13660,
			"target":34962
		},
		{
			"buffer":0,
			"byteLength":2628,
			"byteOffset":16288,
			"target":34962
		},
		{
			"buffer":0,
			"byteLength":1752,
			"byteOffset":18916,
			"target":34962
		},
		{
			"buffer":0,
			"byteLength":1284,
			"byteOffset":20668,
			"target":34963
		},
		{
			"buffer":0,
			"byteLength":2496,
			"byteOffset":21952,
			"target":34962
		},
		{
			"buffer":0,
			"byteLength":2496,
			"byteOffset":24448,
			"target":34962
		},
		{
			"buffer":0,
			"byteLength":1664,
			"byteOffset":26944,
			"target":34962
		},
		{
			"buffer":0,
			"byteLength":1248,
			"byteOffset":28608,
			"target":34963
		},
		{
			"buffer":0,
			"byteLength":3528,
			"byteOffset":29856,
			"target":34962
		},
		{
			"buffer":0,
			"byteLength":3528,
			"byteOffset":33384,
			"target":34962
		},
		{
			"buffer":0,
			"byteLength":2352,
			"byteOffset":36912,
			"target":34962
		},
		{
			"buffer":0,
			"byteLength":1662,
			"byteOffset":39264,
			"target":34963
		},
		{
			"buffer":0,
			"byteLength":684,
			"byteOffset":40928,
			"target":34962
		},
		{
			"buffer":0,
			"byteLength":684,
			"byteOffset":41612,
			"target":34962
		},
		{
			"buffer":0,
			"byteLength":456,
			"byteOffset":42296,
			"target":34962
		},
		{
			"buffer":0,
			"byteLength":660,
			"byteOffset":42752,
			"target":34963
		},
		{
			"buffer":0,
			"byteLength":1956,
			"byteOffset":43412,
			"target":34962
		},
		{
			"buffer":0,
			"byteLength":1956,
			"byteOffset":45368,
			"target":34962
		},
		{
			"buffer":0,
			"byteLength":1304,
			"byteOffset":47324,
			"target":34962
		},
		{
			"buffer":0,
			"byteLength":1086,
			"byteOffset":48628,
			"target":34963
		},
		{
			"buffer":0,
			"byteLength":137304,
			"byteOffset":49716,
			"target":34962
		},
		{
			"buffer":0,
			"byteLength":137304,
			"byteOffset":187020,
			"target":34962
		},
		{
			"buffer":0,
			"byteLength":91536,
			"byteOffset":324324,
			"target":34962
		},
		{
			"buffer":0,
			"byteLength":122910,
			"byteOffset":415860,
			"target":34963
		},
		{
			"buffer":0,
			"byteLength":240,
			"byteOffset":538772,
			"target":34962
		},
		{
			"buffer":0,
			"byteLength":240,
			"byteOffset":539012,
			"target":34962
		},
		{
			"buffer":0,
			"byteLength":160,
			"byteOffset":539252,
			"target":34962
		},
		{
			"buffer":0,
			"byteLength":60,
			"byteOffset":539412,
			"target":34963
		},
		{
			"buffer":0,
			"byteLength":3072,
			"byteOffset":539472,
			"target":34962
		},
		{
			"buffer":0,
			"byteLength":3072,
			"byteOffset":542544,
			"target":34962
		},
		{
			"buffer":0,
			"byteLength":2048,
			"byteOffset":545616,
			"target":34962
		},
		{
			"buffer":0,
			"byteLength":876,
			"byteOffset":547664,
			"target":34963
		},
		{
			"buffer":0,
			"byteLength":48,
			"byteOffset":548540,
			"target":34962
		},
		{
			"buffer":0,
			"byteLength":48,
			"byteOffset":548588,
			"target":34962
		},
		{
			"buffer":0,
			"byteLength":32,
			"byteOffset":548636,
			"target":34962
		},
		{
			"buffer":0,
			"byteLength":12,
			"byteOffset":548668,
			"target":34963
		},
		{
			"buffer":0,
			"byteLength":48,
			"byteOffset":548680,
			"target":34962
		},
		{
			"buffer":0,
			"byteLength":48,
			"byteOffset":548728,
			"target":34962
		},
		{
			"buffer":0,
			"byteLength":32,
			"byteOffset":548776,
			"target":34962
		},
		{
			"buffer":0,
			"byteLength":48,
			"byteOffset":548808,
			"target":34962
		},
		{
			"buffer":0,
			"byteLength":48,
			"byteOffset":548856,
			"target":34962
		},
		{
			"buffer":0,
			"byteLength":32,
			"byteOffset":548904,
			"target":34962
		},
		{
			"buffer":0,
			"byteLength":48,
			"byteOffset":548936,
			"target":34962
		},
		{
			"buffer":0,
			"byteLength":48,
			"byteOffset":548984,
			"target":34962
		},
		{
			"buffer":0,
			"byteLength":32,
			"byteOffset":549032,
			"target":34962
		},
		{
			"buffer":0,
			"byteLength":48,
			"byteOffset":549064,
			"target":34962
		},
		{
			"buffer":0,
			"byteLength":48,
			"byteOffset":549112,
			"target":34962
		},
		{
			"buffer":0,
			"byteLength":32,
			"byteOffset":549160,
			"target":34962
		},
		{
			"buffer":0,
			"byteLength":48,
			"byteOffset":549192,
			"target":34962
		},
		{
			"buffer":0,
			"byteLength":48,
			"byteOffset":549240,
			"target":34962
		},
		{
			"buffer":0,
			"byteLength":32,
			"byteOffset":549288,
			"target":34962
		},
		{
			"buffer":0,
			"byteLength":48,
			"byteOffset":549320,
			"target":34962
		},
		{
			"buffer":0,
			"byteLength":48,
			"byteOffset":549368,
			"target":34962
		},
		{
			"buffer":0,
			"byteLength":32,
			"byteOffset":549416,
			"target":34962
		},
		{
			"buffer":0,
			"byteLength":9828,
			"byteOffset":549448,
			"target":34962
		},
		{
			"buffer":0,
			"byteLength":9828,
			"byteOffset":559276,
			"target":34962
		},
		{
			"buffer":0,
			"byteLength":6552,
			"byteOffset":569104,
			"target":34962
		},
		{
			"buffer":0,
			"byteLength":8028,
			"byteOffset":575656,
			"target":34963
		}
	],
	"samplers":[
		{
			"magFilter":9729,
			"minFilter":9987
		}
	],
	"buffers":[
		{
			"byteLength":583684,
			"uri":"xeno_statue.bin"
		}
	]
}
